<?xml version="1.0" encoding="utf-8"?>
<!DOCTYPE svg PUBLIC "-//W3C//DTD SVG 20010904//EN" "http://www.w3.org/TR/2001/REC-SVG-20010904/DTD/svg10.dtd">
<svg version="1.0" xmlns="http://www.w3.org/2000/svg" width="89px" height="103px" viewBox="0 0 89 103" preserveAspectRatio="xMidYMid meet">
 <g fill="#000000">
  <path d="M0 93.6 l0 -9.5 9 0 c8.3 0 9 0.1 9 1.9 0 1.8 0.7 2 9.5 2 6.7 0 9.5 0.4 9.5 1.2 0 0.9 0.3 0.9 1.2 0 0.8 -0.8 6.5 -1.2 19 -1.2 17.1 0 17.8 0.1 17.8 2 0 1.1 0.4 2 0.9 2 0.5 0 1.1 -0.9 1.4 -2 0.4 -1.7 1.4 -2 6.1 -2 l5.6 0 0 7.5 0 7.5 -44.5 0 -44.5 0 0 -9.4z"/>
 </g>
 <g fill="#12783b">
  <path d="M32.3 67.5 c-0.7 -0.8 -1.3 -2.6 -1.3 -4 0 -1.8 -0.5 -2.5 -1.9 -2.5 -1 0 -2.2 0.7 -2.5 1.6 -0.4 1.1 -1.8 1.4 -5.8 1.2 l-5.3 -0.3 0.2 -5.4 c0.1 -6.3 1.7 -8.1 7 -8.1 2.2 0 3.3 -0.5 3.3 -1.5 0 -2.7 3.9 -3.5 17.4 -3.5 15.7 0 15.6 -0.1 15.6 9.9 0 5.6 -0.2 6.1 -2.5 6.7 -2.1 0.5 -2.5 1.2 -2.5 4 0 3.4 -0.1 3.4 -4.5 3.4 -4.5 0 -4.5 0 -4.5 -3.5 0 -3.1 -0.3 -3.5 -2.5 -3.5 -2.2 0 -2.5 0.4 -2.5 3.5 0 3.3 -0.2 3.5 -3.2 3.5 -1.8 -0.1 -3.9 -0.7 -4.5 -1.5z m8.7 -13.5 c0 -0.5 -1.7 -1 -3.7 -0.9 -3.1 0 -3.4 0.2 -1.8 0.9 2.8 1.2 5.5 1.2 5.5 0z"/>
 </g>
 <g fill="#8a500f">
  <path d="M15 82.5 c0 -1.9 0.5 -3.5 1 -3.5 0.6 0 1 -0.7 1 -1.5 0 -1.1 1.2 -1.5 4.9 -1.5 7.3 0 8.1 0.5 8.1 5.6 l0 4.4 -7.5 0 -7.5 0 0 -3.5z"/>
  <path d="M0 82.6 c0 -1.3 0.3 -3.8 0.6 -5.5 0.6 -3 0.8 -3.1 5.9 -3.1 5.1 0 5.3 0.1 5.9 3.1 1.5 7.6 1.3 7.9 -5.9 7.9 -6.2 0 -6.5 -0.1 -6.5 -2.4z"/>
  <path d="M31.2 75.3 c-1.9 -0.9 -4.1 -2.7 -4.9 -4 -0.8 -1.2 -2.2 -2.3 -2.9 -2.3 -0.8 0 -1.4 -0.9 -1.4 -2 0 -1.6 -0.7 -2 -3 -2 -2.8 0 -3 -0.3 -3 -3.5 0 -2.8 0.4 -3.5 1.9 -3.5 1.1 0 2.3 -0.4 2.6 -1 0.3 -0.5 2.6 -1 5.1 -1 4 0 4.4 0.2 4.4 2.5 0 1.4 1.1 3.8 2.4 5.2 2.2 2.4 3.1 2.6 9 2.4 4.9 -0.2 6.6 0.1 6.6 1.1 0.1 1.8 6 -4.9 6 -6.7 0 -0.8 0.5 -1.5 1 -1.5 0.6 0 1 -0.7 1 -1.6 0 -1.2 0.9 -1.4 3.8 -1.2 l3.7 0.3 0.3 5.8 c0.3 5.3 0.1 5.8 -2.2 6.7 -1.5 0.5 -2.6 1.4 -2.6 1.9 0 0.6 -1.7 2.2 -3.7 3.6 -3.3 2.2 -4.8 2.5 -12.3 2.5 -5.8 0 -9.5 -0.6 -11.8 -1.7z m-7.9 -15 c0.3 -0.5 -0.8 -0.8 -2.4 -0.9 -1.5 -0.1 -2.6 0.3 -2.3 0.7 0.6 1.1 4.1 1.2 4.7 0.2z"/>
  <path d="M82.2 56.8 c-0.7 -0.7 -1.2 -2.7 -1.2 -4.5 0 -3.2 0.1 -3.3 4 -3.3 l4 0 0 4.5 c0 4.3 -0.1 4.5 -2.8 4.5 -1.5 0 -3.3 -0.5 -4 -1.2z"/>
  <path d="M58 49.5 c0 -1.9 0.5 -3.5 1 -3.5 1.9 0 1 -1.9 -2.2 -4.9 -2 -1.9 -4.4 -3.1 -6 -3.1 -2.3 0 -2.8 -0.4 -2.8 -2.5 0 -1.4 -0.4 -2.5 -1 -2.5 -0.5 0 -1 -1.6 -1 -3.5 l0 -3.5 5 0 c4.1 0 5 0.3 5 1.8 0 0.9 1.1 2.2 2.5 2.9 2.2 1 2.5 0.9 2.5 -0.8 0 -2.7 7 -2.8 7.1 -0.1 0.1 2.4 2.8 -3.7 2.9 -6.4 0 -2.5 1.8 -3.4 6.6 -3.4 l3.4 0 0 6.5 c0 5.6 -0.2 6.5 -1.8 6.5 -1.2 0 -2.5 1.5 -3.6 4.1 -1.8 4 -1.8 4.1 0.3 6.3 1.2 1.3 2.1 3.6 2.1 5.3 0 2.8 -0.3 3.1 -4.6 3.7 -2.6 0.3 -7.1 0.6 -10 0.6 l-5.4 0 0 -3.5z"/>
  <path d="M14.3 41 c-5 -3 -6.2 -6.4 -6.5 -18.6 l-0.3 -10.9 4.8 -0.3 c3.7 -0.2 4.7 0 4.7 1.2 0 0.9 0.5 1.6 1 1.6 0.6 0 1 1.8 1 4 0 2.2 -0.4 4 -0.9 4 -1.3 0 -2.2 6 -1.1 7.8 0.7 1.4 0.9 1 1 -1.5 0 -3 0.3 -3.3 3 -3.3 1.7 0 3 -0.4 3 -1 0 -0.5 0.9 -1 2 -1 1.6 0 2 -0.7 2 -3.4 0 -3.4 0.1 -3.5 5.3 -4.1 2.9 -0.4 6.6 -0.5 8.2 -0.3 2.9 0.3 3 0.4 3.3 6.5 0.3 5.4 0 6.4 -1.8 7.5 -1.1 0.7 -2 2.3 -2 3.7 0 1.5 -1.5 3.8 -4.2 6.3 -4 3.7 -4.3 3.8 -11.7 3.8 -5.8 0 -8.4 -0.5 -10.8 -2z m18.7 -15.2 c0 -1.6 -0.4 -2.8 -1 -2.8 -0.5 0 -1 1.9 -1 4.3 0 3.1 0.3 3.8 1 2.7 0.5 -0.8 1 -2.7 1 -4.2z"/>
 </g>
 <g fill="#b0201e">
  <path d="M12 74.4 c-1.8 -5.4 -0.8 -18.9 1.8 -24.4 1.2 -2.5 2.2 -6.1 2.4 -8 0.2 -2.6 0.7 -3.4 1.8 -3.1 0.8 0.3 3.4 0.6 5.8 0.9 3.9 0.4 4.2 0.6 4.2 3.3 0 3.5 -3 9.7 -5 10.2 -1.1 0.4 -1.1 0.5 0.3 0.6 2.6 0.2 2 1.8 -0.9 2.4 -2 0.3 -2.4 0.1 -1.9 -1.2 0.5 -1.2 0.3 -1.3 -0.6 -0.4 -1.6 1.6 -0.2 3.3 2.9 3.3 2.3 0.1 2.5 0.2 0.9 1.1 -0.9 0.6 -2.6 0.7 -3.7 0.4 -1.5 -0.5 -1.8 -0.3 -1.4 0.8 0.4 1.2 1.3 1.3 3.4 0.7 l2.8 -0.8 0.7 6 c0.7 5.6 0.6 6.1 -2.1 8.9 -2.1 2.2 -3.7 2.9 -6.5 2.9 -3.4 0 -3.9 -0.3 -4.9 -3.6z"/>
  <path d="M81 51.5 c0 -3.3 0.2 -3.5 3.5 -3.5 3.4 0 3.5 0.1 3.4 3.8 -0.1 2 -0.3 2.9 -0.6 2 -0.2 -1 -1.1 -1.8 -2 -1.8 -1.3 0 -1.3 0.3 -0.3 1.5 1.1 1.3 0.8 1.5 -1.4 1.5 -2.3 0 -2.6 -0.4 -2.6 -3.5z"/>
  <path d="M66 51.6 c0 -0.8 0.8 -1.7 1.8 -1.9 1.6 -0.4 1.6 -0.5 0 -0.6 -1 0 -1.8 -0.8 -1.8 -1.6 0 -1.1 1.1 -1.4 4.5 -1.3 2.5 0.1 4.5 0.6 4.5 1.1 0 0.4 -0.4 0.6 -0.8 0.3 -0.4 -0.2 -1.4 -0.1 -2.2 0.5 -1.2 0.7 -1 0.9 0.8 0.9 1.5 0 2.2 0.6 2.2 2 0 1.7 -0.7 2 -4.5 2 -3.2 0 -4.5 -0.4 -4.5 -1.4z"/>
  <path d="M20 38 c-1.1 -0.7 -0.4 -1 2.8 -1 2.3 0 4.2 0.5 4.2 1 0 1.3 -5 1.3 -7 0z"/>
  <path d="M58.2 34.6 c-0.2 -3 0.1 -3.3 4.3 -4.4 2.5 -0.7 5.4 -1.2 6.5 -1.2 1.1 0 2 -0.4 2 -1 0 -0.5 1.6 -1 3.6 -1 3.1 0 3.5 0.2 2.4 1.5 -0.9 1 -0.9 1.5 -0.1 1.5 0.6 0 1.1 0.9 1.1 2 0 1.5 -0.7 2 -2.5 2 -2.2 0 -2.5 -0.3 -2 -2.7 0.5 -2 0 -1.5 -1.4 1.5 -2.1 4.4 -1.8 4.3 -10.7 4.7 -2.7 0.2 -3 -0.1 -3.2 -2.9z"/>
 </g>
 <g fill="#636337">
  <path d="M9.7 81.3 c-0.4 -0.3 -0.7 -1.9 -0.7 -3.5 0 -2.5 0.3 -2.8 3.5 -2.8 3.3 0 3.5 0.2 3.5 3.5 0 3.2 -0.3 3.5 -2.8 3.5 -1.6 0 -3.2 -0.3 -3.5 -0.7z"/>
  <path d="M31.8 76.3 c-1.2 -0.3 -1.8 -1.4 -1.8 -3.4 l0 -2.9 3.7 2 c2.1 1.1 4.3 2 5 2 0.7 0 1.3 0.7 1.3 1.5 0 1.5 -4.1 1.9 -8.2 0.8z"/>
  <path d="M46 75.7 c0 -0.7 1.4 -1.8 3.2 -2.5 1.7 -0.6 2.9 -1.4 2.6 -1.7 -0.3 -0.3 -1.7 -0.1 -3.2 0.4 -2.1 0.9 -2.6 0.8 -2.6 -0.5 0 -1.1 0.9 -1.4 3.3 -1.2 2.8 0.3 3.2 0.7 3.5 3.6 0.3 3.1 0.2 3.2 -3.2 3.2 -2.3 0 -3.6 -0.5 -3.6 -1.3z"/>
  <path d="M35.1 71.4 c-4.2 -1.8 -3.4 -2.9 1.4 -2 2.1 0.4 3.5 1.3 3.5 2.1 0 1.8 -0.6 1.8 -4.9 -0.1z"/>
  <path d="M15.5 60.8 c1.7 -7.6 5.5 -14 5.5 -9.2 0 0.9 0.9 1.8 2 2.1 2.3 0.6 2.7 3.3 0.5 3.3 -0.8 0 -1.5 0.7 -1.5 1.6 0 1 -0.6 1.3 -1.8 1 -1.3 -0.4 -1.9 -0.1 -1.9 0.9 0 0.8 0.6 1.5 1.4 1.5 0.7 0 1.3 0.5 1.3 1 0 0.6 -1.4 1 -3.1 1 -2.9 0 -3 -0.1 -2.4 -3.2z"/>
  <path d="M41 60.5 c0 -0.8 0.7 -1.5 1.5 -1.5 0.8 0 1.9 -0.9 2.5 -2 0.6 -1.2 2 -1.9 3.3 -1.8 1.2 0.1 3.2 -0.2 4.5 -0.6 1.6 -0.6 2.2 -0.3 2.2 0.8 0 0.9 -0.7 1.6 -1.5 1.6 -0.8 0 -1.5 0.5 -1.5 1.1 0 0.6 0.7 0.8 1.6 0.5 0.9 -0.3 1.8 -0.6 2 -0.6 0.2 0 0.4 -0.9 0.4 -2 0 -1.3 0.7 -2 2 -2 1.7 0 2 0.6 1.8 3.4 -0.2 3.1 -0.6 3.5 -3.7 4 -2 0.3 -6.2 0.6 -9.3 0.6 -4.5 0 -5.8 -0.3 -5.8 -1.5z"/>
  <path d="M26.2 57.5 c-0.3 -3.4 -0.1 -3.5 3.3 -3.5 3.7 0 5 2.4 1.8 3.3 -1.7 0.4 -1.7 0.5 0 0.6 0.9 0 1.7 0.8 1.7 1.6 0 1 -1 1.5 -3.3 1.5 -3.1 0 -3.3 -0.3 -3.5 -3.5z"/>
  <path d="M41 56.5 c0 -0.8 0.7 -1.5 1.5 -1.5 0.8 0 1.5 0.7 1.5 1.5 0 0.8 -0.7 1.5 -1.5 1.5 -0.8 0 -1.5 -0.7 -1.5 -1.5z"/>
  <path d="M22 51.5 c0 -0.8 0.7 -1.5 1.5 -1.5 0.8 0 1.5 0.7 1.5 1.5 0 0.8 -0.7 1.5 -1.5 1.5 -0.8 0 -1.5 -0.7 -1.5 -1.5z"/>
 </g>
 <g fill="#1647a1">
  <path d="M15 88.4 c0 -1.1 -0.6 -1.5 -2 -1.1 -1.1 0.3 -2 0.1 -2 -0.4 0 -0.5 -0.7 -0.9 -1.5 -0.9 -1.8 0 -2 -3.6 -0.2 -4.3 1 -0.4 1 -0.6 0 -0.6 -0.7 -0.1 -1.3 -0.6 -1.3 -1.2 0 -1.1 12.7 -0.5 17.5 0.8 1.9 0.5 1.9 0.5 0.1 -0.9 -1.7 -1.4 -1.7 -1.6 -0.2 -4.6 0.9 -1.7 2.2 -3.4 2.8 -3.9 3 -1.8 13.8 -1.1 13.8 0.9 0 1 -3.6 0.7 -7.2 -0.7 -1 -0.4 -1.8 -0.3 -1.8 0.3 0 2.7 15.2 3.3 18.1 0.6 1.8 -1.7 2 -1.6 4.5 0.7 3.6 3.4 6.4 9.2 6.4 13.4 0 3.3 -0.2 3.5 -3.5 3.5 -2.1 0 -3.5 -0.5 -3.5 -1.2 0 -0.9 -0.3 -0.9 -1.2 0 -0.7 0.7 -2.9 1.2 -5 1.2 -3.7 0 -3.8 -0.1 -3.8 -3.4 0 -2.9 -0.4 -3.4 -2.7 -3.8 -1.6 -0.3 -3.5 -0.8 -4.3 -1.2 -1.3 -0.5 -1.5 0.2 -1.2 3.9 l0.4 4.5 -11.1 0 c-9.6 0 -11.1 -0.2 -11.1 -1.6z m10.3 -6.1 c-1.3 -0.2 -3.5 -0.2 -5 0 -1.6 0.2 -0.5 0.4 2.2 0.4 2.8 0 4 -0.2 2.8 -0.4z"/>
  <path d="M45 72 c0 -0.5 1.2 -1 2.8 -0.9 2.4 0 2.5 0.1 0.7 0.9 -2.7 1.2 -3.5 1.2 -3.5 0z"/>
  <path d="M17 18.5 c0 -3.3 0.2 -3.5 3.5 -3.5 3.3 0 3.5 0.2 3.5 3.5 0 3.3 -0.2 3.5 -3.5 3.5 -3.3 0 -3.5 -0.2 -3.5 -3.5z"/>
 </g>
 <g fill="#f71212">
  <path d="M13.2 73.5 c-2.5 -5.4 -0.6 -22.5 2.4 -22.5 1.7 0 1.7 0.5 -0.1 5.5 -0.8 2.2 -1.4 5.8 -1.5 8.1 0 4.1 1.7 10.4 2.8 10.4 0.3 0 1.8 -1.2 3.3 -2.6 2.3 -2.2 2.6 -3.1 2.1 -7 -0.3 -3.1 -0.1 -4.4 0.8 -4.4 1.6 0 0.8 11.4 -1 13.5 -0.7 0.8 -2.7 1.5 -4.5 1.5 -2.4 0 -3.4 -0.6 -4.3 -2.5z"/>
  <path d="M16.2 70.5 c-0.7 -1.4 -1.2 -3.8 -1.2 -5.4 0 -3.6 2.8 -12.8 4.1 -13.7 2 -1.2 2.3 0.7 0.6 3.5 -2.1 3.6 -2.2 7.1 -0.2 7.1 1 0 1.5 1 1.5 2.6 0 2.3 -0.2 2.5 -1.6 1.4 -1.3 -1.2 -1.4 -1 -0.3 1.4 1 2.2 1 2.9 -0.2 4.2 -1.4 1.3 -1.7 1.2 -2.7 -1.1z"/>
  <path d="M19.5 59 c-0.3 -0.5 -0.1 -1.8 0.4 -2.7 0.9 -1.6 1 -1.6 1.1 0.4 0 1.2 0.6 2.4 1.3 2.6 0.7 0.3 0.6 0.6 -0.5 0.6 -0.9 0.1 -2 -0.3 -2.3 -0.9z"/>
  <path d="M78 49.5 c0 -3.3 0.2 -3.5 3.5 -3.5 2.8 0 3.5 0.4 3.5 1.9 0 3.7 -1.2 5.1 -4.1 5.1 -2.6 0 -2.9 -0.3 -2.9 -3.5z"/>
  <path d="M17.5 48.2 c-0.3 -0.3 -0.5 -2.5 -0.5 -4.9 0 -2.9 0.4 -4.3 1.3 -4.3 2.1 0 2.8 1.2 1.5 2.7 -0.8 1 -0.8 2 0.1 3.9 0.6 1.4 1.1 2.6 1.1 2.8 0 0.5 -3 0.3 -3.5 -0.2z"/>
  <path d="M22 48.5 c0 -0.3 0.8 -1.8 1.7 -3.3 l1.7 -2.7 -2.1 1.8 c-1.4 1.3 -2.3 1.5 -2.8 0.7 -1.1 -1.7 0.3 -4.3 2 -3.6 0.8 0.3 1.5 0.1 1.5 -0.4 0 -0.6 0.7 -1 1.5 -1 1.9 0 2.1 6 0.3 7.8 -1.2 1.2 -3.8 1.7 -3.8 0.7z"/>
  <path d="M61.2 34.8 l-0.1 -4.8 3.4 0 c2.4 0 3.5 0.5 3.5 1.5 0 0.9 0.6 1.2 1.5 0.9 2.4 -1 1.8 2.9 -0.7 5.3 -1.3 1.2 -3.4 2.1 -4.8 2 -2.4 -0.2 -2.6 -0.6 -2.8 -4.9z"/>
 </g>
 <g fill="#a86a2a">
  <path d="M7 83.6 c0 -0.8 0.8 -1.7 1.8 -1.9 0.9 -0.3 -0.7 -0.5 -3.5 -0.6 l-5.3 -0.1 0 -4.1 c0 -4.1 0 -4.1 3.3 -3.5 4.1 0.8 21.8 3.5 23.5 3.6 0.6 0 1.2 0.7 1.2 1.5 0 1.2 -0.9 1.4 -4.2 1 -3.9 -0.4 -4 -0.4 -1 0.4 5.1 1.3 4.8 1.8 -2 2.4 -3.4 0.3 -6.4 1 -6.6 1.6 -0.6 1.7 -7.2 1.4 -7.2 -0.3z"/>
  <path d="M28 83.3 c0 -1 0.5 -2.5 1 -3.3 0.7 -1.1 1 -0.7 1 1.8 0 1.7 -0.4 3.2 -1 3.2 -0.5 0 -1 -0.8 -1 -1.7z"/>
  <path d="M40.2 76.8 c-2.1 -2.1 -1.3 -2.8 2.8 -2.8 3.3 0 4 0.3 4 2 0 1.5 -0.7 2 -2.8 2 -1.5 0 -3.3 -0.5 -4 -1.2z"/>
  <path d="M29 72.5 c0 -2.1 -0.5 -2.5 -2.9 -2.5 -3.1 0 -4.1 -1.4 -4.1 -6 0 -2.2 0.7 -3.1 2.8 -3.9 2.5 -1 2.5 -1.1 -1 -0.6 -2.3 0.4 -3.8 0.2 -3.8 -0.5 0 -0.5 0.9 -1 2.1 -1 1.2 0 2.3 -0.8 2.6 -2 0.4 -1.5 1.4 -2 3.9 -2 3.7 0 4.9 2.5 1.7 3.3 -1.7 0.4 -1.7 0.5 0 0.6 2.1 0.1 2.1 0.7 0.2 6.2 -1.5 4.2 -1.5 4.5 0.6 6.2 1.7 1.4 1.9 2 0.9 3.2 -1.8 2.2 -3 1.8 -3 -1z"/>
  <path d="M50.7 74.4 c-0.7 -0.8 6.8 -8.4 8.2 -8.4 0.6 0 1.2 -0.4 1.5 -0.9 1.4 -2.2 -4 0.5 -6.2 3.1 -2.7 3.2 -8.1 5.1 -13.2 4.6 -3.1 -0.3 -3.5 -0.7 -3.8 -3.4 -0.3 -3.1 -0.2 -3.2 4.8 -3.9 3.4 -0.5 5.6 -0.3 6.3 0.4 1.7 1.7 3.7 1.3 3.7 -0.8 0 -1.1 0.7 -2.6 1.5 -3.5 0.8 -0.8 1.5 -1.9 1.5 -2.5 0 -0.6 0.5 -1.1 1.1 -1.1 0.5 0 0.7 -0.4 0.4 -1 -0.4 -0.6 1 -1 3.3 -1 4.4 0 5.2 1 5.2 6.6 0 2.4 -0.5 3.4 -1.5 3.4 -0.8 0 -1.5 0.9 -1.5 2 0 1.5 -0.9 2.2 -3 2.7 -2.1 0.4 -3 1.1 -3 2.4 0 1.3 -0.7 1.9 -2.3 1.9 -1.3 0 -2.7 -0.3 -3 -0.6z"/>
  <path d="M32.9 70 l-2.4 -1.9 2.8 -0.1 c2 0 2.7 0.5 2.7 2 0 2.5 -0.2 2.5 -3.1 0z"/>
  <path d="M45.2 57.3 c0.2 -1.1 1.2 -1.8 2.6 -1.7 1.4 0 1.9 -0.3 1.3 -0.9 -1.3 -1.3 -4.9 0.1 -5.4 2.1 -0.3 0.9 -0.5 0.2 -0.6 -1.5 -0.1 -3.3 0 -3.3 4.5 -3.3 4.5 0 4.5 0 4.2 3.3 -0.3 2.8 -0.7 3.2 -3.6 3.5 -2.8 0.3 -3.3 0 -3 -1.5z"/>
  <path d="M57 49.7 c0 -1.8 0.5 -3.8 1 -4.3 0.6 -0.6 0.8 -1.7 0.5 -2.5 -0.6 -1.5 -5 -3.9 -7.3 -3.9 -2.4 0 -5.2 -4.1 -5.2 -7.6 0 -4.9 0.9 -6.4 3.9 -6.4 4.7 0 6.9 1.1 8.5 4.3 1.4 2.8 1.6 2.9 1.6 1 0 -2 0.5 -2.3 3.5 -2.3 3.1 0 3.5 0.3 3.5 2.5 0 1.7 -0.6 2.5 -1.7 2.6 -1.5 0 -1.5 0.2 0.2 0.9 1.7 0.7 1.7 0.9 0.3 0.9 -2.4 0.1 -2.3 2.1 0.1 2.1 1.5 0 2.1 -1.2 3 -6 0.7 -3.3 1.6 -6 2.2 -6 0.5 0 0.9 -0.8 0.9 -1.9 0 -2 2.5 -3.1 7.3 -3.1 2.6 0 2.7 0.2 2.7 5.5 0 5.2 -0.1 5.5 -2.5 5.5 -2 0 -2.5 0.5 -2.5 2.5 0 1.4 -0.4 2.5 -1 2.5 -0.5 0 -1 0.9 -1 2 0 1.1 -0.7 2 -1.5 2 -0.8 0 -1.5 0.9 -1.5 2 0 1.6 0.7 2 3 2 2.7 0 3 0.3 3 3.4 0 3.4 0 3.4 -6.3 4.5 -3.5 0.6 -8.2 1.1 -10.5 1.1 -4.1 0 -4.2 -0.1 -4.2 -3.3z m16.3 -0.5 c1.6 -0.7 1.4 -1.1 -1.3 -3.7 -3 -2.9 -3.8 -5.3 -2.1 -7.1 1.9 -2 5 -8.4 4.2 -8.8 -0.4 -0.3 -1.3 1 -1.9 2.8 -0.7 1.8 -2.3 4.3 -3.6 5.5 -2.9 2.7 -5.2 2.3 -10.2 -2.1 -1.9 -1.7 -3.4 -2.5 -3.4 -1.9 0 0.6 0.3 1.1 0.8 1.1 1.9 0.1 6.6 5.5 7.2 8.3 0.8 3.1 0.8 3.1 0.9 0.5 0.1 -2.1 0.6 -2.8 2.1 -2.8 1.1 0 2 0.5 2 1 0 0.6 1.1 2.2 2.4 3.5 l2.5 2.5 -2.2 0.5 c-1.2 0.2 -3.1 0.6 -4.2 0.8 -1.1 0.3 -0.4 0.5 1.5 0.5 1.9 0 4.3 -0.3 5.3 -0.6z"/>
  <path d="M17.7 40 c-0.4 -1.7 -0.2 -1.8 1.4 -0.9 1.1 0.5 1.7 1.4 1.4 2 -1 1.5 -2.2 1 -2.8 -1.1z"/>
  <path d="M24 41 c0 -0.5 1.3 -1 2.8 -1 1.9 0 4.2 -1.3 7 -3.8 4 -3.7 4.2 -3.8 4.2 -1.5 0 1.2 -0.4 2.3 -1 2.3 -0.5 0 -1 0.8 -1 1.9 0 1.4 -1 2 -3.7 2.5 -5.5 0.9 -8.3 0.7 -8.3 -0.4z"/>
  <path d="M17.8 36.5 c-4.3 -2.9 -6.4 -7.9 -4.9 -11.9 0.8 -1.9 0.7 -2.6 -0.2 -2.6 -0.7 0 -1.3 1.7 -1.5 4.3 -0.2 3.3 0.4 5.2 2.2 8 2.4 3.6 2.5 3.7 0.5 3.7 -2.3 0 -4.9 -5.2 -4.9 -10 0 -1.6 -0.4 -3 -1 -3 -0.5 0 -1 -1.9 -1 -4.3 0 -4 0.2 -4.4 3.3 -5.4 1.7 -0.5 2.4 -0.9 1.5 -0.7 -1 0.1 -1.8 -0.4 -1.8 -1.2 0 -1.5 3.7 -1.9 7.8 -0.8 1.7 0.5 2.2 1.4 2.2 4 0 2.2 -0.5 3.4 -1.4 3.4 -1.3 0 -2.6 6.4 -1.8 8.9 0.6 1.9 3.2 1.2 3.2 -0.8 0 -1.2 0.9 -2.1 2.5 -2.5 2 -0.5 2.5 -1.3 2.5 -3.7 0 -3 0.2 -3.1 3.5 -2.7 3.1 0.4 3.5 0.1 3.5 -1.9 0 -1.8 0.5 -2.3 2.8 -2.3 4.2 0 7.2 1.1 7.2 2.6 0 0.7 -0.6 1.2 -1.2 1 -0.7 -0.1 -1 -0.1 -0.5 0.1 1.2 0.7 0.8 5.8 -0.5 7.3 -1.1 1.2 -1 1.2 0.5 0.1 1.5 -1.2 1.7 -1.1 1.7 1.3 0 1.9 -0.5 2.6 -1.9 2.6 -1.5 0 -2.1 -1 -2.6 -4 -0.4 -2.1 -0.4 -4.3 -0.1 -4.8 0.2 -0.4 0.1 -1.4 -0.5 -2.2 -0.6 -1 -0.9 0.8 -0.9 5.3 0 8 -0.8 9.8 -5.4 12.6 -4.4 2.8 -8.3 2.6 -12.8 -0.4z m9.2 -7 c0.6 -0.8 1 -2 0.7 -2.7 -0.4 -0.9 -0.6 -0.7 -0.6 0.3 -0.1 2.2 -3 3.2 -4.7 1.8 -0.8 -0.6 -1.4 -0.7 -1.4 -0.2 0 2.6 4 3.2 6 0.8z m8 -3 c0 -2.4 -0.5 -3.5 -1.5 -3.5 -0.8 0 -1.5 0.9 -1.5 2 0 1.1 -0.4 2 -1 2 -0.5 0 -1 0.7 -1 1.5 0 0.9 0.9 1.5 2.5 1.5 2.2 0 2.5 -0.4 2.5 -3.5z"/>
 </g>
 <g fill="#3ea759">
  <path d="M31.7 69.3 c-0.4 -0.3 -0.7 -2.2 -0.7 -4.1 0 -3.4 -0.1 -3.5 -3.5 -2.9 -2.7 0.5 -3.5 0.2 -3.5 -1 0 -1 0.6 -1.4 2 -1 1.2 0.3 1.8 0.1 1.4 -0.5 -0.4 -0.5 -2.1 -0.7 -3.9 -0.4 -3.8 0.8 -5.1 -0.5 -3.5 -3.4 0.8 -1.5 2.1 -2 5.3 -2 3.4 0 4.4 -0.4 5.2 -2.2 0.6 -1.4 2.2 -2.6 4 -2.9 2.4 -0.5 2.6 -0.7 0.7 -0.8 -3.1 -0.1 -6.2 1.6 -6.2 3.4 0 1 -1.1 1.5 -3.5 1.5 -1.9 0 -3.5 -0.4 -3.5 -1 0 -0.5 1.4 -1 3 -1 2.7 0 3 -0.3 3 -3 l0 -2.9 12.3 0.5 c18.8 0.8 18.3 0.6 19.1 6.1 0.9 7 0.9 7.1 -3.4 8.4 -3.6 1.1 -4 1.5 -4 4.6 0 3.1 -0.2 3.3 -3.5 3.3 -3.3 0 -3.5 -0.2 -3.5 -3.5 0 -3.1 -0.3 -3.5 -2.5 -3.5 -1.9 0 -2.5 0.5 -2.5 2.3 0 5.1 -1.1 6.7 -4.4 6.7 -1.8 0 -3.6 -0.3 -3.9 -0.7z m13.3 -11.8 c0 -1.5 1.1 -1.9 4 -1.5 1.1 0.1 1.2 -0.1 0.4 -1 -1.6 -1.6 -5.4 -0.3 -5.4 1.7 0 1.4 -1.2 1.5 -8.2 1.1 -4.8 -0.4 -6.8 -0.3 -4.8 0.2 1.9 0.4 5.9 0.8 8.8 0.9 4 0.1 5.2 -0.2 5.2 -1.4z m9.6 0.9 c1.8 -0.5 2 -1 1.4 -4.3 -1 -5.5 -1.7 -6.1 -6.3 -5.9 -4.1 0.1 -4.1 0.1 -0.7 0.5 1.9 0.3 4.1 0.9 4.7 1.5 1.8 1.5 1.7 6.8 -0.1 6.8 -0.8 0 -1.8 0.5 -2.1 1 -0.7 1.1 0.1 1.2 3.1 0.4z m-9.6 -8.8 c0 -0.9 -4 -1.3 -4.6 -0.5 -0.3 0.5 0.6 0.9 2 0.9 1.4 0 2.6 -0.2 2.6 -0.4z"/>
  <path d="M17.5 54.8 c0.9 -2.9 2.3 -4.4 3.2 -3.5 0.8 0.9 -1.7 5.7 -2.9 5.7 -0.5 0 -0.6 -1 -0.3 -2.2z"/>
  <path d="M53.7 29.3 c-0.4 -0.3 -0.7 -2.4 -0.7 -4.5 l0 -3.8 4.5 0 4.5 0 0 4.5 0 4.5 -3.8 0 c-2.1 0 -4.2 -0.3 -4.5 -0.7z"/>
  <path d="M64 24.6 c0 -3.7 1.2 -4.6 6.1 -4.6 2.7 0 2.9 0.2 2.9 4 l0 4 -4.5 0 c-4.4 0 -4.5 0 -4.5 -3.4z"/>
 </g>
 <g fill="#9d14b5">
  <path d="M60.3 83.6 c0.6 -6.1 0.5 -6.4 -2.4 -8.5 -3.8 -2.8 -3.7 -4.9 0.3 -8.4 1.8 -1.5 2.5 -2.4 1.6 -2.1 -1.2 0.4 -1.8 0.1 -1.8 -0.9 0 -1.1 0.9 -1.5 3 -1.5 1.8 0.1 3 0.6 3 1.5 0 0.7 0.7 1.3 1.5 1.3 0.9 0 1.5 0.9 1.5 2.4 0 1.4 0.5 2.8 1 3.1 1.3 0.8 1.3 11 -0.1 15.8 -0.9 3.4 -1.3 3.7 -4.6 3.7 l-3.6 0 0.6 -6.4z"/>
  <path d="M81.4 86.5 c-0.8 -2 -1.7 -5.6 -2.1 -8 -0.6 -4.4 -0.6 -4.5 -4.4 -4.5 -3.8 0 -3.9 -0.1 -3.9 -3.4 0 -3.4 0.1 -3.5 4.8 -3.8 5.2 -0.3 5.1 -0.2 3.5 -8.3 l-0.9 -4 -7.9 0.4 c-5 0.2 -8.6 0.8 -9.6 1.7 -2.3 2.1 -3.8 1.7 -4.4 -1.1 -0.3 -1.4 -0.7 -3.6 -1 -4.9 -0.6 -2.8 0.7 -3.5 7.3 -3.5 2.3 0 5.1 -0.2 6.1 -0.6 1.1 -0.3 2.2 -0.1 2.5 0.4 0.8 1.3 -2.7 2.3 -6.9 2 -1.9 -0.2 -3.8 0 -4.2 0.5 -1 1 13.3 0.3 14.3 -0.7 0.4 -0.4 -0.1 -1.4 -1.2 -2.3 -1.8 -1.4 -1.5 -1.5 3.8 -1 3.1 0.2 6.6 0.9 7.7 1.6 2.4 1.3 3 5.6 0.6 4.6 -2.1 -0.8 -1.9 0 1.1 3.9 2.3 3.1 2.5 4 2 9.7 -0.8 8.9 -0.8 9.5 0 17.6 l0.7 7.2 -3.2 0 c-2.7 0 -3.4 -0.5 -4.7 -3.5z"/>
 </g>
 <g fill="#7a7680">
  <path d="M9.7 85.3 c-1.6 -1.6 -0.7 -3.4 1.4 -2.8 1.5 0.5 1.9 0.4 1.5 -0.4 -0.4 -0.6 -1.4 -1.1 -2.2 -1.1 -2.3 0 -1.6 -2 0.9 -2.1 1.6 -0.1 1.8 -0.2 0.5 -0.6 -1 -0.2 -1.8 -1.1 -1.8 -1.9 0 -1 1.4 -1.4 5.5 -1.4 4.8 0 5.5 0.2 5.5 2 0 1.1 -0.7 2 -1.5 2 -0.8 0 -1.5 0.9 -1.5 2 0 1.3 -0.7 2 -2 2 -1.1 0 -2 0.7 -2 1.5 0 1.5 -3.1 2.1 -4.3 0.8z"/>
  <path d="M0 81.5 c0 -3.2 0.2 -3.5 3 -3.5 3.3 0 4.3 2.5 1.3 3.3 -1.7 0.4 -1.7 0.5 0 0.6 3.1 0.2 2 3.1 -1.3 3.1 -2.8 0 -3 -0.3 -3 -3.5z"/>
  <path d="M39.8 81.3 c-1 -0.2 -1.8 -1.3 -1.8 -2.4 0 -1.8 0.2 -1.9 3 -0.4 4 2.1 6.6 1.9 8.4 -0.7 l1.6 -2.2 0 2.6 c0 1.4 -0.7 2.9 -1.6 3.2 -1.7 0.7 -6.9 0.6 -9.6 -0.1z"/>
  <path d="M41.2 77.4 c-3.3 -2.3 -2.7 -3.1 2.3 -3.2 3.7 0 4.5 0.3 4.5 1.8 0 1.6 -1.8 3 -3.9 3 -0.3 0 -1.7 -0.7 -2.9 -1.6z"/>
  <path d="M0 46.6 l0 -4.5 6.5 -3.4 6.6 -3.5 3.9 2.6 c3.1 2 3.7 2.8 2.8 3.9 -0.8 1 -0.8 2 0 3.8 1.1 2.4 1 2.5 -2.2 2.5 -1.9 0 -3.6 -0.5 -3.8 -1.2 -0.3 -0.8 -1.9 -0.3 -5 1.5 -2.6 1.5 -5.6 2.7 -6.7 2.7 -1.8 0 -2.1 -0.6 -2.1 -4.4z"/>
  <path d="M31.7 49.9 c0.7 -0.7 2.1 -0.7 4.4 -0.1 l3.4 1 -4.4 0.1 c-3.2 0.1 -4.2 -0.2 -3.4 -1z"/>
  <path d="M22 48.2 c0 -0.4 0.5 -1.3 1.1 -1.9 0.7 -0.7 1.2 -2.2 1.3 -3.5 0.1 -1.7 0.8 -2.4 2.6 -2.6 1.4 -0.2 3.1 -0.9 3.8 -1.5 1.7 -1.3 8.2 4.8 8.2 7.7 0 1.9 -0.7 2.1 -8.5 2.4 -4.7 0.1 -8.5 -0.1 -8.5 -0.6z"/>
  <path d="M18 19.7 c0 -3.3 0.2 -3.5 3.8 -4 2 -0.3 5.8 -0.9 8.5 -1.3 l4.7 -0.7 0 3.6 c0 3.9 -0.4 4.1 -10.7 5.3 l-6.3 0.7 0 -3.6z"/>
 </g>
 <g fill="#3e7cd7">
  <path d="M6 87.4 c-1.5 -4 -1.2 -5.4 1.3 -5.4 6.5 0.1 8.3 2.4 4.7 6 -2.7 2.7 -4.9 2.5 -6 -0.6z"/>
  <path d="M15 88.5 c0 -0.8 0.5 -1.5 1 -1.5 0.6 0 1 0.7 1 1.5 0 0.8 -0.4 1.5 -1 1.5 -0.5 0 -1 -0.7 -1 -1.5z"/>
  <path d="M30.4 89.2 c-0.6 -0.4 -1.5 -2.1 -1.8 -3.9 -0.8 -3.6 1.2 -8.1 4.5 -10.1 1.7 -1.1 1.9 -0.9 1.9 2.3 0 4.4 2 4.7 2.1 0.3 0 -1.8 0.3 -2.7 0.6 -2 0.6 1.6 5.6 4.2 8.2 4.2 1.1 0 2.6 -0.9 3.4 -2 1.4 -2 1.5 -2 4.5 1.4 1.7 1.9 3.3 4.4 3.7 5.6 0.4 1.2 0.9 1.9 1.2 1.7 0.8 -0.8 -2.8 -7 -6 -10.4 -2.9 -3.1 -3 -3.3 -0.9 -3.3 1.5 0 2.2 0.6 2.2 2 0 1.3 0.7 2 1.8 2 3.1 0 6.2 3.7 6.2 7.5 0 1.9 -0.3 3.6 -0.7 3.8 -0.5 0.3 -3.8 0.8 -7.5 1.2 l-6.8 0.7 0 -4.1 0 -4.1 -4.8 0 -4.8 0 0.4 4 c0.4 4 0.4 4 -2.9 4 -1.9 0 -3.9 -0.4 -4.5 -0.8z m20.6 -4.2 c0.6 -1.1 0.9 -2 0.7 -2 -0.2 0 -1.2 0.9 -2.2 2 -1 1.1 -1.3 2 -0.7 2 0.6 0 1.6 -0.9 2.2 -2z"/>
  <path d="M9.3 81.3 c-2.4 -0.2 -4.3 -0.8 -4.3 -1.4 0 -1 6.3 -1.2 9.8 -0.3 2.6 0.7 3 2.5 0.5 2.2 -1 -0.1 -3.7 -0.3 -6 -0.5z"/>
  <path d="M25 79 c0 -0.5 0.7 -1 1.5 -1 0.9 0 1.5 -0.9 1.5 -2.5 0 -1.8 0.5 -2.5 2 -2.5 1.8 0 1.8 0.1 -0.3 3.5 -2.1 3.2 -4.7 4.7 -4.7 2.5z"/>
  <path d="M41 77 l-2.3 -1.8 4.7 -0.3 c3.6 -0.3 4.6 -0.1 4.4 1 -0.5 2.4 -4.2 3.1 -6.8 1.1z"/>
  <path d="M26 21.9 c0 -0.5 -2.1 -0.9 -4.6 -0.9 l-4.5 0 0.3 -3.7 c0.3 -3.7 0.4 -3.8 4.6 -4.1 3.1 -0.2 4.2 0.1 4.2 1.1 0 1.1 1 1.3 4.6 0.9 l4.5 -0.5 -0.3 3.9 c-0.3 3.8 -0.4 3.9 -4.5 4 -2.4 0.1 -4.3 -0.2 -4.3 -0.7z"/>
 </g>
 <g fill="#b8875a">
  <path d="M12.5 81.5 c-0.5 -0.2 -3.6 -0.6 -6.7 -1 l-5.8 -0.6 0 -3.6 0 -3.5 6.8 0.7 c3.7 0.4 6.9 1.1 7 1.6 0.2 0.5 0.8 0.6 1.4 0.3 1.2 -0.8 13.8 0.5 13.8 1.4 -0.1 2.8 -1.8 3 -14.7 1.3 -7.2 -0.9 -13 -1.4 -12.7 -1 0.2 0.4 3.8 1 7.9 1.4 5.4 0.5 7.5 1.1 7.5 2.1 0 1.3 -2.1 1.7 -4.5 0.9z"/>
  <path d="M35.6 75.9 c-1.7 -1.6 -1.7 -1.9 -0.3 -1.9 0.9 0 2.1 0.9 2.7 2 1.3 2.5 0.1 2.5 -2.4 -0.1z"/>
  <path d="M40.8 76.9 c-3 -1.7 -2 -2.6 2.8 -2.7 3.7 0 4.5 0.3 4.2 1.6 -0.4 2 -4.5 2.6 -7 1.1z"/>
  <path d="M50.6 74.2 c-0.3 -0.5 0.8 -1.9 2.4 -3.1 3 -2.1 3 -2.1 3 -0.1 0 1.1 -0.7 2 -1.5 2 -0.8 0 -1.5 0.5 -1.5 1 0 1.2 -1.7 1.3 -2.4 0.2z"/>
  <path d="M30 72 c0 -1.6 -0.7 -2 -3.4 -2 -3.7 0 -4.6 -1.3 -4.5 -6.3 l0.1 -3.2 1 2.8 c0.5 1.5 1.4 2.8 1.9 2.8 0.5 0.1 1.3 0.2 1.8 0.3 1.3 0.2 6.1 6.3 5.4 7 -1.2 1.2 -2.3 0.6 -2.3 -1.4z"/>
  <path d="M35.4 71.6 c-1.7 -0.7 -4 -2.5 -5 -3.9 -1.1 -1.4 -2.9 -2.6 -4 -2.8 -1.1 -0.3 -2 -1.4 -2.2 -2.8 -0.3 -2 0 -2.3 1.6 -1.9 1.5 0.4 1.9 0.2 1.5 -0.8 -0.3 -0.8 -1.1 -1.4 -1.9 -1.4 -0.8 0 -1.4 -0.9 -1.4 -2 0 -1.3 0.7 -2 2 -2 1.3 0 2 0.7 2 2 0 1.1 0.6 2 1.4 2 0.8 0 2 2 2.7 4.5 1.3 4.3 3 5.7 4.5 3.4 0.3 -0.6 2.1 -0.9 3.9 -0.7 3 0.3 3.4 0.1 3.7 -2.4 0.3 -1.9 0 -2.9 -1.1 -3.1 -1.3 -0.4 -1.3 -0.5 0.2 -0.6 0.9 0 1.7 -0.7 1.7 -1.5 0 -2.3 2.9 -2.7 5 -0.6 2.3 2.3 7.5 1.8 6.6 -0.6 -0.3 -0.8 -0.1 -1.4 0.4 -1.4 0.6 0 1 0.5 1 1 0 0.6 1.6 1 3.5 1 l3.5 0 0 5 c0 4.6 -0.2 5 -2.5 5 -1.8 0 -2.3 -0.4 -1.9 -1.5 0.5 -1.1 0.2 -1.3 -1 -0.9 -1.1 0.4 -1.6 0.1 -1.6 -1 0 -0.9 -0.7 -1.6 -1.5 -1.6 -1 0 -1.5 1 -1.5 2.9 0 6.1 -12 10.2 -19.6 6.7z m26 -11 c-0.3 -0.9 -1.2 -1.6 -2 -1.6 -1.1 0 -1 0.4 0.4 1.8 2 2.2 2.5 2.1 1.6 -0.2z"/>
  <path d="M83.7 57.3 c-1 -0.9 -0.9 -4.3 0.1 -4.3 0.4 0 1.3 0.5 2 1.2 0.9 0.9 1.2 0.9 1.2 -0.3 0 -0.9 -1.1 -2.1 -2.5 -2.7 -3.6 -1.6 -3.1 -3.2 1 -3.2 l3.5 0 0 5 c0 4.6 -0.2 5 -2.3 5 -1.3 0 -2.7 -0.3 -3 -0.7z"/>
  <path d="M43 53 c1.1 -0.7 1.1 -1 0.2 -1 -2.4 0 -0.2 -1.8 2.8 -2.2 1.9 -0.3 3 0 3 0.7 0 0.7 1 1.7 2.3 2.3 1.8 0.9 1.3 1.1 -3.8 1.1 -4.2 0.1 -5.6 -0.2 -4.5 -0.9z"/>
  <path d="M42 47 c0 -1.6 0.7 -2 3.5 -2 4 0 4.9 2.4 1.3 3.4 -3.8 1 -4.8 0.7 -4.8 -1.4z"/>
  <path d="M60 46.3 c0 -2.3 0.5 -3.3 1.5 -3.3 1.9 0 1.9 2.1 0 4.6 -1.4 1.8 -1.4 1.7 -1.5 -1.3z"/>
  <path d="M63 47.1 c0.5 -1.1 1 -2.9 1 -4 0 -1.4 0.6 -2.1 2 -2.1 1.1 0 2 0.6 2 1.3 0 0.8 0.9 2.2 2 3.2 2.6 2.3 1.1 3.5 -4.3 3.5 -3.4 0 -3.7 -0.2 -2.7 -1.9z"/>
  <path d="M24.7 43.3 c-1.6 -1.5 -0.5 -3.3 1.9 -3.3 2 0 2.5 0.4 2 1.6 -0.3 0.9 -0.6 1.8 -0.6 2 0 0.7 -2.6 0.5 -3.3 -0.3z"/>
  <path d="M69.5 42.6 c-0.5 -1.2 -0.4 -2.5 0.3 -3.5 2.9 -4.1 5 -8.8 4.3 -9.9 -0.5 -0.8 -1.2 0.2 -2 2.7 -1.3 4.5 -5.4 8.3 -7.9 7.4 -3.2 -1.2 -7.2 -4.4 -8.9 -7.3 -0.9 -1.7 -2.2 -3 -2.7 -3 -0.5 0 -0.2 0.8 0.7 1.8 2.4 2.6 2.1 3.5 -0.8 3 -2 -0.4 -2.3 -0.2 -1.4 0.8 0.6 0.7 1.7 1 2.4 0.8 1.5 -0.6 8.5 4.2 8.5 5.7 0 0.5 -0.7 0.9 -1.5 0.9 -0.8 0 -1.5 -0.4 -1.5 -1 0 -0.5 -0.7 -1 -1.5 -1 -0.8 0 -1.5 -0.7 -1.5 -1.5 0 -1 -1 -1.5 -3.4 -1.5 -5.1 0 -6.6 -0.9 -6.6 -3.9 0 -5.5 1 -7.1 4.4 -7.1 4.6 0 7.6 1.1 7.6 2.6 0 0.8 0.5 1.4 1 1.4 0.6 0 1 0.7 1 1.5 0 0.8 0.5 1.5 1 1.5 0.6 0 1 -1.3 1 -3 0 -2.8 0.2 -3 4 -3 3.3 0 4 -0.3 4 -2 0 -1.6 0.7 -2 3 -2 3.5 0 5.9 3.2 3.9 5.6 -0.6 0.8 -0.8 1.4 -0.4 1.4 0.4 0 1.4 -0.8 2.1 -1.7 1.2 -1.6 1.3 -1.4 1.4 2 0 3.2 -0.3 3.7 -2.4 3.7 -1.7 0 -2.6 0.7 -3 2.5 -0.4 1.4 -1.3 2.5 -2.1 2.5 -0.7 0 -1.5 1.2 -1.7 2.8 -0.4 2.4 -0.5 2.5 -1.3 0.8z m-1.5 -6.6 c0 -1.3 -1.1 -1.3 -3 0 -1.2 0.8 -1.1 1 0.8 1 1.2 0 2.2 -0.4 2.2 -1z"/>
  <path d="M16.5 40.9 c-0.9 -2.7 -0.1 -3.3 2.5 -1.9 1.7 0.9 1.9 1.4 0.9 2.6 -1.6 2 -2.7 1.8 -3.4 -0.7z"/>
  <path d="M13.3 40.5 c-0.7 -0.8 -1.3 -1.9 -1.3 -2.5 0 -0.5 -0.6 -1 -1.4 -1 -2 0 -2.6 -2.3 -2.6 -9.1 0 -3.7 -0.4 -5.9 -1.1 -5.9 -1.6 0 -0.5 -10 1.2 -11.1 0.8 -0.5 2.4 -0.9 3.7 -0.9 1.7 0 2.2 -0.6 2.2 -2.5 0 -2.2 0.4 -2.5 3.6 -2.5 l3.7 0 -0.6 4.9 c-0.5 4.2 -0.3 5 1.3 5.4 1.2 0.3 2 1.6 2.3 3.8 l0.4 3.4 0.1 -3.2 c0.2 -3.1 0.5 -3.3 3.7 -3.3 2.4 0 3.5 -0.5 3.5 -1.5 0 -1.1 1.1 -1.5 4 -1.5 2.2 0 4 0.4 4 0.9 0 0.5 0.9 1.3 2 1.6 1.7 0.6 2 1.5 2 7.5 0 5.1 -0.4 6.9 -1.5 7.4 -0.8 0.3 -1.5 1.7 -1.5 3.1 0 1.8 -0.5 2.5 -1.9 2.5 -1 0 -2.1 0.7 -2.5 1.5 -0.3 0.8 -1.6 1.5 -3 1.5 -2.4 0 -2.3 -0.1 1 -3.4 1.9 -1.9 3.4 -4.4 3.4 -5.8 0 -1.3 0.9 -2.9 2 -3.6 1.3 -0.8 2 -2.3 2 -4.1 0 -3.5 -1.5 -4.8 -3.5 -3.1 -1.1 0.9 -1.5 0.9 -1.5 0.1 0 -0.6 -0.4 -1.1 -0.8 -1.1 -0.4 0 -0.6 3 -0.4 6.8 0.4 6 0.1 7 -2.1 9.4 -1.3 1.4 -4.3 3.2 -6.4 3.8 -3.4 1 -4.6 1 -7.6 -0.5 -4.5 -2.1 -8 -8.5 -6.6 -12.1 0.7 -1.9 0.4 -2.9 -1.1 -4.4 -1.5 -1.5 -2 -1.6 -2 -0.6 0 0.8 0.4 1.7 0.9 2 0.5 0.3 0.7 2.3 0.4 4.4 -0.4 2.9 0.1 4.5 2.1 7.4 1.5 2.2 2.1 4 1.5 4.4 -0.6 0.4 -0.6 1.1 0.2 2 1.5 1.8 -0.2 1.8 -1.8 -0.1z m13.1 -10.1 c0.9 -0.3 1.6 -1.6 1.6 -2.7 0 -2 -0.1 -2 -1.4 -0.2 -0.8 1.2 -2 1.6 -3.5 1.2 -2 -0.5 -2.8 0.3 -1.4 1.6 0.8 0.9 2.7 0.9 4.7 0.1z m-8.4 -3.9 c0 -1.4 -0.4 -2.5 -1 -2.5 -0.5 0 -1 1.1 -1 2.5 0 1.4 0.5 2.5 1 2.5 0.6 0 1 -1.1 1 -2.5z m3.3 -8.2 c-0.4 -1.1 -0.3 -1.4 0.5 -0.9 0.7 0.4 1.2 0.2 1.2 -0.3 0 -0.6 -0.4 -1.1 -0.9 -1.1 -1.4 0 -2.3 1.8 -1.6 3 1 1.6 1.5 1.2 0.8 -0.7z m10.7 0 c0 -1.4 -0.2 -1.5 -0.9 -0.4 -0.5 0.8 -1.4 1 -2.1 0.6 -0.9 -0.5 -1.1 -0.4 -0.6 0.3 1.1 1.8 3.6 1.4 3.6 -0.5z m-15.6 -0.9 c0.3 -0.8 0.2 -1.2 -0.4 -0.9 -0.6 0.3 -1.3 -0.1 -1.6 -0.9 -0.7 -1.8 -3 -2.1 -3.9 -0.6 -0.3 0.5 0 0.7 0.9 0.4 0.9 -0.3 2 0.3 2.8 1.5 1.5 2.5 1.4 2.5 2.2 0.5z"/>
  <path d="M37 23.8 c0 -2.4 1.6 -4.8 3.3 -4.8 0.4 0 0.7 1.5 0.5 3.2 -0.4 4 -3.8 5.4 -3.8 1.6z"/>
  <path d="M25 9.5 c0 -3.3 0.2 -3.5 3.5 -3.5 3.3 0 3.5 0.2 3.5 3.5 0 3.3 -0.2 3.5 -3.5 3.5 -3.3 0 -3.5 -0.2 -3.5 -3.5z"/>
 </g>
 <g fill="#e17346">
  <path d="M13 76 c0 -1.1 -0.4 -2 -1 -2 -0.5 0 -1 -1.6 -1 -3.5 0 -4.8 2.4 -4.5 3.9 0.5 1.2 4.2 2 4.7 3.9 2.8 0.9 -0.9 1.2 -0.6 1.2 1.5 0 2.4 -0.4 2.7 -3.5 2.7 -2.8 0 -3.5 -0.4 -3.5 -2z"/>
  <path d="M25.4 74.2 c-2 -2 -3 -4 -3.2 -6.7 -0.2 -3.7 -0.2 -3.8 1.7 -2.1 1 0.9 2.3 1.6 2.8 1.4 0.5 -0.2 2.2 1.1 3.6 2.8 l2.6 3.1 -2.3 2.2 -2.3 2.2 -2.9 -2.9z"/>
  <path d="M32 76.6 c0 -0.2 0.7 -0.9 1.5 -1.6 1.2 -1 1.5 -1 1.5 0.4 0 0.9 -0.7 1.6 -1.5 1.6 -0.8 0 -1.5 -0.2 -1.5 -0.4z"/>
  <path d="M51.7 75.2 c-1.4 -1.6 -1.3 -1.9 2.3 -5 4.1 -3.4 5.4 -4 4.7 -1.9 -0.2 0.6 0.2 1.9 1 2.8 1.2 1.5 1.1 1.9 -1.3 3.8 -3.3 2.6 -4.6 2.6 -6.7 0.3z"/>
  <path d="M31.5 68.5 c-1.4 -1.3 -2.5 -3.1 -2.5 -4 0 -0.9 -0.9 -1.5 -2.5 -1.5 -1.6 0 -2.5 -0.6 -2.5 -1.6 0 -1.1 0.6 -1.5 1.9 -1.1 1.5 0.3 1.8 0.1 1.4 -1.1 -0.5 -1.3 0.1 -1.4 4.2 -0.9 2.6 0.4 5.8 0.7 7.1 0.7 1.9 0 2.4 0.5 2.4 2.6 0 2.4 -0.3 2.6 -2.9 2.1 -1.5 -0.3 -4.1 -0.3 -5.6 0.1 l-2.7 0.8 2.7 3.2 c3.2 3.8 2.5 4.3 -1 0.7z"/>
  <path d="M50.9 69.1 c2.6 -2 2.3 -5.5 -0.4 -4.5 -0.8 0.3 -1.5 0.1 -1.5 -0.6 0 -0.6 -0.5 -0.8 -1 -0.5 -0.6 0.4 -0.8 1.1 -0.5 1.6 0.4 0.5 -0.1 0.9 -0.9 0.9 -1.2 0 -1.6 -1 -1.6 -3.5 0 -2.4 0.5 -3.5 1.4 -3.5 0.8 0 1.6 -0.8 1.8 -1.7 0.3 -1.5 0.4 -1.5 2.1 0.1 2.1 2.1 7.2 1.4 6.4 -0.8 -0.3 -0.8 0.2 -2.1 1.2 -3 2 -1.8 5.1 -2.1 5.1 -0.6 0 0.6 -0.4 1 -0.8 1 -0.5 0 -0.7 1.3 -0.4 2.9 0.4 2.7 0.2 2.9 -1.9 2.4 -2.2 -0.5 -2.3 -0.4 -0.6 0.9 1.1 0.8 1.6 2 1.1 3.1 -0.8 2.2 -2.4 2.2 -2.4 0 -0.1 -1.2 -0.6 -0.8 -1.7 1.2 -1.6 3.2 -5.1 6.5 -6.8 6.5 -0.5 0 0.1 -0.9 1.4 -1.9z"/>
  <path d="M60 68.8 c0 -1.3 0.5 -3 1 -3.8 0.7 -1.1 1 -0.5 1 2.3 0 2 -0.4 3.7 -1 3.7 -0.5 0 -1 -1 -1 -2.2z"/>
  <path d="M82 60.8 l0.1 -3.3 1.4 2.5 c1.8 3.2 1.8 4 0 4 -1 0 -1.5 -1 -1.5 -3.2z"/>
  <path d="M85.8 61.5 c-2.4 -3.3 -2.2 -4.5 0.7 -4.5 2.2 0 2.5 0.4 2.5 3.5 0 4.1 -0.8 4.4 -3.2 1z"/>
  <path d="M11 59.5 c0 -1.9 0.5 -3.5 1 -3.5 0.6 0 1 -1.3 1 -3 0 -1.6 0.5 -3 1 -3 0.6 0 1 -0.8 1 -1.7 0.1 -1 0.9 -3.5 1.8 -5.5 1.3 -2.7 2.1 -3.5 3.1 -2.8 1.1 0.6 0.9 1.1 -0.8 2.1 -1.1 0.8 -2.1 1.7 -2.1 2.2 0 0.4 0.4 0.6 0.9 0.2 2.8 -1.6 4.1 7.6 1.6 10.9 -2 2.6 -2.8 1.5 -1.5 -1.9 0.6 -1.5 0.8 -3 0.6 -3.2 -0.6 -0.6 -3.2 5.4 -4.1 9.6 -0.9 4.4 -3.5 4.1 -3.5 -0.4z"/>
  <path d="M20 57.1 c0 -0.5 0.6 -1.3 1.3 -1.9 1.5 -1.3 6.9 -0.3 6.4 1.2 -0.4 1.3 -7.7 1.9 -7.7 0.7z"/>
  <path d="M30 56 c0 -0.5 1.1 -1 2.5 -1 1.4 0 2.5 0.5 2.5 1 0 0.6 -1.1 1 -2.5 1 -1.4 0 -2.5 -0.4 -2.5 -1z"/>
  <path d="M22 50.1 c0 -1.6 0.7 -3.4 1.5 -4.1 0.8 -0.6 1.3 -2.1 1.2 -3.3 -0.1 -1.3 0.5 -2.3 1.6 -2.5 1.4 -0.3 1.7 0.2 1.5 2.6 -0.1 1.9 -0.7 2.9 -1.8 2.8 -1 -0.1 -1.6 1 -1.8 3.7 -0.4 4.3 -2.2 5.1 -2.2 0.8z"/>
  <path d="M55.3 50.1 c-1 -1.6 -0.9 -2 0.3 -2.5 2.6 -1 6.2 -0.7 7 0.6 0.4 0.6 0.3 0.8 -0.3 0.5 -0.5 -0.3 -1.7 0.3 -2.6 1.4 -2.1 2.4 -2.9 2.4 -4.4 0z"/>
  <path d="M74 51 c0 -1.3 4 -1.3 6 0 1.1 0.7 0.5 1 -2.2 1 -2.1 0 -3.8 -0.4 -3.8 -1z"/>
  <path d="M75.8 47.9 c-2.9 -1.6 -2.1 -2.9 1.7 -2.9 2.8 0 3.5 0.4 3.5 2 0 2.2 -2.4 2.6 -5.2 0.9z"/>
  <path d="M69 40.2 c0 -0.5 0.6 -1.5 1.4 -2.1 0.8 -0.6 1.9 -2.5 2.6 -4.1 1.8 -4.4 5 -4.1 5 0.5 0 3.2 -0.2 3.5 -2.9 3.5 -1.6 0 -3.7 0.7 -4.5 1.6 -0.9 0.8 -1.6 1.1 -1.6 0.6z"/>
  <path d="M60.3 36.9 c-2.2 -1.4 -3.3 -2.9 -3.3 -4.4 0 -2.1 0.6 -2.3 6.6 -3 8.4 -0.9 9.7 0.1 6.9 5.3 -2.4 4.5 -5.6 5.1 -10.2 2.1z"/>
  <path d="M15.1 33.4 c-1.2 -1.5 -2.1 -4.1 -2.1 -6 l0 -3.4 5.5 0 c5.2 0 5.5 0.1 5.5 2.5 0 2.9 -1.6 3.4 -2.4 0.8 -0.2 -1 -0.2 0.5 0 3.2 0.5 4.8 0.4 4.9 -1.2 3 -1.6 -2 -1.6 -2 -1.1 0.3 0.7 3.1 -1.6 2.9 -4.2 -0.4z"/>
  <path d="M27.6 34.5 c0.4 -0.8 0.1 -1.5 -0.5 -1.5 -1.9 0 -1.2 -3.2 0.8 -3.7 1.1 -0.3 2.2 -1.1 2.5 -1.9 0.3 -0.8 1.7 -1.4 3.1 -1.4 2.1 0 2.5 0.5 2.5 2.8 0 1.7 -1 3.7 -2.3 5 -2.7 2.6 -7 3 -6.1 0.7z"/>
  <path d="M31.7 20.4 c0.7 -0.3 0.9 -1.2 0.6 -2 -0.3 -0.9 -1 -1.1 -1.7 -0.6 -1.8 1.4 -8.3 1.4 -9.2 0.1 -0.4 -0.8 -0.3 -1 0.4 -0.5 0.7 0.4 1.2 0.2 1.2 -0.3 0 -1.6 -1.6 -1.3 -3 0.4 -1.8 2.2 -3.9 1.9 -3.3 -0.5 0.4 -1.4 0.1 -2 -0.8 -1.8 -1.4 0.3 -2.6 -3.5 -2.8 -8.9 -0.1 -2.7 0.3 -3.3 1.9 -3.3 1.1 0 2 -0.7 2 -1.5 0 -1.3 2.3 -1.5 14.5 -1.5 l14.5 0 0 3 c0 2 -0.8 3.5 -2.5 4.6 -2 1.3 -2.5 2.4 -2.5 5.9 0 3.4 -0.4 4.4 -2 4.8 -1.3 0.3 -2 0 -2 -0.9 0 -0.8 -0.4 -1.4 -1 -1.4 -0.5 0 -0.9 0.3 -0.9 0.8 0.5 2.8 -0.3 4.2 -2.3 4.1 -1.3 0 -1.8 -0.3 -1.1 -0.5z"/>
 </g>
 <g fill="#eb9f19">
  <path d="M0 78.9 l0 -5.1 4.8 0.7 c7 1 9.2 1.6 9.2 2.7 0 0.8 -2.4 0.6 -10.4 -0.9 -1.9 -0.3 -2.6 -0.2 -2.2 0.6 0.4 0.6 1.7 1.1 2.9 1.1 3.3 0 6.7 1.1 6.7 2.1 0 0.5 -2.4 1 -5.2 1.1 -4.1 0.1 -4.5 0.2 -1.8 0.5 5.6 0.7 6.1 2.3 0.7 2.3 l-4.7 0 0 -5.1z"/>
  <path d="M51.7 75.2 c-1.6 -1.8 -1.4 -3.2 0.5 -3.2 0.5 0 0.6 0.5 0.2 1.1 -0.5 0.8 -0.1 0.8 1.4 0 1.2 -0.6 2.4 -1.6 2.7 -2.1 1.1 -1.7 2.5 -1.1 2.5 1.1 0 1.2 -0.8 2.3 -2 2.6 -1.1 0.3 -2 0.9 -2 1.4 0 1.5 -1.6 1 -3.3 -0.9z"/>
  <path d="M26.7 73.9 c-1 -1.1 -2 -3.4 -2.3 -5.2 -0.4 -2.9 -0.4 -3 0.8 -1.3 0.7 1.1 2.4 3 3.6 4.2 1.3 1.3 2.1 2.8 1.7 3.3 -0.9 1.6 -1.8 1.3 -3.8 -1z"/>
  <path d="M29.1 70.4 c-1.2 -1.5 -2.1 -3.1 -2.1 -3.7 0 -0.7 0.3 -0.7 0.8 -0.1 0.4 0.5 1.8 2.1 3.1 3.7 1.4 1.5 2 2.7 1.3 2.7 -0.6 0 -2 -1.2 -3.1 -2.6z"/>
  <path d="M47 71 c0 -0.5 0.9 -1 2 -1 1.1 0 2 -0.4 2 -1 0 -0.5 -1.1 -1 -2.5 -1 -1.8 0 -2.5 -0.5 -2.5 -2 0 -1.1 -0.4 -2 -1 -2 -0.5 0 -1 -0.9 -1 -1.9 0 -3.7 1.2 -5.1 4.1 -5.1 2.5 0 2.9 0.4 3 2.8 0.1 1.5 0.3 2 0.6 1.1 0.3 -1.4 5.2 -3.3 6.1 -2.4 0.4 0.4 -2.2 5.9 -3.2 6.6 -0.5 0.4 -0.6 1.1 -0.2 1.7 0.3 0.6 -0.9 2 -2.8 3.1 -3.7 2.4 -4.6 2.6 -4.6 1.1z m4.3 -5.4 c0.4 -1 0.1 -1.3 -0.9 -0.9 -0.9 0.3 -1.4 -0.1 -1.4 -1.3 0 -1.6 -0.2 -1.6 -1 -0.4 -0.5 0.9 -0.5 1.9 0.2 2.7 1.4 1.7 2.5 1.6 3.1 -0.1z"/>
  <path d="M54.5 70 c1 -1.1 2 -2 2.2 -2 0.2 0 -0.1 0.9 -0.7 2 -0.6 1.1 -1.6 2 -2.2 2 -0.6 0 -0.3 -0.9 0.7 -2z"/>
  <path d="M31.6 68.7 c-1.4 -1.5 -2.6 -3.1 -2.6 -3.6 0 -0.6 -0.7 -0.8 -1.5 -0.5 -2.1 0.9 -3.4 -0.3 -2.8 -2.7 0.3 -1.2 1.1 -1.8 1.9 -1.5 0.8 0.3 1.4 -0.1 1.4 -0.9 0 -1 0.9 -1.4 2.5 -1.3 2.2 0.2 2.4 0.6 2.1 4.7 -0.3 3.3 0.1 4.9 1.3 5.7 0.9 0.7 1.3 1.5 0.9 1.9 -0.4 0.4 -1.8 -0.4 -3.2 -1.8z"/>
  <path d="M58 62.5 c0 -1.4 0.5 -2.5 1 -2.5 0.6 0 1 1.1 1 2.5 0 1.4 -0.4 2.5 -1 2.5 -0.5 0 -1 -1.1 -1 -2.5z"/>
  <path d="M57 54.6 c0 -0.2 0.7 -0.9 1.5 -1.6 1.2 -1 1.5 -1 1.5 0.4 0 0.9 -0.7 1.6 -1.5 1.6 -0.8 0 -1.5 -0.2 -1.5 -0.4z"/>
  <path d="M55.2 49.9 c-1.1 -1.7 -0.9 -1.9 1.3 -1.9 2.1 0 2.5 -0.5 2.5 -3 0 -3.3 -0.6 -3.5 -6.1 -1.8 -2.7 0.8 -3.9 1.7 -3.9 3 0 1 -0.8 1.9 -1.7 1.9 -1 0.1 -3.3 0.3 -5.1 0.5 -4.2 0.3 -6.2 -2.5 -6.2 -9 l0 -4.9 5.9 0.7 c4.9 0.6 6.1 0.4 6.9 -0.9 0.7 -1.4 1 -1.5 2.1 -0.1 0.7 0.8 1.9 1.2 2.6 1 2 -0.8 8.2 4.2 8.9 7.3 0.8 2.8 -1.2 6.6 -4.2 8.2 -1.4 0.7 -2.1 0.5 -3 -1z"/>
  <path d="M43 50.6 c0 -0.2 1.4 -0.6 3 -0.8 1.7 -0.3 3 -0.1 3 0.4 0 0.4 -1.3 0.8 -3 0.8 -1.6 0 -3 -0.2 -3 -0.4z"/>
  <path d="M82.5 50 c-0.3 -0.5 -1.5 -1 -2.6 -1 -2.1 0 -2.7 -3.6 -0.6 -4.3 1.5 -0.5 -1 -5.7 -2.9 -5.7 -1.8 0 -2.5 2.7 -0.8 3.4 1.5 0.6 2 5.6 0.5 5.6 -0.5 0 -2.3 -1.2 -4 -2.6 -3.1 -2.6 -4 -5.7 -2.1 -6.9 1.8 -1.1 5 -8.3 4.4 -10 -0.6 -1.6 1.1 -4.5 2.7 -4.5 1.2 0 1.1 3.7 -0.1 4.5 -0.5 0.3 -1 1.2 -1 1.8 0.1 2.2 3 -2.7 3 -5 0 -2.9 -2.4 -3 -4.7 -0.3 -2.1 2.5 -4.1 2.5 -10.6 0.3 -4.1 -1.5 -5.1 -1.6 -5.5 -0.4 -0.4 1.1 -0.6 1.1 -1.3 0 -0.7 -1.1 -0.9 -1 -0.9 0.4 0 0.9 0.5 1.7 1 1.7 1.3 0 1.3 3.7 -0.1 4.5 -0.6 0.4 -1.6 0 -2.2 -0.8 -2.1 -2.5 -4.8 -2.9 -5.4 -0.8 -0.8 3 -2.9 1.4 -4.8 -3.5 -1.3 -3.5 -1.5 -6 -1 -11.5 l0.7 -7 6.2 -3.1 c5.2 -2.7 7.2 -3.2 14 -3.2 l7.8 -0.1 4.3 4.7 c2.3 2.6 5 6.2 5.9 8.1 2 4.3 2.1 10.1 0.2 12 -1.2 1.1 -0.9 2.1 2 6.7 3.4 5.4 4.5 12 2.8 16.4 -0.7 1.8 -3.9 2.2 -4.9 0.6z m-10.5 -34.5 c-4.1 -6 -6.2 -7 -11.1 -5.6 -3.9 1.2 -5.3 3.1 -2.3 3.1 0.9 0 4.8 1.6 8.7 3.5 3.9 1.9 7.2 3.5 7.4 3.5 0.2 0 -1 -2 -2.7 -4.5z"/>
  <path d="M62.8 47.8 c0.7 -0.7 1.2 -2.5 1.2 -4 0 -3.8 1.9 -3.5 5.3 0.7 2.1 2.6 2.4 3.5 1.2 3.5 -0.8 0 -1.5 -0.4 -1.5 -1 0 -0.5 -0.7 -1 -1.5 -1 -0.8 0 -1.5 0.7 -1.5 1.5 0 0.9 -0.9 1.5 -2.2 1.5 -1.7 0 -1.9 -0.3 -1 -1.2z"/>
  <path d="M67.1 37.4 c0.9 -1 1.9 -3.1 2.3 -4.6 0.4 -1.6 1.3 -2.8 2.2 -2.8 1.3 0 1.1 0.7 -0.8 4.2 -1.3 2.3 -3 4.4 -3.8 4.6 -1.3 0.4 -1.2 0.2 0.1 -1.4z"/>
  <path d="M59.5 36.4 c-2 -1.5 -2 -1.6 0.4 -1.2 1.4 0.2 2.6 0.9 2.9 1.6 0.5 1.6 -0.9 1.5 -3.3 -0.4z"/>
  <path d="M26.5 35.7 c1.1 -0.8 1.7 -1.9 1.3 -2.2 -0.4 -0.4 -1.4 0 -2.3 0.9 -1.2 1.2 -2.1 1.3 -3.6 0.6 -1 -0.6 -1.9 -1.5 -1.9 -1.9 0 -0.5 -0.7 -1.1 -1.5 -1.5 -1.3 -0.5 -1.3 -0.2 0.1 1.9 2.2 3.3 0.1 3.3 -3.1 0 -1.4 -1.3 -2.5 -3.6 -2.5 -5 0 -2.3 0.4 -2.5 3.8 -2.4 3 0.2 3.2 0.3 1 0.6 -1.6 0.2 -2.8 0.8 -2.8 1.2 0 0.5 1.1 0.6 2.5 0.3 2.7 -0.5 5.9 2.4 4.7 4.2 -0.3 0.6 0.9 0 2.6 -1.3 1.8 -1.2 3.2 -2.9 3.2 -3.6 0 -2.1 1.7 -2.7 5 -2 6.2 1.4 2.4 9.7 -5 11.1 -3.3 0.6 -3.4 0.6 -1.5 -0.9z"/>
  <path d="M50 31 c0 -0.5 0.6 -1 1.4 -1 0.8 0 1.8 0.5 2.1 1 0.3 0.6 -0.3 1 -1.4 1 -1.2 0 -2.1 -0.4 -2.1 -1z"/>
  <path d="M22 28.2 c0 -1 4.1 -3.5 4.7 -2.8 1.1 1.1 -0.7 3.6 -2.7 3.6 -1.1 0 -2 -0.3 -2 -0.8z"/>
  <path d="M31.2 17 c-0.9 -1.5 -0.9 -2 0 -2 0.6 0 0.8 -0.3 0.5 -0.7 -0.4 -0.3 -2.8 -0.7 -5.3 -0.8 -3.3 -0.2 -4.4 0.1 -4 1.1 0.5 1.3 -1.4 2.4 -4.1 2.4 -1.1 0 -1.3 -0.4 -0.6 -1.2 0.5 -0.7 0.6 -2.9 0.2 -4.8 l-0.6 -3.5 -0.2 3.7 c-0.3 8 -3.1 3.1 -3.1 -5.4 0 -2.4 0.4 -2.8 3 -2.8 2 0 3 0.5 3 1.5 0 1.1 1.1 1.5 4 1.5 2.2 0 4 -0.4 4 -1 0 -0.5 1.2 -1 2.8 -1.1 2.7 -0.1 2.7 -0.1 0.3 -0.8 -2.3 -0.6 -2.2 -0.8 1.6 -1.9 4.9 -1.5 10.3 -1.6 10.3 -0.2 0 0.6 -0.9 1 -2 1 -1.1 0 -1.9 0.4 -1.8 0.8 0.2 0.5 -1.2 2.1 -3 3.7 l-3.3 2.8 2.2 2.3 c1.2 1.3 1.8 2.8 1.4 3.5 -0.6 0.9 -1.2 0.7 -2.2 -0.6 -1.5 -2.2 -1.7 -1.6 -0.3 1.9 1.2 3.2 -0.9 3.6 -2.8 0.6z"/>
  <path d="M37.3 16.1 c0.4 -1.9 0.1 -3.3 -0.8 -4.1 -2.3 -1.9 -1.8 -3.3 2.5 -6.3 3.7 -2.6 4 -2.7 4 -0.8 0 1.1 -0.8 2.4 -1.7 3 -1.3 0.7 -1.6 2 -1.4 5.4 0.2 3.4 -0.2 4.6 -1.5 5.1 -1.4 0.5 -1.6 0.2 -1.1 -2.3z"/>
 </g>
 <g fill="#6cdb78">
  <path d="M31.7 68.4 c-0.4 -0.4 -0.7 -2.3 -0.7 -4.1 0 -3.3 0.1 -3.4 3.8 -3.1 3.5 0.3 3.7 0.5 3.7 3.8 0 3.2 -0.3 3.5 -3 3.8 -1.7 0.2 -3.4 0 -3.8 -0.4z m5.1 -3.7 c0.2 -1.1 -0.3 -1.7 -1.5 -1.6 -1 0 -1.3 0.3 -0.5 0.6 0.6 0.2 1.2 0.9 1.2 1.4 0 0.6 -0.4 0.7 -1 0.4 -0.5 -0.3 -1 -0.1 -1 0.5 0 1.8 2.5 0.6 2.8 -1.3z"/>
  <path d="M28.4 60.1 c-1.5 -1.5 0.4 -2 5.4 -1.5 3.1 0.4 5.8 0.8 6 0.9 0.2 0.2 -2.2 0.5 -5.3 0.7 -3.1 0.1 -5.9 0.1 -6.1 -0.1z"/>
  <path d="M20 57.3 c0 -1.8 2.5 -3.3 5.3 -3.3 2.2 0 2.8 0.4 2.5 1.8 -0.2 1.2 -1.4 1.8 -4.1 2 -2 0.2 -3.7 -0.1 -3.7 -0.5z"/>
  <path d="M30 54.1 c0 -4.2 1.9 -5.4 7.1 -4.2 2.9 0.7 5.9 0.7 8.8 0 5.3 -1.2 8.1 -0.4 8.1 2.2 0 1.7 -0.8 1.9 -8.5 1.9 -6.9 0 -8.5 0.3 -8.5 1.5 0 1 -1.1 1.5 -3.5 1.5 -3.2 0 -3.5 -0.3 -3.5 -2.9z"/>
  <path d="M22 52 c0 -0.5 0.9 -1 2 -1 1.1 0 2 0.5 2 1 0 0.6 -0.9 1 -2 1 -1.1 0 -2 -0.4 -2 -1z"/>
  <path d="M27 50.5 c0 -1.8 0.5 -2.5 1.9 -2.5 1.7 0 1.8 0.3 0.8 2.5 -1.5 3.2 -2.7 3.2 -2.7 0z"/>
  <path d="M55.1 49.7 c-0.8 -1 -2.8 -1.7 -5.1 -1.7 -4.4 0 -5.4 -0.7 -3.5 -2.6 1.8 -1.9 8.5 -1.9 8.5 0 0 0.8 0.5 1.6 1.1 1.8 0.6 0.2 1 1.2 0.8 2.2 -0.4 1.8 -0.5 1.8 -1.8 0.3z"/>
  <path d="M39.8 47.7 c2.3 -0.7 3.6 -0.7 4.3 0 0.7 0.7 -0.3 1.1 -3.3 1 l-4.3 0 3.3 -1z"/>
  <path d="M54.8 25.3 c0.5 -4 1.6 -5.3 4.5 -5.3 1.4 0 1.7 0.9 1.7 4.5 0 4.4 -0.1 4.5 -3.3 4.5 -3.2 0 -3.3 -0.1 -2.9 -3.7z m4.2 0 c0 -1.4 -0.2 -1.5 -0.9 -0.4 -0.7 1.1 -0.9 1.1 -1.4 0 -0.4 -1 -0.6 -0.9 -0.6 0.4 -0.1 0.9 0.6 1.7 1.4 1.7 0.8 0 1.5 -0.8 1.5 -1.7z"/>
  <path d="M64 23.9 c0 -1.6 0.3 -2.8 0.8 -2.6 0.4 0.2 1.6 0.7 2.7 1.1 1.6 0.6 1.7 0.9 0.5 1.7 -1.1 0.8 -0.8 0.9 1.3 0.5 2 -0.5 2.7 -0.3 2.7 0.9 0 1.1 -1.1 1.5 -4 1.5 -3.8 0 -4 -0.2 -4 -3.1z"/>
  <path d="M68.5 21.5 l-3 -1.3 3.3 -0.1 c2.2 -0.1 3.2 0.4 3.2 1.4 0 0.8 -0.1 1.5 -0.2 1.5 -0.2 -0.1 -1.6 -0.7 -3.3 -1.5z"/>
 </g>
 <g fill="#f9cd04">
  <path d="M51.7 75.4 c-0.9 -0.9 6.3 -5.5 7.4 -4.8 1.4 0.8 -3 5.4 -5.1 5.4 -0.9 0 -1.9 -0.3 -2.3 -0.6z"/>
  <path d="M27.3 74.3 c-0.7 -0.2 -1.3 -1.1 -1.3 -1.9 0 -0.8 -0.4 -1.4 -1 -1.4 -0.5 0 -1 -1.2 -0.9 -2.7 0 -2.6 0.1 -2.7 1.2 -0.9 0.7 1.1 2.2 3 3.5 4.2 1.2 1.1 2.2 2.4 2.2 2.8 0 0.7 -1.9 0.7 -3.7 -0.1z"/>
  <path d="M31 71.7 c-0.8 -0.7 -2.2 -2.1 -3 -3.2 -0.8 -1.1 0 -0.7 1.8 0.9 2.9 2.7 3.7 3.7 3 3.6 -0.2 0 -1 -0.6 -1.8 -1.3z"/>
  <path d="M51.1 72.8 c0.2 -0.2 1.8 -1.4 3.4 -2.8 l3 -2.5 -2.4 2.8 c-1.4 1.5 -2.9 2.7 -3.4 2.7 -0.6 0 -0.8 -0.1 -0.6 -0.2z"/>
  <path d="M48 70.9 c0 -0.6 0.7 -1.7 1.5 -2.3 1.4 -1 1.9 -2.7 2.4 -8.3 0.2 -2.7 2.1 -1.1 2.1 1.7 0 1.7 0.5 3 1 3 1.9 0 -0.7 3.4 -3.9 5.3 -2.1 1.2 -3.1 1.4 -3.1 0.6z"/>
  <path d="M31.5 68.5 c-1.4 -1.3 -2.5 -2.8 -2.5 -3.4 0 -0.5 -0.8 -0.7 -1.9 -0.4 -1.5 0.4 -1.8 0 -1.4 -2.1 0.5 -2.2 0.8 -2.4 2.7 -1.5 1.7 1 1.9 0.9 0.9 -0.2 -1.9 -2 -1.6 -2.9 1.1 -2.7 1.8 0.2 2.3 0.8 2.4 3 0 1.5 -0.4 2.8 -0.9 2.8 -1.8 0 -0.9 2.9 1.1 3.5 1.1 0.3 2 1.3 2 2.1 0 2 -0.7 1.8 -3.5 -1.1z"/>
  <path d="M45.6 65.4 c-1.1 -3 -0.6 -7.2 1 -7.8 3 -1.1 4.4 -0.6 4.4 1.7 0 2.6 -1.9 6.2 -2 3.7 0 -1.3 -0.1 -1.3 -1 0 -0.5 0.9 -0.5 1.9 0.2 2.7 0.8 1 0.6 1.3 -0.5 1.3 -0.8 0 -1.8 -0.7 -2.1 -1.6z"/>
  <path d="M58.5 53 c0.3 -0.5 1.3 -1 2.1 -1 0.8 0 1.4 0.5 1.4 1 0 0.6 -0.9 1 -2.1 1 -1.1 0 -1.7 -0.4 -1.4 -1z"/>
  <path d="M74.5 51 c-0.8 -1.3 3.5 -1.3 5.5 0 1.1 0.7 0.7 1 -1.7 1 -1.7 0 -3.5 -0.4 -3.8 -1z"/>
  <path d="M54.1 48.9 c-1.4 -1.1 -3.1 -1.7 -4.2 -1.4 -3.1 1 -2.6 -5 0.6 -7.1 1.4 -0.9 2.5 -2.5 2.5 -3.5 0 -2.6 1.9 -2.3 5.8 1 3.9 3.3 4.6 7.9 1.7 11.1 -2.2 2.5 -3.4 2.5 -6.4 -0.1z"/>
  <path d="M82.7 50.4 c-0.3 -0.4 0 -1.6 0.8 -2.8 2.3 -3.1 1.8 -5.5 -2.1 -11.9 -2 -3.2 -3.4 -6.1 -3 -6.4 1.2 -1.2 3.5 0.7 4.1 3.6 0.4 1.7 1.2 3.1 2 3.1 2 0 3.4 9.6 1.9 13.4 -0.6 1.6 -2.5 2.1 -3.7 1z"/>
  <path d="M62.8 47.8 c0.7 -0.7 1.2 -2.5 1.2 -4 0 -3.8 1.9 -3.5 5.3 0.7 2.6 3.3 2.7 3.5 0.7 3.5 -1.1 0 -2.3 -0.7 -2.7 -1.7 -0.5 -1.4 -0.8 -1.3 -1.4 0.5 -0.5 1.2 -1.6 2.2 -2.6 2.2 -1.3 0 -1.4 -0.3 -0.5 -1.2z"/>
  <path d="M77 48.2 c-3 -1.4 -6.8 -4.4 -7.4 -5.8 -0.3 -0.8 0.5 -2.9 1.8 -4.8 1.9 -2.8 2.6 -3.2 3.7 -2.3 1.1 1 1.1 0.9 0 -0.5 -1.6 -2.2 -0.5 -6.4 1.2 -4.6 2.6 2.8 6.5 9.6 7.1 12.5 1 4.6 -2.2 7.4 -6.4 5.5z"/>
  <path d="M60.6 37.1 c-3.5 -2.3 -5.4 -5.1 -3.4 -5.1 1.3 0.1 7.8 5.5 7.8 6.5 0 1 -1.5 0.5 -4.4 -1.4z"/>
  <path d="M67.2 37.3 c0.9 -1 1.9 -2.8 2.2 -4 0.7 -2.1 2.6 -3.3 2.6 -1.5 0 1.5 -4 7.2 -5.1 7.2 -0.8 0 -0.7 -0.6 0.3 -1.7z"/>
  <path d="M16 34.6 c-2 -2.6 -0.8 -6.1 2.3 -6.4 2.6 -0.3 3.3 0.8 2.8 4.1 -0.2 1.1 0.3 0.9 4.9 -1.5 2.3 -1.2 3.7 -2.4 3.1 -2.6 -2.4 -0.8 -0.9 -2.3 2.1 -2 3.6 0.3 5.2 2.8 1.8 2.8 -1.2 0 -1.9 0.4 -1.6 0.9 0.6 0.9 -3.6 3.1 -6.2 3.1 -1.3 0 -1.4 0.2 -0.4 0.9 1.1 0.7 1 0.9 -0.3 1.5 -1.1 0.4 -2.8 -0.6 -5.2 -3.2 l-3.6 -3.7 2.3 3.8 c1.7 2.9 1.8 3.7 0.7 3.7 -0.8 0 -2 -0.7 -2.7 -1.4z"/>
  <path d="M27.6 34.8 c0.2 -0.7 2 -2.1 3.9 -3 2.9 -1.5 3.5 -1.5 3.5 -0.3 0 1.7 -3.8 4.5 -6.2 4.5 -1 0 -1.5 -0.5 -1.2 -1.2z"/>
  <path d="M52 33 c0 -0.5 0.7 -1 1.5 -1 0.8 0 1.5 0.5 1.5 1 0 0.6 -0.7 1 -1.5 1 -0.8 0 -1.5 -0.4 -1.5 -1z"/>
  <path d="M22 28.1 c0 -0.9 4.1 -2.3 4.8 -1.6 0.2 0.2 0.1 0.8 -0.3 1.4 -0.8 1.3 -4.5 1.5 -4.5 0.2z"/>
  <path d="M70 25.4 c0 -0.8 0.8 -1.4 1.8 -1.4 3 -0.1 -14.9 -8.2 -18.4 -8.3 -2.7 -0.2 -3.4 -0.6 -3.4 -2.3 0 -3.3 2 -4.4 8 -4.4 5.9 0 8 1.1 8 4.2 0 1.1 1.3 2.7 3 3.6 1.6 0.9 3 2 3 2.5 0 0.4 1.1 0.7 2.5 0.7 2.7 0 3.5 2.4 1 3.4 -0.8 0.3 -1.5 1.1 -1.5 1.7 0 0.8 0.4 0.8 1.5 -0.1 1.2 -1 1.5 -1 1.5 0.3 0 1.1 -1 1.5 -3.5 1.5 -2.3 0 -3.5 -0.5 -3.5 -1.4z"/>
  <path d="M60.5 22.3 c-2.7 -1.5 -5.2 -2.8 -5.4 -3 -0.1 -0.1 -0.1 -0.6 0 -1.2 0.2 -0.6 3 0.2 6.5 1.7 3.6 1.6 5.9 3.2 5.6 4 -0.5 1.6 -1 1.6 -6.7 -1.5z"/>
  <path d="M31.8 17.3 c0 -0.5 -0.1 -1.5 -0.2 -2.3 -0.1 -1.9 -6.8 -3.9 -7.4 -2.2 -0.2 0.7 -0.8 1 -1.3 0.6 -0.5 -0.3 -0.9 0.2 -0.9 1 0 0.9 -0.9 1.6 -2.1 1.6 -2.1 0 -1.9 -1 0.9 -4.2 1.8 -2.1 9.4 -2.5 11 -0.5 1.7 2 2.6 6.7 1.3 6.7 -0.6 0 -1.2 -0.3 -1.3 -0.7z"/>
  <path d="M37.4 15.6 c0.4 -1.5 0 -2.8 -0.9 -3.6 -0.8 -0.7 -1.5 -1.9 -1.5 -2.7 0 -1.1 0.4 -1.1 2 -0.3 1.5 0.8 2 2.1 2 5 0 2.3 -0.5 4 -1.1 4 -0.7 0 -0.9 -0.9 -0.5 -2.4z"/>
  <path d="M15 10.6 l0 -5.8 3 0.4 c1.7 0.3 3 0.1 3 -0.4 0 -0.4 2.8 -0.9 6.3 -0.9 4.9 -0.1 5.6 -0.3 3.2 -0.9 -3 -0.8 -3 -0.8 0.8 -0.9 4.2 -0.1 5.3 2.3 1.5 3.3 -1.8 0.4 -2 0.8 -1 1.8 2.1 2.1 1.3 2.5 -3.8 2 -4.3 -0.4 -5.5 -0.1 -7.5 1.8 l-2.5 2.3 0 -3.6 c0 -2 -0.3 -3.7 -0.8 -3.7 -0.4 0 -0.6 1.8 -0.4 4.1 0.3 2.2 -0.1 4.6 -0.7 5.2 -0.8 0.8 -1.1 -0.4 -1.1 -4.7z"/>
  <path d="M70 10.3 l0.1 -3.8 2.9 3.5 c1.7 1.9 3 3 3 2.5 0 -0.5 -1 -1.9 -2.2 -3.2 l-2.1 -2.3 2.7 0 c2.5 0 2.7 0.3 2.4 3.3 -0.3 2.8 -0.7 3.2 -3.5 3.5 -3.2 0.3 -3.3 0.2 -3.3 -3.5z"/>
 </g>
 <g fill="#c157e0">
  <path d="M59.2 85.6 c0.5 -4.1 2.5 -7.6 4.4 -7.6 0.4 0 0.4 2 0.1 4.5 -0.4 2.5 -0.5 4.5 -0.2 4.5 0.3 0 1 -2 1.6 -4.5 2.1 -8.4 5.1 -4.5 3.3 4.4 -0.6 2.9 -0.9 3.1 -5.2 3.1 l-4.5 0 0.5 -4.4z"/>
  <path d="M80.6 85.3 c-0.9 -2.6 -1.6 -5.9 -1.6 -7.4 0 -1.9 -0.6 -2.8 -2.2 -3.3 -4.2 -1.1 -7.8 -0.7 -7.8 0.9 0 0.8 -0.7 1.5 -1.5 1.5 -0.8 0 -1.5 -0.7 -1.5 -1.5 0 -0.8 -1.3 -2.1 -3 -3 -3.2 -1.6 -4 -5.1 -1.8 -7.3 1.8 -1.8 10.8 -1.6 10.8 0.3 0 1.1 0.8 1.3 3.3 0.9 5.7 -1 5.9 -1.2 4.6 -3.5 -0.6 -1.2 -0.9 -3.7 -0.7 -5.6 l0.4 -3.4 -6.3 0.7 c-5.3 0.5 -6.3 0.4 -6.3 -0.9 0 -1.1 1.7 -1.9 5.3 -2.8 6.5 -1.4 9.7 -0.2 9.7 3.6 0 1.3 0.8 4 1.7 6 1.3 2.6 1.4 4.2 0.7 6.3 -0.8 2.3 -1.6 2.8 -5.9 3.3 -5 0.6 -5 0.6 -0.9 0.7 4.1 0.2 4.1 0.2 4.7 4.7 0.7 4.9 3.4 12.1 4.3 11.3 0.3 -0.3 -0.4 -3.4 -1.5 -6.9 -2.6 -7.7 -2.6 -8.1 -0.1 -12.1 2.4 -4 2.5 -5.2 0.5 -7.2 -0.8 -0.8 -1.8 -2.9 -2.2 -4.7 l-0.6 -3.1 2.6 1.6 c2.2 1.5 2.7 2.8 3.3 8.2 0.3 3.7 0.2 7.5 -0.3 8.7 -0.5 1.2 -0.6 3.3 -0.2 4.7 0.4 1.4 0.7 5.1 0.8 8.3 l0.1 5.7 -3.4 0 c-3.2 0 -3.5 -0.3 -5 -4.7z"/>
  <path d="M56.9 75.1 c-2.2 -1.8 -2.3 -2.1 -0.8 -3.6 1.6 -1.6 1.9 -1.6 4.8 0.6 1.7 1.2 3.1 2.9 3.1 3.6 0 2 -4.5 1.6 -7.1 -0.6z"/>
  <path d="M57.5 54 c1 -1.1 2.6 -2 3.7 -2 1.1 0 1.8 0.7 1.8 2 0 1.6 -0.7 2 -3.7 2 -3.5 0 -3.6 0 -1.8 -2z"/>
  <path d="M84.1 50.9 c-1.9 -0.8 -2.1 -1.2 -1.1 -2.4 1.9 -2.3 4 -1.8 4 1 0 1.4 -0.1 2.5 -0.2 2.4 -0.2 0 -1.4 -0.5 -2.7 -1z"/>
  <path d="M77.5 47.9 c-1.6 -0.6 -1.4 -0.8 1.3 -0.8 3.3 -0.1 4.1 0.4 2 1.2 -0.7 0.2 -2.2 0.1 -3.3 -0.4z"/>
  <path d="M50 41.2 c0 -0.6 0.7 -1.2 1.5 -1.6 0.8 -0.3 1.5 -1.5 1.5 -2.6 0 -1.1 0.5 -2 1.1 -2 0.6 0 0.9 1.4 0.7 3.3 -0.2 2.4 -0.8 3.3 -2.5 3.5 -1.3 0.2 -2.3 -0.1 -2.3 -0.6z"/>
  <path d="M50 36.5 c0 -1.5 0.4 -2.4 1 -2 0.6 0.3 1 1.2 1 2 0 0.8 -0.4 1.7 -1 2 -0.6 0.4 -1 -0.5 -1 -2z"/>
  <path d="M74.9 35 c-0.1 -0.3 -0.3 -2.2 -0.4 -4.2 -0.2 -3.1 0.1 -3.8 1.7 -3.8 2.4 0 3.6 3 1.6 4.4 -0.8 0.6 -1.7 1.8 -2.1 2.6 -0.3 0.8 -0.6 1.3 -0.8 1z"/>
  <path d="M51.5 33 c-0.3 -0.5 0.3 -1 1.4 -1 1.2 0 2.1 0.5 2.1 1 0 0.6 -0.6 1 -1.4 1 -0.8 0 -1.8 -0.4 -2.1 -1z"/>
  <path d="M71 30.8 c0 -1.5 0.5 -3 1 -3.3 1.3 -0.8 1.3 2.5 0 4.5 -0.8 1.2 -1 0.9 -1 -1.2z"/>
 </g>
 <g fill="#dda47a">
  <path d="M48 79.6 c0 -0.2 0.7 -0.9 1.5 -1.6 1.2 -1 1.5 -1 1.5 0.4 0 0.9 -0.7 1.6 -1.5 1.6 -0.8 0 -1.5 -0.2 -1.5 -0.4z"/>
  <path d="M36 76 c0 -1.1 0.2 -2 0.5 -2 0.2 0 0.9 0.9 1.5 2 0.9 1.6 0.8 2 -0.5 2 -0.8 0 -1.5 -0.9 -1.5 -2z"/>
  <path d="M40.8 76.9 c-2.9 -1.6 -2.1 -2.4 2.7 -2.4 3.1 0 4.5 0.4 4.5 1.3 0 1.8 -3 2.8 -4 1.2 -0.5 -0.8 -0.9 -0.8 -1.1 -0.2 -0.3 0.7 -1 0.8 -2.1 0.1z"/>
  <path d="M12 73.5 c0 -4.3 1.7 -4.5 3.4 -0.5 0.9 2.3 1.5 2.7 2.4 1.8 0.9 -0.9 1.2 -0.8 1.2 0.5 0 1.3 -0.9 1.7 -3.5 1.7 -3.3 0 -3.5 -0.2 -3.5 -3.5z"/>
  <path d="M52.2 75.8 c-0.7 -1 -0.1 -1.9 2.2 -3.4 l3.2 -2 -0.4 3.3 c-0.4 3.5 -3 4.5 -5 2.1z"/>
  <path d="M26 74.5 c0 -0.8 -0.7 -1.5 -1.5 -1.5 -1 0 -1.5 -1.1 -1.5 -3.5 0 -4 1.4 -4.6 3.1 -1.2 0.6 1.2 2 2.9 3.2 3.8 1.1 0.9 1.7 2.1 1.3 2.8 -1 1.6 -4.6 1.4 -4.6 -0.4z"/>
  <path d="M35.3 71.1 c-2.3 -1.1 -4.7 -3 -5.5 -4.3 -0.7 -1.3 -2.2 -2.3 -3.3 -2.3 -1.3 0 -2.1 -0.8 -2.3 -2.2 -0.4 -2.5 0.9 -2.9 3.9 -1.3 1.3 0.7 1.9 0.7 1.9 0 0 -0.5 -0.4 -1 -1 -1 -0.5 0 -1 -0.5 -1 -1 0 -0.6 1.2 -0.9 2.8 -0.6 1.5 0.2 4.4 0.5 6.5 0.5 3.4 0.1 3.7 0.3 3.7 3.1 0 2.3 -0.4 3 -2 3 -1.1 0 -2 -0.4 -2 -1 0 -0.5 -0.7 -1 -1.5 -1 -1.9 0 -1.9 2.7 -0.1 4.5 1.2 1.2 1.5 1.2 2 0 0.3 -0.8 1.3 -1.5 2.1 -1.5 0.9 0 2.3 -0.7 3.1 -1.5 0.9 -0.8 1.1 -1.5 0.5 -1.5 -0.6 0 -1.1 -0.9 -1.1 -2 0 -1.1 0.6 -2 1.4 -2 0.8 0 1.6 -0.7 2 -1.5 1.3 -3.6 6 -0.9 5 2.9 -0.5 2.3 -0.8 2.5 -1.8 1.1 -1 -1.4 -1.2 -1.3 -1.1 0.7 0.2 3.4 2 6.4 3 4.8 0.4 -0.7 0.9 -2.2 1 -3.4 0.1 -1.1 0.3 -2.6 0.4 -3.3 0 -0.6 1.1 -1.3 2.4 -1.5 1.4 -0.2 2.1 -0.9 2.1 -2.1 -0.1 -1.2 0.5 -1.7 2.2 -1.7 1.8 0 2.4 0.6 2.4 2.1 0 1.4 -0.5 1.9 -1.4 1.6 -1.4 -0.6 -2.6 1.4 -4.2 6.7 -0.6 2 -2.3 3.7 -5.3 5.3 -5.3 2.8 -9.2 2.9 -14.8 0.4z m9.1 -0.7 c0.9 -0.3 1.6 -1 1.6 -1.5 0 -0.6 -0.9 -0.5 -2.1 0.2 -1.5 0.8 -2.4 0.8 -3.2 0 -0.6 -0.6 -1.6 -1.1 -2.1 -1.1 -1.2 0.1 2.3 3 3.5 3 0.4 0 1.4 -0.3 2.3 -0.6z m-7.6 -10.1 c-1 -0.2 -2.6 -0.2 -3.5 0 -1 0.3 -0.2 0.5 1.7 0.5 1.9 0 2.7 -0.2 1.8 -0.5z"/>
  <path d="M60 67.6 c0 -0.2 0.7 -1.9 1.5 -3.7 l1.4 -3.4 0.1 3.8 c0 2.6 -0.4 3.7 -1.5 3.7 -0.8 0 -1.5 -0.2 -1.5 -0.4z"/>
  <path d="M86.7 65 c0.3 -1.1 -0.2 -3.1 -1.1 -4.5 -2.1 -3.2 -2.1 -6.6 -0.1 -5.9 0.9 0.4 1.5 0 1.5 -1 0 -0.9 0.5 -1.6 1 -1.6 0.6 0 1 3.2 1 7.5 0 5.8 -0.3 7.5 -1.4 7.5 -0.9 0 -1.2 -0.7 -0.9 -2z"/>
  <path d="M83.7 65.4 c-0.4 -0.4 -0.7 -1.7 -0.7 -2.8 0.1 -1.9 0.1 -2 1.1 -0.3 1.1 1.9 0.8 4.3 -0.4 3.1z"/>
  <path d="M58 62.5 c0 -2.5 1.4 -3.4 2.4 -1.6 0.8 1.2 -0.3 4.1 -1.5 4.1 -0.5 0 -0.9 -1.1 -0.9 -2.5z"/>
  <path d="M59 47.8 c0 -1.8 0.5 -2.8 1.5 -2.8 1.9 0 1.9 1.1 0 3.6 -1.4 1.8 -1.4 1.8 -1.5 -0.8z"/>
  <path d="M62.8 47.8 c0.7 -0.7 1.2 -2.5 1.2 -4 0 -3.8 1.9 -3.5 5.2 0.6 l2.7 3.4 -2.2 0.6 c-1.2 0.3 -3.5 0.6 -5.1 0.6 -2.3 0 -2.7 -0.3 -1.8 -1.2z"/>
  <path d="M72.1 44.6 c-1.9 -2 -2.1 -2.6 -0.9 -2.6 1.9 0 4.1 2.5 3.6 4 -0.2 0.6 -1.4 0 -2.7 -1.4z"/>
  <path d="M24.7 42.6 c-0.7 -1.8 0.1 -2.6 2.5 -2.6 1.3 0 1.8 0.6 1.6 1.7 -0.4 2.2 -3.4 2.9 -4.1 0.9z"/>
  <path d="M30 40.8 c0 -0.6 1.8 -2.6 4 -4.5 2.4 -2.1 4 -4.3 4 -5.7 0 -1.2 0.9 -3 2.1 -4 1.6 -1.3 2 -2.6 1.7 -5.2 -0.4 -3 -0.1 -3.4 1.9 -3.4 1.9 0 2.3 0.5 2.3 3 0 1.6 0.9 3.9 1.9 4.9 2.1 2.1 1.8 6.1 -0.5 6.1 -0.9 0 -1.4 -1.1 -1.4 -3 0 -3.1 -1.6 -4.1 -2.6 -1.5 -0.4 0.8 -1.5 1.5 -2.5 1.5 -1.6 0 -1.9 0.8 -1.9 5 0 4.3 -0.3 5 -2 5 -1.1 0 -2 0.7 -2 1.5 0 0.9 -0.9 1.5 -2.5 1.5 -1.4 0 -2.5 -0.5 -2.5 -1.2z"/>
  <path d="M60.6 37.1 c-1.6 -1.1 -3.8 -3.3 -4.8 -5 -2 -3.1 -2 -3.1 0 -3.1 1.1 0 2.3 0.6 2.5 1.3 0.3 0.7 0.6 0.5 0.6 -0.5 0.1 -1.5 1 -1.8 5.2 -1.8 4.2 0 5.2 -0.3 5.6 -2 0.3 -1.1 1.4 -2 2.4 -2 1.5 0 1.8 0.5 1.2 3.3 -0.3 1.7 -1.5 5 -2.7 7.2 -2.5 4.7 -5.6 5.5 -10 2.6z m7.2 -0.3 c1.8 -1.8 1.5 -5.1 -0.4 -4.4 -0.9 0.3 -3 0.6 -4.7 0.6 l-3.2 0.1 2.8 2.4 c3.2 2.8 3.8 3 5.5 1.3z"/>
  <path d="M16.3 34.5 c-3.2 -3.2 -3.5 -3.9 -3.1 -8 0.4 -3.1 0.2 -4.5 -0.8 -4.9 -1.5 -0.6 -2 -6.6 -0.5 -6.6 0.4 0 1.2 1.4 1.7 3.1 l0.9 3.1 3.5 -5.4 c3.3 -5 3.8 -5.3 8.1 -5.6 2.9 -0.2 5 0.2 5.6 1 1.9 2.5 4.3 11.2 4.3 15.9 0 4.1 -0.4 5.1 -3.5 7.8 -2.9 2.5 -4.5 3.1 -8.1 3.1 -3.9 0 -5.1 -0.5 -8.1 -3.5z m10.7 0.5 c1.1 -1.1 2.3 -2 2.8 -2 0.4 0 1.8 -0.9 3.2 -2 l2.5 -2 -2.5 0 c-4 -0.1 -4.8 -1.1 -4.1 -5.4 0.3 -2.1 0.9 -3.8 1.4 -3.7 2 0.4 2.6 0 2 -1.5 -0.4 -1.1 -0.8 -1.2 -1.3 -0.4 -0.4 0.7 -1.3 0.9 -1.9 0.6 -0.7 -0.5 -1.1 0.3 -1.1 2.3 0 4.7 -1.7 8.1 -4 8.1 -1.1 0 -2 -0.6 -2 -1.3 0 -0.9 -1.1 -1.2 -3.5 -0.9 -1.9 0.2 -3.5 0.6 -3.5 0.9 0 0.9 4.3 6.8 5.8 8.1 2.2 1.7 3.9 1.5 6.2 -0.8z m-2 -14.7 c0 -0.5 -0.7 -1.7 -1.5 -2.7 -1.2 -1.6 -1.7 -1.7 -3.1 -0.6 -1.4 1.3 -1.4 1.5 0.2 2.7 2 1.4 4.4 1.7 4.4 0.6z m1.9 -4.7 c-1.5 -1.3 -4.9 -2.5 -4.9 -1.7 0 0.5 0.8 1.2 1.8 1.4 2.4 0.6 3.6 0.8 3.1 0.3z"/>
  <path d="M21.6 34.7 c-1.4 -1.1 -1.3 -1.3 1 -2.4 2.1 -1 2.5 -1 2 0.2 -0.2 0.7 0 1.5 0.7 1.8 0.6 0.2 0.4 0.6 -0.5 0.9 -0.9 0.4 -2.3 0.1 -3.2 -0.5z"/>
  <path d="M11 33.8 c0 -1.2 0.1 -1.9 0.3 -1.7 0.1 0.2 0.9 1.2 1.6 2.2 1.2 1.4 1.1 1.7 -0.3 1.7 -1 0 -1.6 -0.8 -1.6 -2.2z"/>
  <path d="M51 32.5 c-0.7 -0.9 -1 -1.9 -0.6 -2.2 0.8 -0.9 3.8 0.9 4.4 2.5 0.5 1.7 -2.3 1.5 -3.8 -0.3z"/>
  <path d="M76.9 31.1 c0.5 -0.3 1.3 -1.9 1.6 -3.4 1 -4 3.5 -3.5 3.5 0.7 0 3.2 -0.2 3.5 -3.1 3.4 -1.6 -0.1 -2.6 -0.4 -2 -0.7z"/>
  <path d="M74.4 28.6 c-0.6 -1.6 1.1 -4.6 2.7 -4.6 1.5 0 1 3.7 -0.6 5 -1.2 1 -1.6 0.9 -2.1 -0.4z"/>
  <path d="M49.6 26.5 c-0.4 -1 0.1 -1.5 1.4 -1.5 1.1 0 2 0.7 2 1.5 0 0.8 -0.6 1.5 -1.4 1.5 -0.8 0 -1.6 -0.7 -2 -1.5z"/>
  <path d="M37 24.2 c0 -1 0.6 -2.6 1.3 -3.7 1.8 -2.3 3.2 -0.4 2.3 3.1 -0.7 2.8 -3.6 3.3 -3.6 0.6z"/>
  <path d="M9 24 c0 -0.5 -0.7 -1 -1.5 -1 -1.1 0 -1.5 -1.2 -1.5 -5 0 -5 0 -5 3.3 -5 1.7 0 2.7 0.4 2.1 0.8 -2 1.3 -2.4 4.6 -1 7.4 1.4 2.6 1.2 3.8 -0.6 3.8 -0.4 0 -0.8 -0.4 -0.8 -1z"/>
  <path d="M72.3 22.9 c-3.3 -1.2 -2.8 -1.9 1.2 -1.9 1.9 0 3.5 0.4 3.5 0.9 0 1.4 -2.3 1.9 -4.7 1z"/>
  <path d="M37.4 16.3 c0.3 -2 0 -3.6 -0.9 -4.3 -2.3 -1.9 -1.8 -3.3 2.8 -6.5 3.2 -2.3 3.8 -3.1 2.4 -3.3 -1 -0.2 -2.3 0.1 -3 0.6 -1.8 1.4 -8.7 3.2 -8.7 2.2 0 -0.5 0.8 -1.1 1.8 -1.3 1.6 -0.4 1.6 -0.5 0 -0.6 -1 0 -1.8 -0.8 -1.8 -1.6 0 -1.2 1.6 -1.5 8.5 -1.5 l8.5 0 0 3 c0 2 -0.6 3.3 -1.7 3.7 -2.6 0.9 -3.3 2.3 -3.3 6.6 0 3 -0.4 3.7 -1.9 3.7 -1.1 0 -2.2 0.6 -2.5 1.3 -0.4 0.6 -0.4 -0.2 -0.2 -2z"/>
  <path d="M14.4 14.9 c-0.4 -0.7 -0.3 -1.4 0.4 -1.7 1.7 -0.5 1.5 -2.2 -0.3 -2.2 -1.1 0 -1.5 -1.2 -1.5 -4.5 0 -3.3 0.4 -4.5 1.5 -4.5 0.8 0 1.5 -0.4 1.5 -1 0 -0.5 2.5 -1 5.5 -1 4.1 0 5.5 0.4 5.5 1.4 0 0.8 -0.8 1.7 -1.7 1.9 -1.7 0.4 -1.7 0.5 0 0.6 2.2 0.1 2.3 3.1 0.1 3.1 -0.9 0 -2.2 0.7 -2.9 1.7 -1.1 1.5 -1.4 1.4 -3.3 -0.5 -1.2 -1.2 -2.3 -2.2 -2.5 -2.2 -0.1 0 -0.1 1.8 0.1 4.1 0.4 4.3 -1 7.1 -2.4 4.8z"/>
 </g>
 <g fill="#6aa3f0">
  <path d="M0.1 84.3 c0.1 -3.2 0.3 -5 0.6 -4 0.3 1.2 1.5 1.7 3.9 1.7 2.8 0 3.6 0.5 4.4 2.5 0.5 1.4 1.4 2.5 1.9 2.5 0.6 0 0.8 0.7 0.5 1.5 -0.4 0.8 -1.6 1.5 -2.9 1.5 -1.3 0 -2.5 -0.7 -2.9 -1.5 -0.3 -0.8 -1.2 -1.5 -2.1 -1.5 -0.8 0 -1.5 0.7 -1.5 1.5 0 0.8 -0.4 1.5 -1 1.5 -0.6 0 -0.9 -2.5 -0.9 -5.7z"/>
  <path d="M25 88.5 c0 -0.8 0.6 -1.5 1.4 -1.5 0.8 0 1.6 -1.5 1.9 -3.7 0.6 -3.6 5 -9.3 7.3 -9.3 0.6 0 1.9 1.1 2.8 2.5 2.1 3.3 8 4.4 10.6 2 2.4 -2.1 3.3 -1.5 6.7 4.2 1.5 2.6 2.9 4.1 3.1 3.5 0.4 -1.4 -2.9 -7.1 -5.8 -9.7 l-2 -1.8 2.2 -1.2 c2.5 -1.3 4.8 -0.3 4.8 2.1 0 0.8 0.5 1.4 1 1.4 0.6 0 1 1.4 1 3 0 1.9 0.5 3 1.4 3 0.9 0 1.4 1.2 1.4 3.5 l0 3.5 -18.9 0 c-16.1 0 -18.9 -0.2 -18.9 -1.5z m8.3 -5.2 c-2 -4.9 -2.6 -5.5 -1.8 -1.8 1.1 4.8 1.4 5.5 2.4 5.5 0.6 0 0.3 -1.7 -0.6 -3.7z m18.4 1 c1.8 -3.8 0.9 -4 -1.7 -0.4 -1.4 2.1 -1.7 3.1 -0.8 3.1 0.7 0 1.9 -1.2 2.5 -2.7z"/>
  <path d="M26.3 79.3 c-1.5 -0.5 -1.8 -5.3 -0.4 -5.3 0.5 0 1.1 -0.6 1.3 -1.4 0.2 -1.2 0.6 -1.3 2.1 -0.1 1.7 1.2 1.7 1.4 0 4.2 -1 1.7 -2.4 2.8 -3 2.6z"/>
  <path d="M40.4 76.6 c-1.7 -1.3 -1.5 -1.4 2.7 -1.3 3.3 0.1 4.5 0.6 4.2 1.4 -0.7 1.7 -4.5 1.6 -6.9 -0.1z"/>
  <path d="M18 20.4 c0 -1.1 0.6 -1.4 2 -0.9 1.6 0.5 1.9 0.3 1.3 -1.1 -0.4 -1.2 -0.3 -1.5 0.5 -1 0.7 0.4 1.2 0.2 1.2 -0.3 0 -1.4 -1.7 -1.4 -2.5 -0.1 -1 1.6 -2.5 1.2 -2.5 -0.6 0 -1.4 0.8 -1.6 5.3 -1.1 3.5 0.5 4.7 0.3 3.7 -0.3 -1 -0.7 -0.4 -0.8 2 -0.3 4 0.7 5.1 1.9 4.8 4.8 -0.2 1.3 -1.2 2.1 -2.8 2.3 -2.4 0.2 -2.5 0.2 -0.4 -1 1.6 -1 1.9 -1.8 1.3 -3.3 -0.6 -1.7 -0.8 -1.7 -0.8 -0.2 -0.1 2 -1.7 2.3 -2.4 0.5 -0.3 -0.7 -0.6 -0.1 -0.6 1.5 -0.1 2.6 -0.3 2.7 -5.1 2.7 -3.9 0 -5 -0.4 -5 -1.6z"/>
 </g>
 <g fill="#a4b5ab">
  <path d="M29 81.8 c0 -0.7 0.5 -2 1 -2.8 0.8 -1.2 1 -0.9 1 1.3 0 1.5 -0.4 2.7 -1 2.7 -0.5 0 -1 -0.6 -1 -1.2z"/>
  <path d="M12.7 81.3 c-1.4 -1.3 -0.6 -2.3 1.8 -2.3 1.6 0 2.5 0.6 2.5 1.5 0 1.5 -3.1 2.1 -4.3 0.8z"/>
  <path d="M25.8 79.3 c-2.7 -0.7 -2.2 -3.3 0.6 -3.3 1.9 0 2.3 0.4 1.9 2 -0.3 1.1 -0.6 1.9 -0.7 1.9 0 -0.1 -0.9 -0.3 -1.8 -0.6z"/>
  <path d="M10 77 c-1.1 -0.7 0.2 -1 4.3 -1 3.1 0 5.7 0.4 5.7 1 0 1.3 -8 1.3 -10 0z"/>
  <path d="M31.6 68.4 c-0.9 -0.8 -1.6 -2.8 -1.6 -4.4 0 -1.6 -0.2 -3.5 -0.5 -4.2 -0.4 -0.9 0.2 -1.4 1.5 -1.4 1.3 0 1.8 0.5 1.5 1.6 -0.4 1.1 0.3 1.5 2.5 1.5 2.2 0 2.9 -0.4 2.5 -1.4 -0.4 -1.1 0.5 -1.3 4.5 -0.9 3.8 0.4 4.8 0.2 4 -0.7 -0.5 -0.6 -0.7 -1.5 -0.3 -1.8 1.6 -1.7 2.3 -0.4 1.9 3.8 -0.4 4.9 1.7 8.2 3.5 5.4 0.6 -1 0.9 -0.7 0.9 1.4 0 2.3 -0.4 2.7 -3 2.7 -2.5 0 -3 -0.4 -3.6 -3.5 -0.5 -2.8 -1.1 -3.5 -3 -3.5 -1.9 0 -2.4 0.5 -2.4 2.5 0 1.4 -0.5 2.5 -1.1 2.5 -0.5 0 -0.7 0.5 -0.4 1 1 1.7 -5.2 1.1 -6.9 -0.6z m5.2 -3.7 c0.2 -1 -0.3 -1.7 -1.2 -1.7 -1 0 -1.6 0.9 -1.6 2.1 0 2.4 2.3 2.1 2.8 -0.4z"/>
  <path d="M57.7 57.5 c-1.7 -1.6 -1.7 -1.9 -0.3 -3.3 2 -2 2.8 -1.1 2.4 2.4 -0.3 2.7 -0.4 2.7 -2.1 0.9z"/>
  <path d="M25 55 c0 -0.5 0.7 -1 1.5 -1 0.8 0 1.5 0.5 1.5 1 0 0.6 -0.7 1 -1.5 1 -0.8 0 -1.5 -0.4 -1.5 -1z"/>
  <path d="M30 54.2 c0 -3.6 2.2 -5.2 6.3 -4.6 3.4 0.6 3.5 0.8 2 2 -1 0.7 -2.8 1.4 -4 1.4 -1.3 0 -2.3 0.4 -2.3 0.9 0 0.5 1 1.2 2.3 1.4 1.6 0.3 1.3 0.5 -1 0.6 -2.6 0.1 -3.3 -0.3 -3.3 -1.7z"/>
  <path d="M25 51.5 c0 -0.8 -0.7 -1.5 -1.5 -1.5 -3 0 -1.1 -4.3 2 -4.5 0.6 -0.1 1.8 -0.5 2.8 -0.9 1.2 -0.6 2.4 -0.3 3.8 1 l2 1.8 -2.1 0.8 c-1.2 0.4 -2.4 1.7 -2.7 2.8 -0.6 2.3 -4.3 2.7 -4.3 0.5z"/>
  <path d="M0 45.2 c0 -3.8 0.1 -4 6.7 -7 3.7 -1.7 7 -2.9 7.5 -2.6 2.2 1.4 0.1 3.7 -6.2 6.9 -3.8 1.9 -7 4 -7 4.6 0 0.7 0.8 0.6 2.3 -0.3 1.2 -0.8 4.3 -2.7 6.9 -4.2 l4.8 -2.8 1.1 2.6 c0.7 1.4 1.5 2.3 1.9 2.1 0.5 -0.3 1.1 0.2 1.4 1.1 0.5 1.4 0 1.6 -3.7 1.2 -2.8 -0.3 -4.7 -0.1 -5.5 0.8 -0.7 0.8 -3.3 1.4 -5.7 1.4 l-4.5 0 0 -3.8z"/>
  <path d="M33.6 45.1 c-4.1 -4.2 -4.4 -5.1 -1.6 -6.9 1.8 -1.1 2 -1 2 1.1 0 2.7 2.8 5.7 5.4 5.7 0.9 0 2.6 0.8 3.7 1.9 2 1.8 2 1.9 -1.9 1.9 -3.2 0.1 -4.5 -0.6 -7.6 -3.7z"/>
  <path d="M24.7 43.1 c-0.3 -1.4 0.1 -2.1 1.6 -2.5 2.7 -0.7 3.4 0.1 2.1 2.1 -1.5 2.5 -3.1 2.6 -3.7 0.4z"/>
  <path d="M16.6 41.4 c-1.1 -2.8 -0.6 -3.4 1.9 -2.2 1.9 0.9 2.2 1.4 1.4 2.5 -1.5 1.7 -2.6 1.7 -3.3 -0.3z"/>
  <path d="M55.6 27.4 c-1.3 -3.3 -0.6 -6.3 1.5 -6.9 3.1 -1 10.9 1.4 10.2 3.1 -0.3 0.8 0.1 1.4 1.1 1.4 0.9 0 1.6 0.5 1.6 1 0 0.6 -1.6 1 -3.5 1 -1.9 0 -3.5 0.5 -3.5 1 0 1.7 -6.7 1.2 -7.4 -0.6z m3.2 -2.1 c-0.4 -2.2 -2.2 -2 -2.6 0.1 -0.2 1 0.3 1.6 1.3 1.6 1 0 1.5 -0.7 1.3 -1.7z"/>
  <path d="M53.2 23 c0 -1.9 0.2 -2.7 0.5 -1.7 0.2 0.9 0.2 2.5 0 3.5 -0.3 0.9 -0.5 0.1 -0.5 -1.8z"/>
 </g>
 <g fill="#fde626">
  <path d="M27.3 73.6 c-1.3 -1.2 -2.3 -3.3 -2.2 -4.6 0 -2.4 0.1 -2.4 0.9 -0.4 0.5 1.2 1.8 2.8 2.9 3.6 1.1 0.8 1.7 1.9 1.3 2.5 -0.5 0.6 -1.5 0.2 -2.9 -1.1z"/>
  <path d="M31.6 68.3 c-1.7 -1.7 -2.3 -2.9 -1.6 -3.1 1.1 -0.4 6 3.9 6 5.3 0 1.2 -1.9 0.3 -4.4 -2.2z"/>
  <path d="M45.4 63.5 c-0.6 -2.6 0.1 -4.4 1.2 -3.2 1.1 1 1.3 5.7 0.3 5.7 -0.5 0 -1.1 -1.1 -1.5 -2.5z"/>
  <path d="M51.8 62.5 c0.4 -3.7 1.1 -4.2 3 -2.3 1.7 1.7 1.5 3.8 -0.3 3.8 -0.8 0 -1.5 0.5 -1.5 1 0 0.6 -0.4 1 -0.8 1 -0.4 0 -0.6 -1.6 -0.4 -3.5z"/>
  <path d="M58 62 c0 -1.1 0.5 -2 1 -2 0.6 0 1 0.9 1 2 0 1.1 -0.4 2 -1 2 -0.5 0 -1 -0.9 -1 -2z"/>
  <path d="M26 61.4 c0 -1.4 0.3 -1.4 1.5 -0.4 0.8 0.7 1.5 1.4 1.5 1.6 0 0.2 -0.7 0.4 -1.5 0.4 -0.8 0 -1.5 -0.7 -1.5 -1.6z"/>
  <path d="M30 61.6 c0 -0.8 -0.6 -1.6 -1.2 -1.9 -0.7 -0.2 -1 -0.7 -0.7 -1.1 0.3 -0.3 1.5 -0.3 2.5 0.1 2.2 0.9 2.8 4.3 0.8 4.3 -0.8 0 -1.4 -0.6 -1.4 -1.4z"/>
  <path d="M47.2 59.8 c-2.1 -2.5 -2.2 -2.9 -0.7 -3.4 2.4 -0.9 4.8 1.8 3.8 4.3 -0.8 1.9 -0.9 1.8 -3.1 -0.9z"/>
  <path d="M75.5 51 c-0.7 -1.2 1.2 -1.2 4 0 1.8 0.8 1.7 0.9 -0.7 0.9 -1.5 0.1 -3 -0.3 -3.3 -0.9z"/>
  <path d="M83.3 50.3 c-0.8 -0.3 -0.7 -1.2 0.4 -3.2 1.8 -3 1.3 -6.4 -1.2 -9.6 l-1.7 -2 0.8 2 c1.7 4.7 1.7 8.8 -0.1 10.1 -2.1 1.6 -6.4 0.2 -9.5 -3 l-2.2 -2.4 5.2 -1.7 c4.2 -1.4 5.1 -2.1 4.7 -3.6 -0.3 -1.1 -0.1 -1.7 0.4 -1.3 1.3 0.8 1.1 -1 -0.3 -2.4 -0.9 -0.9 -0.8 -1.2 0.8 -1.2 3.1 0 5.4 5 5.4 11.8 0 6.1 -0.5 7.3 -2.7 6.5z"/>
  <path d="M53.6 48.5 c-1.1 -0.8 -2.9 -1.2 -4.3 -0.9 -2 0.5 -2.3 0.3 -2.3 -2.4 0 -3.3 1.3 -4.7 5.3 -5.7 3.3 -0.9 3.4 0.3 0.6 3.9 -1.9 2.4 -1.9 2.7 -0.3 3.3 0.9 0.3 3.2 0 5.1 -0.6 4.1 -1.5 4.9 -1 3.3 1.8 -1.2 2.4 -4.6 2.7 -7.4 0.6z"/>
  <path d="M63 48.3 c0 -0.5 0.5 -1.5 1 -2.3 0.8 -1.2 1 -1.1 1 0.8 0 1.2 -0.4 2.2 -1 2.2 -0.5 0 -1 -0.3 -1 -0.7z"/>
  <path d="M67.7 46.3 c-0.4 -0.3 -0.7 -1.6 -0.6 -2.7 0 -1.9 0.1 -1.9 1 0.3 1 2.4 0.8 3.6 -0.4 2.4z"/>
  <path d="M47.4 28.5 c-0.3 -1.4 -0.3 -3.6 0 -5 0.5 -2 1.3 -2.5 3.6 -2.5 2.3 0 3 0.5 3 1.9 0 5.1 -2.9 6.8 -4.8 2.9 -0.9 -2 -1 -1.7 -0.5 1.5 0.6 4.2 -0.3 5.1 -1.3 1.2z"/>
  <path d="M54.7 30.3 c-0.3 -0.5 -0.1 -2.8 0.3 -5.3 l0.7 -4.5 0.2 5.3 c0.1 4.9 -0.2 6.2 -1.2 4.5z"/>
  <path d="M69.6 26.1 c-1.8 -0.7 -1.8 -0.8 -0.2 -1.4 2.7 -1.1 3.6 -0.8 3.6 0.8 0 1.6 -0.5 1.7 -3.4 0.6z"/>
  <path d="M75.2 25.8 c0.6 -1.8 2.8 -2.1 2.8 -0.4 0 0.9 -0.7 1.6 -1.6 1.6 -0.9 0 -1.4 -0.5 -1.2 -1.2z"/>
  <path d="M63 22.9 c-4.3 -2.6 -4.5 -2.8 -3.8 -3.4 0.3 -0.3 2.5 0.4 4.9 1.5 2.4 1.1 3.8 2 3.1 2 -0.7 0 -1 0.5 -0.7 1 0.9 1.4 0.5 1.3 -3.5 -1.1z"/>
  <path d="M79.9 23.2 c1.3 -2.4 0.7 -4.3 -3.1 -9.9 -3.6 -5.4 -1.3 -6.1 2.7 -0.9 2.1 2.7 2.6 4.4 2.3 7.7 -0.2 2.4 -0.9 4.4 -1.6 4.7 -1.1 0.3 -1.2 0 -0.3 -1.6z"/>
  <path d="M67.9 20.8 c-4.8 -2.4 -5.9 -3.4 -5.7 -5.2 0.2 -1.4 -0.4 -2.4 -1.9 -3.1 -1.3 -0.5 -2.3 -1.5 -2.3 -2.2 0 -1.6 6.1 -1.8 7.6 -0.3 0.8 0.8 1.9 0.7 3.8 -0.1 2.3 -1.1 2.8 -1 4.1 0.7 3.2 4.1 6.6 10.4 6.1 11.3 -1.4 2.2 -6 1.8 -11.7 -1.1z"/>
 </g>
 <g fill="#a1f7a4">
  <path d="M32.2 64.8 c0.3 -3 0.6 -3.3 3.6 -3.4 3 -0.1 3.2 0.1 3.2 3.3 0 3.1 -0.2 3.3 -3.6 3.3 -3.4 0 -3.5 -0.1 -3.2 -3.2z m4.8 0.2 c0 -1.1 -0.6 -2 -1.4 -2 -1.8 0 -2.9 1.6 -2.1 3 1.1 1.8 3.5 1.1 3.5 -1z"/>
  <path d="M22 55 c2 -1.3 6 -1.3 6 0 0 0.6 -1.7 1 -3.7 1 -2.8 0 -3.4 -0.3 -2.3 -1z"/>
  <path d="M30 54.6 c0 -3.6 1.2 -4.6 5.8 -4.6 4.5 0 4.6 0.1 2.4 1.6 -1.2 0.8 -2.2 2.2 -2.2 3 0 0.9 -1.1 1.4 -3 1.4 -1.9 0 -3 -0.5 -3 -1.4z"/>
  <path d="M22 52 c0 -0.5 1.1 -1 2.4 -1 1.6 0 2.7 -0.7 3.1 -2 0.4 -1.4 1.5 -2 3.3 -1.9 2.7 0 2.7 0.1 0.5 1.1 -1.3 0.6 -2.5 1.9 -2.8 2.9 -0.7 2 -6.5 2.8 -6.5 0.9z"/>
  <path d="M37 48 c-1.1 -0.7 -0.4 -1 2.5 -0.9 3.1 0 3.6 0.2 2 0.9 -2.6 1.1 -2.8 1.1 -4.5 0z"/>
  <path d="M45.7 47.4 c-1.7 -1.7 -0.6 -3.4 2.2 -3.4 2.2 0 2.9 0.4 2.7 1.8 -0.3 1.7 -3.6 2.9 -4.9 1.6z"/>
  <path d="M55 24.5 c0 -3.2 0.2 -3.5 3 -3.5 2.8 0 3 0.3 3 3.5 0 3.2 -0.2 3.5 -3 3.5 -2.8 0 -3 -0.3 -3 -3.5z m4.5 0.5 c0 -0.8 -0.8 -1.6 -1.7 -1.8 -1.3 -0.2 -1.8 0.3 -1.8 1.8 0 1.5 0.5 2 1.8 1.8 0.9 -0.2 1.7 -1 1.7 -1.8z"/>
 </g>
 <g fill="#fedb69">
  <path d="M25 61.5 c0 -0.8 0.4 -1.5 0.9 -1.5 0.5 0 1.4 0.7 2.1 1.5 1 1.3 0.9 1.5 -0.9 1.5 -1.2 0 -2.1 -0.6 -2.1 -1.5z"/>
  <path d="M30 60.9 c0 -1.1 -0.4 -1.7 -1 -1.4 -0.5 0.3 -1 0.1 -1 -0.5 0 -0.7 0.7 -0.9 1.6 -0.6 0.9 0.3 1.8 0.6 2 0.6 0.2 0 0.4 0.9 0.4 2 0 1.1 -0.4 2 -1 2 -0.5 0 -1 -0.9 -1 -2.1z"/>
  <path d="M44 61.5 c0 -0.8 0.6 -1.5 1.4 -1.5 0.8 0 1.6 0.7 2 1.5 0.4 1 -0.1 1.5 -1.4 1.5 -1.1 0 -2 -0.7 -2 -1.5z"/>
  <path d="M52 61 c0 -1.1 0.5 -2 1 -2 0.6 0 1 0.9 1 2 0 1.1 -0.4 2 -1 2 -0.5 0 -1 -0.9 -1 -2z"/>
  <path d="M45.8 58.3 c-0.7 -0.9 -0.6 -1.4 0.6 -1.9 1.5 -0.6 4.6 1.1 4.6 2.5 0 1.2 -4.1 0.7 -5.2 -0.6z"/>
  <path d="M41.5 48.3 c-2.9 -0.7 -4.5 -3.2 -4.5 -7 0 -4 1.5 -4.4 2.3 -0.5 0.3 1.5 1.8 4 3.3 5.5 2.7 2.7 2.6 2.9 -1.1 2z"/>
  <path d="M42.9 45.1 c-4 -4 -3.8 -5.5 0.7 -4.7 1.9 0.4 5.1 0.2 7 -0.4 4.6 -1.6 5.6 -0.4 2.2 2.5 -1.6 1.3 -2.8 2.8 -2.8 3.3 0 0.9 -2.3 2.2 -3.7 2.2 -0.2 0 -1.8 -1.3 -3.4 -2.9z"/>
  <path d="M40 38 c0 -0.6 2.7 -1 6.1 -1 3.7 0 5.8 0.4 5.4 1 -0.3 0.6 -3.1 1 -6.1 1 -3 0 -5.4 -0.4 -5.4 -1z"/>
  <path d="M82.6 37.4 c-0.3 -0.8 -1.1 -1.2 -1.7 -0.8 -0.8 0.4 -0.9 0.3 -0.5 -0.4 1 -1.6 -1.5 -5.1 -3.2 -4.4 -1 0.3 -0.9 -0.2 0.4 -1.6 2.4 -2.9 3.4 -2.8 3.4 0.3 0 1.6 0.6 2.5 1.5 2.5 1 0 1.5 1 1.5 3 0 3.3 -0.5 3.8 -1.4 1.4z"/>
  <path d="M21 34.7 c0 -0.1 1 -1.1 2.2 -2.1 1.7 -1.5 2 -1.5 1.5 -0.3 -0.3 0.9 -0.1 1.8 0.6 2.1 0.7 0.2 0 0.5 -1.5 0.5 -1.6 0.1 -2.8 0 -2.8 -0.2z"/>
  <path d="M14.4 31.5 c-1.1 -2.7 0.1 -3.3 1.9 -0.9 1.6 2.1 1.6 2.4 0.2 2.4 -0.9 0 -1.8 -0.7 -2.1 -1.5z"/>
  <path d="M45.7 27.5 c-1.8 -3.9 -2.3 -12.5 -0.7 -12.5 0.6 0 1 -0.8 1 -1.7 0.1 -1.6 0.2 -1.6 1.2 0.1 0.8 1.4 0.8 2.4 -0.1 3.7 -0.6 1.1 -1.1 2.4 -1.1 3.1 0 0.7 0.7 0 1.5 -1.6 0.9 -1.6 1.3 -3.6 1 -4.4 -0.7 -1.9 1.3 -4.2 3.6 -4.2 1.1 0 1.9 -0.4 1.9 -1 0 -0.5 2 -1 4.5 -1 3.3 0 4.5 -0.4 4.5 -1.5 0 -3.3 7.5 -0.4 10.4 4 1 1.5 2 2.4 2.4 2.1 1.2 -1.2 -6.2 -7.6 -9.5 -8.2 -4.4 -0.8 -4.2 -2.4 0.2 -2.4 1.9 0 3.5 0.5 3.5 1 0 0.6 0.8 1 1.9 1 1.8 0 7.1 5.9 7.1 7.9 0 0.6 0.5 1.1 1 1.1 0.6 0 1 0.9 1 2 0 1.1 0.5 2 1 2 1.7 0 1.2 8 -0.5 8.7 -2.2 0.8 -2.8 -0.2 -1.6 -2.5 1.2 -2.3 -0.2 -7.7 -1.8 -6.8 -0.5 0.3 -0.8 -0.2 -0.7 -1.1 0 -1 -0.4 -1.8 -1.1 -1.8 -0.6 0 -1.5 -0.3 -1.8 -0.7 -0.4 -0.4 -1.6 -0.3 -2.6 0.2 -1.4 0.8 -2.2 0.4 -3.7 -1.5 -2.3 -2.9 -5.2 -3.3 -5.2 -0.7 0 1.4 -0.7 1.7 -3.7 1.5 -2.9 -0.3 -4.5 0.3 -6.8 2.2 -2.1 1.8 -2.5 2.5 -1.4 2.5 2 0 2.9 2 2.9 6.3 0 2.2 -0.3 2.8 -0.9 1.8 -1.2 -1.8 -3.2 -0.5 -2.5 1.7 0.3 0.9 -0.1 0.6 -1 -0.8 -1.5 -2.5 -1.5 -2.5 -0.9 1.3 0.7 4.7 -0.8 4.8 -3 0.2z"/>
  <path d="M16.5 29 c-0.4 -0.6 0.5 -1 1.9 -1 1.4 0 2.6 0.5 2.6 1 0 0.6 -0.9 1 -1.9 1 -1.1 0 -2.3 -0.4 -2.6 -1z"/>
  <path d="M22 27.5 c0 -0.8 0.3 -1.5 0.6 -1.5 0.3 0 1.2 0.7 2 1.5 1.4 1.3 1.3 1.5 -0.5 1.5 -1.2 0 -2.1 -0.6 -2.1 -1.5z"/>
  <path d="M54.8 25 c0.2 -2.2 0.7 -4 1.1 -4 0.3 0 0.6 1.8 0.6 4 0 2.2 -0.4 4 -1 4 -0.6 0 -0.9 -1.6 -0.7 -4z"/>
  <path d="M15.8 26.3 c1.2 -0.2 3 -0.2 4 0 0.9 0.3 -0.1 0.5 -2.3 0.4 -2.2 0 -3 -0.2 -1.7 -0.4z"/>
  <path d="M64 23.6 c0 -2 0.4 -2.3 2.1 -1.9 1.4 0.4 1.7 0.8 0.9 1.3 -1.6 1 0.6 2.4 2.5 1.6 0.8 -0.3 1.5 -0.1 1.5 0.4 0 0.6 -1.6 1 -3.5 1 -3 0 -3.5 -0.3 -3.5 -2.4z"/>
  <path d="M77.6 21.6 c2.1 -1.5 3 -1.4 1.9 0.3 -0.3 0.6 -1.4 1.1 -2.3 1.1 -1.3 0 -1.3 -0.2 0.4 -1.4z"/>
  <path d="M22 11.5 c0.7 -0.8 1.6 -1.5 2.1 -1.5 0.5 0 0.9 0.7 0.9 1.5 0 0.9 -0.9 1.5 -2.1 1.5 -1.8 0 -1.9 -0.2 -0.9 -1.5z"/>
  <path d="M15.7 11.3 c-0.4 -0.3 -0.7 -2.1 -0.7 -4 0 -2.3 0.5 -3.3 1.5 -3.3 0.8 0 1.5 -0.9 1.5 -2 0 -1.6 0.7 -2 3.4 -2 2 0 3.6 0.6 3.9 1.4 0.5 1.1 -0.1 1.3 -2.6 0.9 -2.9 -0.4 -3.2 -0.2 -3.2 2.1 0 1.5 0.6 2.6 1.3 2.6 0.8 0 1.1 -0.7 0.8 -1.7 -0.5 -1.6 0.3 -1.8 8 -1.8 l8.5 0 -5.8 1.7 c-3.2 1 -6.5 1.8 -7.4 1.8 -0.9 0 -2 0.7 -2.3 1.5 -0.4 1.3 -1 1.4 -2.6 0.5 -1.1 -0.6 -2 -1.7 -2 -2.5 0 -0.8 -0.5 -1.5 -1 -1.5 -0.7 0 -0.8 1.3 -0.4 3.5 0.6 3.4 0.4 4.2 -0.9 2.8z"/>
  <path d="M29 2 c1.4 -0.4 4.1 -0.8 6 -0.8 2.8 -0.1 3.1 0.1 1.5 0.8 -1.1 0.5 -3.8 0.8 -6 0.8 -3.4 0 -3.6 -0.1 -1.5 -0.8z"/>
 </g>
 <g fill="#f8c391">
  <path d="M0.3 80.5 c0 -2.2 0.2 -3 0.4 -1.7 0.2 1.2 0.2 3 0 4 -0.3 0.9 -0.5 -0.1 -0.4 -2.3z"/>
  <path d="M39 79.5 c0 -1.3 0.4 -1.4 2 -0.5 1.1 0.6 2 1.3 2 1.5 0 0.3 -0.9 0.5 -2 0.5 -1.1 0 -2 -0.7 -2 -1.5z"/>
  <path d="M41 77 c-0.8 -0.5 -1.2 -1.1 -1 -1.4 0.9 -0.8 6.9 -1.1 7 -0.3 0 0.4 0 1.2 0 1.7 0 1.3 -4 1.3 -6 0z"/>
  <path d="M37.4 71.9 c-3 -0.8 -8.4 -5.3 -8.4 -6.9 0 -0.5 -0.9 -0.6 -2 -0.3 -2.3 0.6 -3.9 -2.2 -2.2 -3.9 0.9 -0.9 1.7 -0.7 3.2 0.7 1.9 1.8 2 1.8 2 -0.3 0 -1.2 -0.5 -2.2 -1.2 -2.2 -0.6 0 -0.9 -0.2 -0.7 -0.5 0.9 -0.9 4.8 0.7 4.3 1.8 -0.3 0.8 0.7 1.2 2.6 1.2 3.1 0 4 -0.9 1.8 -1.9 -0.7 -0.3 1.2 -0.2 4.2 0.1 6.4 0.7 6.3 0.6 6.6 3.6 0.1 1.2 0.3 2.5 0.3 3 0.1 0.4 0.7 0.7 1.5 0.7 1.6 0 2.6 -2.1 2.6 -5.5 0 -1.8 0.5 -2.2 2.8 -2.2 1.5 0 2.2 0.2 1.6 0.4 -0.6 0.2 -0.9 1.4 -0.7 2.7 0.6 3.2 -3.7 8 -8.5 9.4 -4.5 1.4 -5.5 1.4 -9.8 0.1z m8.4 -3.4 c0.2 -1.5 0.1 -1.7 -0.6 -0.6 -0.7 1 -2 1.2 -4.2 0.7 -2.9 -0.5 -3.1 -0.4 -2 1 1.9 2.1 6.4 1.4 6.8 -1.1z m-8.8 -3.5 c0 -1.1 -0.6 -2 -1.4 -2 -1.8 0 -2.9 1.6 -2.1 3 1.1 1.8 3.5 1.1 3.5 -1z"/>
  <path d="M22.7 67.3 c-0.4 -0.3 -0.7 -1.8 -0.6 -3.2 0 -1.5 0.3 -2 0.6 -1.1 0.3 0.8 1.2 2.3 2.1 3.3 1.3 1.5 1.3 1.7 0 1.7 -0.8 0 -1.8 -0.3 -2.1 -0.7z"/>
  <path d="M60.5 66.3 c1.9 -4.6 1.7 -6.2 -0.9 -7.4 -2.6 -1.2 -3.5 -2.9 -1.6 -2.9 0.6 0 1 0.5 1 1 0 0.6 1.1 1 2.5 1 2.2 0 2.5 0.4 2.5 3.8 0 3.6 -1.4 6.2 -3.3 6.2 -0.5 0 -0.6 -0.8 -0.2 -1.7z"/>
  <path d="M58 62.7 c0 -2.7 1.3 -3.6 2.6 -1.6 0.3 0.6 -0.1 1.8 -1 2.7 -1.5 1.5 -1.6 1.4 -1.6 -1.1z"/>
  <path d="M81.7 62.3 c-0.4 -0.3 -0.6 -2.7 -0.6 -5.2 0.1 -4.6 0.1 -4.6 0.9 -1.1 0.4 1.9 1.1 4.3 1.5 5.3 0.7 1.7 -0.5 2.4 -1.8 1z"/>
  <path d="M87 61.6 c0 -0.8 -0.7 -1.6 -1.5 -2 -0.8 -0.3 -1.5 -1.7 -1.5 -3.2 0 -2.2 0.2 -2.5 1.5 -1.4 1.3 1 1.5 0.9 1.5 -0.9 0 -1.1 0.5 -2.1 1 -2.1 0.6 0 1 2.5 1 5.5 0 3 -0.4 5.5 -1 5.5 -0.5 0 -1 -0.6 -1 -1.4z"/>
  <path d="M45.6 58.1 c-1.1 -1.6 2.7 -2.2 4.3 -0.6 1.4 1.3 1.3 1.5 -1.1 1.5 -1.5 0 -2.9 -0.4 -3.2 -0.9z"/>
  <path d="M37.6 42.8 c-0.7 -5.8 -0.7 -5.8 -2.9 -4.3 -3.9 2.8 -4.2 1.6 -0.4 -2.1 2.3 -2.2 3.7 -4.6 3.7 -6 0 -1.4 0.7 -2.7 1.5 -3 1.6 -0.6 2.9 -3.8 3 -6.9 0 -4 3 -2.7 4.8 2.1 l1.7 4.6 -3 -0.4 c-1.8 -0.3 -3.1 0 -3.4 0.9 -0.3 0.7 -1.2 1.3 -2 1.3 -0.8 0 -1.6 1.3 -1.8 3 -0.4 2.7 -0.2 3 2.4 3 2.2 0 2.8 0.5 2.8 2.1 0 1.7 -0.5 2 -2.5 1.7 -1.8 -0.4 -2.5 -0.1 -2.5 1.1 0 1.8 2.6 6 4.8 7.7 1 0.7 0.5 1 -2.1 1 l-3.5 0 -0.6 -5.8z"/>
  <path d="M63.6 47.3 c0.4 -1 0.7 -2.8 0.7 -4 -0.1 -3.2 2.5 -2.9 3.8 0.4 1.3 3.6 0.5 5.3 -2.7 5.3 -2.1 0 -2.5 -0.3 -1.8 -1.7z"/>
  <path d="M42.5 43.8 c-1.8 -2.1 -2.3 -3.4 -1.5 -3.6 1.3 -0.5 6 4 6 5.8 0 1.9 -1.8 1 -4.5 -2.2z"/>
  <path d="M16.5 40 c-0.8 -1.3 1.5 -1.3 3.5 0 1.2 0.8 1.1 1 -0.7 1 -1.2 0 -2.5 -0.4 -2.8 -1z"/>
  <path d="M13.2 37.8 c-0.6 -0.6 -1.2 -1.8 -1.2 -2.5 0 -0.7 -0.4 -1.3 -1 -1.3 -0.5 0 -1 -1.7 -0.9 -3.7 l0.1 -3.8 0.8 3.3 c0.4 1.8 1.5 4.1 2.5 5.2 2 2.2 1.7 4.8 -0.3 2.8z"/>
  <path d="M59.5 35.9 c-4.4 -3.9 -5.6 -6 -4.8 -8.7 0.4 -1.9 0.7 -1.9 2 -0.7 2 2.1 4.3 1.9 4.3 -0.4 0 -2 -3.2 -3.7 -5 -2.6 -0.5 0.3 -1 -0.1 -1 -0.9 0 -0.9 0.6 -1.6 1.3 -1.6 0.9 0 0.8 -0.3 -0.2 -0.9 -0.7 -0.5 -1.2 -1.4 -1 -2 0.5 -1.3 12.1 3.9 12 5.4 0 0.6 1.3 0.9 3 0.7 2.5 -0.2 2.9 0.1 2.9 2.2 0 5.5 -4.6 12.6 -8.1 12.6 -1 0 -3.4 -1.4 -5.4 -3.1z m9.4 -1.1 c1.7 -2.9 0.8 -4.9 -1.1 -3 -0.7 0.7 -2.7 1.2 -4.6 1.2 -2.3 0 -3.2 0.4 -2.9 1.3 0.4 1.3 1.6 1.3 5.6 0.1 1.7 -0.5 2.2 -0.4 1.7 0.4 -0.4 0.7 -1.6 1.2 -2.7 1.2 -1.2 0 -1.7 0.4 -1.4 1.1 1.1 1.7 3.8 0.6 5.4 -2.3z m-2.4 -3.8 c0.7 -1.2 -0.2 -1.2 -3 0 -1.9 0.8 -1.9 0.9 0.2 0.9 1.2 0.1 2.5 -0.3 2.8 -0.9z"/>
  <path d="M16.4 34.4 c-4.2 -4.4 -4.7 -9.3 -1.1 -9.5 1.6 -0.1 1.8 -0.2 0.5 -0.6 -2.3 -0.6 -2.2 -1 0.3 -5.3 3.7 -6.2 5.6 -7.6 10.2 -7.9 6 -0.3 8.4 2.4 3 3.2 -2 0.4 -4.2 0.2 -4.9 -0.4 -0.9 -0.7 -1.8 -0.7 -3.1 0 -1.6 0.9 -1.4 1.1 1.2 1.2 1.7 0.2 4.6 0.2 6.6 0 3 -0.2 3.7 0.2 4.8 2.5 0.6 1.5 1.4 4.6 1.8 7 0.6 4.7 0.2 5 -4.4 3.8 -3 -0.8 -3.3 -6.9 -0.4 -7.9 2.6 -0.8 1.7 -4.5 -1 -3.8 -1.3 0.4 -1.9 1.4 -1.9 3.3 0 4.6 -2 9 -4.1 9 -1.4 0 -1.9 -0.8 -2 -2.7 -0.1 -1.6 -0.3 -2.1 -0.6 -1.1 -0.3 1.1 -1.7 1.8 -3.9 2 l-3.6 0.3 3.8 4.8 c3.6 4.6 7.4 6.2 8.9 3.7 0.7 -1.1 8 -6 9 -6 0.3 0 0.1 0.9 -0.5 2.1 -1.7 3.1 -7.1 5.9 -11.4 5.9 -3.1 0 -4.5 -0.7 -7.2 -3.6z m6 -14.6 c0.8 -4 0.4 -4.3 -2.8 -2.3 -3.4 2.2 -3.5 5.5 -0.2 5.5 1.8 0 2.5 -0.7 3 -3.2z"/>
  <path d="M49 34.9 c0 -1.8 0.2 -1.9 1.5 -0.9 0.8 0.7 1.5 1.6 1.5 2.1 0 0.5 -0.7 0.9 -1.5 0.9 -0.9 0 -1.5 -0.9 -1.5 -2.1z"/>
  <path d="M79.8 33.2 c-1.4 -2.3 -1.5 -3.5 -0.6 -6.8 1.6 -6 1.3 -7.9 -2 -12.6 -4.3 -6.2 -7.3 -8.7 -11.2 -9.3 l-3.5 -0.5 3 1.1 c3.2 1.2 7.5 4.7 7.5 6.1 0 1.7 -3.2 0.7 -3.7 -1.2 -0.4 -1.5 -1.5 -2 -6.2 -2.2 -5.1 -0.3 -5.4 -0.4 -3.1 -1.5 2.4 -1.1 2.5 -1.2 0.3 -1.2 -1.6 -0.1 -2.3 -0.7 -2.3 -2.1 0 -1.8 0.7 -2 6.5 -2 5 0 6.5 0.3 6.5 1.4 0 0.9 1.2 1.6 2.8 1.8 1.9 0.2 2.8 0.9 3 2.6 0.2 1.2 1 2.2 1.8 2.2 0.8 0 1.4 0.7 1.4 1.5 0 0.8 0.5 1.5 1 1.5 0.6 0 1 0.9 1 2 0 1.1 0.5 2 1.1 2 0.7 0 0.9 1.9 0.5 5.8 -0.3 3.1 -0.5 7.6 -0.5 10 0 4.9 -1 5.3 -3.3 1.4z"/>
  <path d="M51 32.5 c-0.7 -0.9 -1 -1.8 -0.7 -2.1 1 -1.1 3.7 0.5 3.7 2.1 0 1.9 -1.4 1.9 -3 0z"/>
  <path d="M74 28.5 c0 -1.4 2.1 -4.5 3.1 -4.5 1.8 0 0.5 4.5 -1.3 4.8 -1 0.2 -1.8 0.1 -1.8 -0.3z"/>
  <path d="M37.5 24.8 c-0.8 -2 1.2 -6.1 2.6 -5.3 1.3 0.9 1.1 2.8 -0.5 5.1 -1.3 1.7 -1.5 1.7 -2.1 0.2z"/>
  <path d="M48.2 22 c-0.8 -2 -0.8 -3.2 0 -3.6 1.3 -0.8 2.8 1.4 2.8 4.4 0 3.2 -1.6 2.7 -2.8 -0.8z"/>
  <path d="M8.1 19.8 c0.1 -4 0.1 -4.1 0.9 -1.5 0.5 1.6 1.4 3.5 2.1 4.3 0.9 1.1 0.8 1.4 -1 1.4 -1.8 0 -2.1 -0.6 -2 -4.2z"/>
  <path d="M11 17.9 c0 -3.8 2.4 -3.5 2.8 0.4 0.2 1.9 -0.1 2.7 -1.2 2.7 -1.1 0 -1.6 -1 -1.6 -3.1z"/>
  <path d="M15 14.1 c0 -1.1 0.5 -2.3 1 -2.6 0.6 -0.3 1 0.3 1 1.4 0 1.1 -0.4 2.3 -1 2.6 -0.5 0.3 -1 -0.3 -1 -1.4z"/>
  <path d="M49 11.5 c0 -0.2 1.8 -1.4 4 -2.5 3.9 -2 4 -2 4 -0.1 0 1 -0.7 2.2 -1.6 2.5 -1.9 0.7 -6.4 0.8 -6.4 0.1z"/>
  <path d="M15 6.5 c0 -2.3 0.5 -3.5 1.4 -3.5 0.8 0 1.6 -0.7 2 -1.5 0.7 -2 7.6 -2.1 7.6 -0.1 0 1.1 -0.8 1.3 -3.2 0.9 -3 -0.4 -3.3 -0.3 -3.3 2.1 0 1.9 0.5 2.6 2 2.6 1.5 0 1.7 0.2 0.6 1.3 -1 1 -1.6 0.8 -3.1 -1 -2.4 -3 -3.4 -2.9 -2.6 0.2 0.4 1.4 0.2 2.5 -0.4 2.5 -0.5 0 -1 -1.6 -1 -3.5z"/>
  <path d="M48 7.6 c0 -2.6 1.6 -3.6 6.1 -3.6 4 0 3.6 1.6 -1.1 4 -4.9 2.5 -5 2.5 -5 -0.4z"/>
  <path d="M22.2 5.3 c-0.6 -0.2 -1 -0.8 -0.7 -1.3 0.6 -1 4.5 -0.1 4.5 1.1 0 1 -1.7 1.1 -3.8 0.2z"/>
  <path d="M33.8 3.3 c-1 -0.2 -1.8 -1.1 -1.8 -1.9 0 -1 1.3 -1.4 4.5 -1.4 5.1 0 6.3 2 1.3 2.1 -2.8 0 -3 0.2 -1.3 0.9 2.1 0.9 0.3 1.1 -2.7 0.3z"/>
 </g>
 <g fill="#e3c6b6">
  <path d="M0.1 76.6 l-0.1 -3.8 5.3 0.4 5.2 0.4 0.1 -9 c0.1 -6.9 0.6 -10.3 2.3 -13.9 1.1 -2.7 2.1 -5.8 2.1 -7 0 -2 0 -2 1.5 -0.1 0.8 1 1.5 1.5 1.5 0.9 0 -0.5 0.4 -0.4 0.9 0.4 0.6 0.9 0 3.3 -1.7 7 -3 6.5 -4 15.3 -2.2 20.6 l1.2 3.7 3.4 -3.3 c3 -2.9 3.3 -3.7 2.8 -7.3 -0.5 -4 -0.5 -4.1 1 -1.6 0.8 1.4 2 3.5 2.5 4.7 0.6 1.2 1.9 2.8 3 3.5 1.5 0.9 1.7 1.6 1 3 -1.4 2.6 -2.9 2.2 -2.9 -0.7 0 -1.4 -0.4 -2.5 -1 -2.5 -0.5 0 -1 1.6 -1 3.5 0 1.9 -0.3 3.5 -0.8 3.5 -1.5 0 -17.8 -2.1 -20.4 -2.6 -2.2 -0.4 -2.7 -0.1 -3.1 1.8 -0.3 1.4 -0.5 0.9 -0.6 -1.6z"/>
  <path d="M37 77.8 c0 -2.1 0 -2.1 2.3 -0.2 1.2 1 2.4 2 2.6 2.1 0.2 0.2 -0.8 0.3 -2.2 0.3 -2.1 0 -2.7 -0.5 -2.7 -2.2z"/>
  <path d="M52.6 75.4 c-1.5 -1.1 -1.6 -1.4 -0.4 -1.4 0.8 0 2.3 -0.9 3.3 -2 1.7 -1.9 1.9 -1.9 3.6 -0.4 2.2 2 1.6 3.4 -1.6 3.4 -1.3 0 -2.5 0.4 -2.7 0.9 -0.1 0.5 -1.2 0.3 -2.2 -0.5z"/>
  <path d="M31.1 67.6 c-1.9 -2 -2.2 -2.9 -1.4 -5.2 0.5 -1.5 1.6 -3 2.4 -3.2 1.1 -0.4 1.2 -0.2 0.2 0.9 -1.7 1.8 -1.6 4.2 0.1 3.6 0.8 -0.3 1.3 0.1 1.2 1.1 0 0.9 0.9 1.8 2.4 2.2 l2.5 0.6 -2.2 1.2 c-2.8 1.5 -2.6 1.6 -5.2 -1.2z"/>
  <path d="M39.7 68.4 c-0.9 -1 0.2 -2.4 1.9 -2.4 0.8 0 1.4 0.7 1.4 1.5 0 1.5 -2.1 2.1 -3.3 0.9z"/>
  <path d="M60.5 66.3 c1.9 -4.6 1.7 -6.2 -0.9 -7.4 -3.1 -1.5 -3.5 -4.9 -0.6 -4.9 1.1 0 2 0.7 2 1.5 0 0.8 0.5 1.5 1 1.5 0.6 0 1 0.9 1 2 0 1.1 0.5 2 1 2 0.6 0 1 1.6 1 3.5 0 3.1 -0.3 3.5 -2.6 3.5 -2.1 0 -2.5 -0.3 -1.9 -1.7z"/>
  <path d="M86.5 66.3 c0.4 -1 0.7 -2.6 0.7 -3.5 0 -1 0.3 -1.8 0.9 -1.8 0.5 0 0.9 1.6 0.9 3.5 0 2.5 -0.4 3.5 -1.6 3.5 -1.2 0 -1.4 -0.5 -0.9 -1.7z"/>
  <path d="M24 62.1 c0 -1.4 1.8 -2.3 3.1 -1.5 0.8 0.4 0.7 0.9 -0.2 1.5 -1.8 1.1 -2.9 1.1 -2.9 0z"/>
  <path d="M39.3 60.9 c-2.5 -0.9 -3 -1.9 -1 -1.9 1.5 0 4.3 1.7 3.7 2.3 -0.3 0.3 -1.5 0.1 -2.7 -0.4z"/>
  <path d="M45.5 58 c-0.8 -1.2 2 -2.4 3.5 -1.5 0.5 0.3 1 1 1 1.6 0 1.2 -3.7 1.2 -4.5 -0.1z"/>
  <path d="M87 55.5 c0 -2.2 -0.6 -3.8 -1.7 -4.4 -1.5 -0.9 -1.4 -1 1 -1.1 2.5 0 2.7 0.3 2.7 4.5 0 2.5 -0.4 4.5 -1 4.5 -0.5 0 -1 -1.6 -1 -3.5z"/>
  <path d="M22 50.1 c0 -3.5 2.4 -6 3.4 -3.5 1.3 3.4 0.7 6.4 -1.4 6.4 -1.5 0 -2 -0.7 -2 -2.9z"/>
  <path d="M25.1 43.2 c-1 -2 0.1 -3.2 3 -3.2 1.4 0 1.1 2.6 -0.5 3.9 -1.2 1 -1.7 0.8 -2.5 -0.7z"/>
  <path d="M17 41.1 c-1.2 -2.3 0.2 -2.9 2.8 -1.2 1 0.6 1 1 -0.2 2 -1.2 1 -1.7 0.8 -2.6 -0.8z"/>
  <path d="M31 40.2 c0 -0.4 1.6 -2.2 3.5 -4.1 2.1 -1.9 3.5 -4.2 3.5 -5.6 0 -1.3 0.6 -2.8 1.4 -3.2 0.7 -0.4 1.8 -1.8 2.5 -3 1.6 -3.1 -0.2 -6.7 -3 -6 -1.4 0.4 -1.9 0 -1.9 -1.3 0 -1.1 0.5 -2.2 1.1 -2.5 0.7 -0.5 0.2 -1.5 -1.2 -2.8 l-2.2 -2 2.2 -1.8 c1.3 -1 3.4 -2.7 4.9 -3.8 l2.6 -1.9 -12.5 0.2 c-11.7 0.1 -12.5 0.2 -12.1 2 0.4 1.5 0.1 1.7 -1.7 1.1 -2 -0.6 -2.1 -0.4 -1.5 3.4 0.4 2.2 0.4 4.8 0 5.7 -0.6 1.6 -0.8 1.6 -2.5 0 -1.7 -1.6 -2 -1.6 -3.5 -0.1 -1.9 1.9 -2 3.8 -0.4 6.8 0.6 1.2 1 4 0.9 6.2 -0.2 2.9 0.4 4.9 1.8 6.7 2.5 3.1 2.6 4.4 0.5 5.2 -2.4 0.9 -2.4 0.9 -2.4 -2.9 0 -2.7 -0.4 -3.5 -1.9 -3.5 -1.6 0 -1.9 -1.1 -2.5 -7.7 -0.5 -5.2 -0.4 -7.9 0.3 -8.1 0.6 -0.2 1.1 -1.9 1.1 -3.8 0 -2.9 0.4 -3.4 2.3 -3.4 2 0 2.2 -0.4 1.9 -4 -0.4 -3.5 -0.2 -4 1.7 -4 1.2 0 2.1 -0.5 2.1 -1 0 -0.7 5.8 -1 16 -0.9 l16 0.1 0 2.4 c0 1.5 -0.6 2.4 -1.5 2.4 -0.8 0 -1.5 0.7 -1.5 1.5 0 0.9 -0.9 1.5 -2.1 1.5 -1.7 0 -2 0.4 -1.5 2.3 0.3 1.2 0.6 2.8 0.6 3.5 0 0.6 0.6 1.2 1.4 1.2 1.8 0 2.6 2.2 2.6 7.6 0 3.1 0.4 4.4 1.4 4.4 0.8 0 1.5 1.4 1.8 3.5 0.4 3.1 0.1 3.5 -1.9 3.5 -1.8 0 -2.3 -0.6 -2.3 -2.5 0 -1.6 -0.6 -2.5 -1.5 -2.5 -0.9 0 -1.5 0.9 -1.5 2.5 0 1.4 -0.4 2.5 -1 2.5 -0.5 0 -1 0.7 -1 1.5 0 2.6 -3.3 5.5 -6.2 5.5 -1.6 0 -2.8 -0.4 -2.8 -0.8z"/>
  <path d="M64 35 c2 -1.3 4.3 -1.3 3.5 0 -0.3 0.6 -1.6 1 -2.8 1 -1.8 0 -1.9 -0.2 -0.7 -1z"/>
  <path d="M21.7 33.9 c0.8 -0.8 1.6 -0.8 3 0 1.6 0.9 1.4 1 -1.1 1.1 -2.2 0 -2.7 -0.3 -1.9 -1.1z"/>
  <path d="M50.7 32.3 c-1.2 -1.1 -0.8 -2.3 0.8 -2.3 0.8 0 1.5 0.7 1.5 1.5 0 1.6 -1.2 2 -2.3 0.8z"/>
  <path d="M55.2 31.4 c-0.5 -0.9 -0.7 -2.4 -0.5 -3.3 0.5 -2.2 10.3 -1.7 10.3 0.5 0 0.8 -0.8 1.7 -1.7 2 -1 0.3 -2.6 1 -3.5 1.5 -2.5 1.3 -3.6 1.1 -4.6 -0.7z"/>
  <path d="M13.6 30.4 c-1 -2.7 -0.7 -5.4 1.3 -9.3 2.7 -5.2 4.5 -6.6 6.1 -4.6 0.8 0.9 0.9 1.5 0.4 1.4 -0.5 -0.1 -1.6 -0.1 -2.4 0 -1.1 0.1 -1.1 0.4 0.4 1.3 1.6 0.9 2.2 0.7 3.6 -1.2 1.1 -1.5 2.3 -2.1 3.4 -1.7 1.4 0.6 1.4 1.1 -0.5 5.9 -2.6 6.7 -3.9 8.1 -3.9 4.2 -0.1 -2.4 -0.2 -2.6 -1.1 -1.1 -0.6 1 -2.2 1.7 -4 1.7 -2.6 0 -2.9 0.2 -1.9 1.9 1.2 2.4 1.3 3.1 0.1 3.1 -0.5 0 -1.2 -0.7 -1.5 -1.6z"/>
  <path d="M32 24 c0 -3.2 2.3 -4.2 3.4 -1.4 0.8 2.2 0.8 2.2 -1.4 3.4 -1.8 1 -2 0.8 -2 -2z"/>
  <path d="M75.7 26.4 c-0.8 -0.8 0.1 -2.4 1.4 -2.4 0.5 0 0.9 0.7 0.9 1.5 0 1.5 -1.2 2 -2.3 0.9z"/>
  <path d="M65.2 24.8 c-1.7 -1.7 -1.5 -2.8 0.5 -2.8 0.9 0 1.3 0.3 1 0.7 -0.4 0.3 -0.2 1.2 0.4 2 1.4 1.6 -0.3 1.7 -1.9 0.1z"/>
  <path d="M37 23.5 c0 -1.6 2.2 -4.5 3.1 -4 1.5 1 1.1 2.3 -1.1 3.5 -1.1 0.6 -2 0.8 -2 0.5z"/>
  <path d="M24.5 14 c-0.4 -0.6 -1.6 -0.8 -2.8 -0.4 -2.2 0.7 -2.2 0.6 -0.3 -1.5 2.5 -2.7 7.7 -2.8 10.1 -0.1 1.8 2 1.7 2 -0.8 2 -1.4 0 -3.2 0.3 -4 0.6 -0.8 0.3 -1.8 0 -2.2 -0.6z"/>
 </g>
 <g fill="#86defc">
  <path d="M0 85.3 c0 -5.5 0.5 -5.4 1.4 0.5 0.4 2.6 0.2 4.2 -0.4 4.2 -0.5 0 -1 -2.1 -1 -4.7z"/>
  <path d="M25.7 89.4 c-1.2 -1.3 -0.7 -2.4 1.1 -2.4 1.2 0 1.8 -0.9 1.9 -3 0.3 -3.9 1.8 -6.6 4.7 -8.5 2.2 -1.4 2.5 -1.3 6 1.9 2.9 2.8 4.6 3.6 8.4 3.8 l4.7 0.4 -5.3 0.8 c-2.9 0.5 -5.5 1.3 -5.9 1.9 -0.4 0.7 0.9 0.8 3.8 0.3 3.1 -0.4 3.9 -0.3 2.9 0.4 -0.8 0.5 -4.1 1 -7.2 1 -5.7 0 -5.8 0 -7.3 -3.7 -1.9 -4.4 -2.6 -4 -1.8 1 l0.6 3.7 10.1 0 c6 0 9.5 0.4 8.6 0.9 -1.9 1.1 -24.4 2.4 -25.3 1.5z"/>
  <path d="M26 78.1 c0 -0.5 0.9 -1.9 2 -3.2 2.2 -2.8 2.8 -0.6 0.6 2.4 -1.4 1.8 -2.6 2.2 -2.6 0.8z"/>
  <path d="M22.7 19 c0.8 -3.1 2.3 -3.4 2.3 -0.6 0 1.6 -0.6 2.6 -1.4 2.6 -0.9 0 -1.2 -0.7 -0.9 -2z"/>
  <path d="M18 17 c0 -1.6 1.7 -2 2.8 -0.7 0.8 1 0.6 1.3 -0.9 1.4 -1 0.1 -1.9 -0.2 -1.9 -0.7z"/>
 </g>
 <g fill="#db9dfb">
  <path d="M69 88.5 c0 -0.8 -0.7 -1.5 -1.5 -1.5 -0.8 0 -1.5 0.5 -1.5 1 0 0.6 -1.5 1 -3.4 1 -2.9 0 -3.5 -0.3 -3.4 -2.2 0.1 -4.7 1 -7.8 2.4 -7.8 2.3 0 1.6 -2.6 -1.1 -3.8 -1.4 -0.6 -2.5 -1.8 -2.5 -2.6 0 -1.3 0.5 -1.2 3 0.2 2.5 1.4 3 2.3 3 5.4 0 2 -0.4 4.8 -1 6.2 -0.7 2 -0.6 2.6 0.4 2.6 1.5 0 2.6 -4.2 2.6 -10 0 -3 -0.5 -3.9 -2.5 -4.8 -3.1 -1.4 -3.2 -3.2 -0.2 -3.3 1.2 0 3.1 -0.5 4.2 -1 1.4 -0.6 0.5 -0.7 -2.7 -0.3 -2.7 0.4 -4.8 0.2 -4.8 -0.2 0.1 -2.5 2.9 -3.9 7.8 -4.2 8 -0.5 10.2 -1.6 10.2 -5.1 0 -1.6 -0.3 -3.2 -0.7 -3.4 -0.5 -0.3 -4.6 0.1 -9.3 0.9 -10.7 1.7 -11 1.7 -11 -0.1 0 -2.1 3.2 -3.5 8.2 -3.5 2.4 0 5.9 -0.5 7.9 -1 5.4 -1.5 8.9 0.1 8.9 4 0 1.7 0.7 4.5 1.6 6.2 2.7 5.2 0.9 7.4 -6.8 8.4 -3.5 0.4 -5.2 0.9 -3.8 1.1 8.6 1.1 9 1.3 9 4.2 0 3.5 2.9 12.1 4.1 12.1 1.2 0 1.1 -0.2 -1 -8.4 -1.8 -6.8 -1.8 -7 0.1 -10.3 2.6 -4.3 3.8 -4.2 3.8 0.2 0 1.9 -0.4 3.5 -1 3.5 -0.5 0 -1 0.6 -1 1.4 0 0.8 -0.6 1.7 -1.2 1.9 -0.8 0.4 -0.4 0.8 1 1.2 2 0.7 2.2 1.4 2.2 7.1 l0 6.4 -10 0 c-8.2 0 -10 -0.3 -10 -1.5z"/>
  <path d="M50 42.2 c0 -1.3 2.3 -3.2 3.7 -3.2 1.1 0 1.1 0.5 0.3 2 -1 1.9 -4 2.8 -4 1.2z"/>
  <path d="M17 18.6 c0 -2 2.6 -4 3.5 -2.6 0.3 0.5 -0.1 1.3 -1 1.6 -1.3 0.6 -1.4 0.8 -0.3 1.5 1 0.7 0.9 0.9 -0.4 0.9 -1 0 -1.8 -0.6 -1.8 -1.4z"/>
 </g>
 <g fill="#fee6ad">
  <path d="M0 75 c0 -0.5 0.9 -1 2 -1 1.1 0 2 0.5 2 1 0 0.6 -0.9 1 -2 1 -1.1 0 -2 -0.4 -2 -1z"/>
  <path d="M32.3 67.3 c-1.8 -0.3 -2.3 -1.1 -2.3 -3.3 0 -1.6 0.4 -3.1 0.9 -3.4 0.5 -0.4 0.7 0.4 0.3 1.6 -0.4 1.6 -0.2 2 1 1.5 1 -0.3 1.5 0 1.4 1.1 0 0.9 1 1.9 2.4 2.3 1.9 0.5 2 0.7 0.5 0.7 -1.1 -0.1 -3 -0.3 -4.2 -0.5z"/>
  <path d="M45.5 58.1 c-0.3 -0.5 -0.1 -1.2 0.4 -1.5 1.2 -0.8 4.1 0.3 4.1 1.5 0 1.2 -3.7 1.2 -4.5 0z"/>
  <path d="M83.4 47.8 c2.3 -3.2 2 -5.2 -1.7 -12.1 -1.9 -3.4 -3.2 -7 -3 -7.9 0.6 -2.5 3.3 -2.3 3.3 0.2 0 1.1 0.4 2 0.9 2 0.5 0 1.3 1 1.7 2.2 0.3 1.2 1.3 2.8 2 3.6 0.9 0.8 1.4 3.7 1.4 7.8 l0 6.4 -3.1 0 c-2.9 0 -3 -0.1 -1.5 -2.2z"/>
  <path d="M40.5 48.3 c-3.5 -0.6 -4.5 -1.8 -4.5 -5.5 0 -5 2 -7.8 5.6 -7.8 2.1 0 3.4 0.6 3.9 1.8 0.6 1.5 0.8 1.4 1.6 -0.6 1.1 -2.8 4.4 -2.6 4.4 0.3 0 1.8 -0.7 2 -6.2 2 -4.5 0 -6.3 0.3 -6.3 1.3 0 2.1 2.9 7 4.7 8.1 1.9 1.1 1.8 1.1 -3.2 0.4z"/>
  <path d="M44.5 45.8 c-1.4 -1.1 -3 -2.8 -3.5 -3.8 -1 -1.8 -0.7 -1.9 4 -1.3 3.2 0.4 5.5 0.1 6.4 -0.6 2.4 -2 3 0.8 0.7 3.3 -1.2 1.2 -1.9 2.5 -1.6 2.8 0.3 0.3 -0.3 0.8 -1.4 1.1 -1.2 0.3 -3.1 -0.3 -4.6 -1.5z"/>
  <path d="M44.4 27.3 c-1.3 -4.9 -1 -15.6 0.4 -16 0.6 -0.3 1.2 -1.6 1.2 -2.9 0 -1.9 0.5 -2.4 2.5 -2.4 1.4 0 2.8 -0.7 3.1 -1.5 0.3 -0.8 2.1 -1.9 4.1 -2.6 4.4 -1.4 19.3 0.7 19.3 2.8 0 0.7 0.7 1.3 1.5 1.3 1.1 0 1.5 1.1 1.5 3.7 l0 3.7 -4 -4.2 c-6.2 -6.4 -10.5 -6.7 -21 -1.4 -4.8 2.4 -5.5 3.2 -5.5 5.7 -0.1 1.7 -0.5 3.8 -0.9 4.8 -0.6 1.2 -0.3 3.1 0.8 5.3 2.1 4.6 2 6.4 -0.4 6.4 -1.3 0 -2.2 -0.9 -2.6 -2.7z"/>
  <path d="M22 26.5 c0 -0.8 0.5 -1.5 1 -1.5 0.6 0 1 0.7 1 1.5 0 0.8 -0.4 1.5 -1 1.5 -0.5 0 -1 -0.7 -1 -1.5z"/>
  <path d="M55.1 24.3 c-0.1 -2.5 0.3 -3.2 2.2 -3.6 l2.2 -0.4 -2.2 -0.2 c-1.3 0 -2.3 -0.5 -2.3 -1.1 0 -2.7 11.3 2.5 11.8 5.4 0.3 1.7 0.2 1.8 -1.2 0.7 -1.3 -1.1 -1.6 -1.1 -1.6 0 0 1 -0.3 1 -0.8 0.3 -0.4 -0.6 -2.1 -1.5 -3.9 -1.8 -2.8 -0.6 -3.2 -0.4 -3.6 1.6 -0.3 1.8 -0.5 1.6 -0.6 -0.9z"/>
  <path d="M15.8 25.3 c1.2 -0.2 3 -0.2 4 0 0.9 0.3 -0.1 0.5 -2.3 0.4 -2.2 0 -3 -0.2 -1.7 -0.4z"/>
  <path d="M48.2 22.1 c-0.8 -2.2 -0.7 -3.4 0.3 -4.8 0.9 -1 1.4 -1.3 1.5 -0.5 0 0.6 0.7 1.2 1.5 1.2 2.1 0 2 5.6 -0.1 6.4 -2.2 0.8 -2.1 0.9 -3.2 -2.3z"/>
  <path d="M80.4 21.8 c0 -1.8 -0.4 -4.1 -0.8 -5 -0.7 -1.5 -0.3 -1.8 1.8 -1.8 2.3 0 2.6 0.4 2.6 3.5 0 1.9 -0.4 3.5 -1 3.5 -0.5 0 -1 0.7 -1 1.5 0 0.8 -0.4 1.5 -0.8 1.5 -0.5 0 -0.8 -1.5 -0.8 -3.2z"/>
  <path d="M62.7 13.2 l-3.9 -2.6 -4.4 2.4 c-3.5 1.8 -4.7 2.1 -5.7 1.1 -1.7 -1.7 1.7 -4.4 9 -7.1 6.3 -2.4 9.5 -2 13.1 1.2 3.4 3.3 2.8 4.6 -3.8 7.5 -0.3 0.1 -2.2 -1 -4.3 -2.5z"/>
  <path d="M19.5 8 c-0.3 -0.5 0.3 -1 1.4 -1 1.2 0 2.1 0.5 2.1 1 0 0.6 -0.6 1 -1.4 1 -0.8 0 -1.8 -0.4 -2.1 -1z"/>
  <path d="M22.5 5 c-0.4 -0.6 1.7 -1 5.7 -0.9 4.7 0.1 5.7 0.3 3.8 0.9 -3.6 1.2 -8.8 1.2 -9.5 0z"/>
  <path d="M23.3 1.3 c2.6 -0.2 6.8 -0.2 9.5 0 2.6 0.2 0.4 0.3 -4.8 0.3 -5.2 0 -7.4 -0.1 -4.7 -0.3z"/>
 </g>
 <g fill="#f1e5d0">
  <path d="M20.8 78.3 c-3.3 -0.8 -2 -3.3 1.7 -3.3 2.8 0 3.5 0.4 3.5 2 0 2 -1.4 2.3 -5.2 1.3z"/>
  <path d="M4.8 76.3 c-3.3 -0.8 -2 -3.3 1.7 -3.3 2.8 0 3.5 0.4 3.5 2 0 2 -1.4 2.3 -5.2 1.3z"/>
  <path d="M31.2 67.5 c-1.9 -2.4 -2 -5.9 -0.1 -7.1 0.5 -0.3 0.6 0.2 0.3 1 -0.7 1.9 2.5 5.6 5 5.6 2 0 2 0 0 1.5 -2.6 2 -3 1.9 -5.2 -1z"/>
  <path d="M40 67.6 c0 -1 0.9 -1.6 2.1 -1.6 2.4 0 2.1 2.3 -0.4 2.8 -1 0.2 -1.7 -0.3 -1.7 -1.2z"/>
  <path d="M86 67.7 c0 -0.8 0.3 -1.7 0.6 -2 0.4 -0.4 0.8 -3.4 0.9 -6.8 0.1 -5.8 -0.1 -6.3 -2.7 -7.9 -2.5 -1.5 -2.7 -1.9 -1.3 -3 2.1 -1.7 1.9 -6.9 -0.5 -10.5 -2.6 -3.9 -2.5 -4.5 0.5 -4.5 2.2 0 2.5 0.4 2.5 3.5 0 2.4 0.5 3.5 1.5 3.5 1.9 0 2.1 6.6 0.3 7.4 -1 0.5 -1 0.7 0 1.2 0.8 0.4 1.2 3.5 1.2 10.5 0 8.1 -0.3 9.9 -1.5 9.9 -0.8 0 -1.5 -0.6 -1.5 -1.3z"/>
  <path d="M61.8 63.4 c0.4 -2 -0.2 -3.2 -2.4 -5 -2.9 -2.4 -1.9 -3.3 1.7 -1.4 1.4 0.8 1.9 2.1 1.9 5 0 2.2 -0.4 4 -0.9 4 -0.4 0 -0.6 -1.2 -0.3 -2.6z"/>
  <path d="M39 60.4 l-2.5 -1.5 2.5 0.5 c1.4 0.3 3.6 0.6 5 0.6 2 0 2.2 0.2 1 1 -2 1.3 -3.1 1.2 -6 -0.6z"/>
  <path d="M46 57 c0 -1.3 1.1 -1.3 3 0 1.2 0.8 1.1 1 -0.7 1 -1.3 0 -2.3 -0.4 -2.3 -1z"/>
  <path d="M38 44 c0 -0.5 -0.7 -1 -1.5 -1 -2.2 0 -1.9 -5.3 0.5 -9.2 1.1 -1.8 2 -4.1 2 -5 0 -1 0.4 -1.8 1 -1.8 1.6 0 3.2 -4.1 2.5 -6.7 -0.5 -2 -1.1 -2.4 -3 -2 -1.4 0.2 -2.5 0.1 -2.5 -0.3 0 -0.4 1.8 -1 4.1 -1.4 3.2 -0.5 4 -1 3.5 -2.2 -0.3 -0.9 -0.6 -2.4 -0.6 -3.5 0 -1.5 -0.7 -1.9 -3.7 -1.9 l-3.8 -0.1 4.5 -4 c3.3 -2.9 3.9 -3.8 2.3 -3.4 -1.4 0.4 -2.3 0.2 -2.3 -0.4 0 -0.6 1.6 -1.1 3.5 -1.1 3.2 0 3.5 0.2 3.5 2.9 0 2.3 -0.5 3.1 -2.2 3.4 -2 0.4 -1.9 0.4 0.5 0.6 1.7 0.1 2.7 -0.4 2.7 -1.3 0 -1.5 2.1 -2.6 5.1 -2.6 1 0 1.9 -0.4 1.9 -1 0 -1.5 6.7 -1.2 7.4 0.3 0.5 0.9 0.7 0.9 1.2 0 0.6 -1.4 5.1 -1.7 7.8 -0.7 0.9 0.3 1.6 1.7 1.6 3 0 1.9 0.5 2.4 2.5 2.4 1.6 0 2.5 0.6 2.5 1.5 0 0.8 0.4 1.5 1 1.5 1.6 0 2.8 3.3 3.5 10.3 0.6 5.8 0.5 6.7 -0.9 6.7 -0.9 0 -1.6 0.7 -1.6 1.5 0 0.8 -0.5 1.5 -1.1 1.5 -1.1 0 -0.9 -1.8 0.6 -8.2 0.6 -2.1 -0.2 -3.9 -3.4 -8.7 -6.8 -10 -12.3 -11.4 -23.2 -5.9 -5.2 2.7 -6.4 3.8 -6.5 5.8 -0.1 1.4 -0.5 3.3 -0.9 4.3 -0.4 0.9 -0.5 2.6 -0.2 3.7 0.3 1.3 0 2 -0.8 2 -1.5 0 -2 1.4 -3 7.8 -0.6 3.7 -0.5 4.2 1.3 4.2 1.7 0 1.9 -0.5 1.4 -4.6 -0.4 -4.1 -0.3 -4.6 1.4 -4.2 1.3 0.2 1.9 1.2 2 3.1 0.1 1.5 0.9 3.6 1.9 4.7 1.7 1.9 1.7 2.2 0.2 3.7 -1.4 1.4 -1.8 1.4 -3.3 0.2 -1.5 -1.2 -1.7 -1.2 -0.9 0 0.7 1.2 0 1.3 -3.5 0.7 l-4.3 -0.7 0.6 3.6 c0.3 1.9 0.2 3.5 -0.4 3.5 -0.5 0 -0.9 -0.4 -0.9 -1z"/>
  <path d="M10 37.5 c0 -0.8 -0.4 -1.5 -1 -1.5 -0.5 0 -1 -1.6 -1 -3.5 0 -4.7 1.3 -4.4 4.4 0.9 3.2 5.5 3.2 5.6 0.1 5.6 -1.6 0 -2.5 -0.6 -2.5 -1.5z"/>
  <path d="M13.8 30.5 c-0.9 -1.9 -0.8 -3.4 0.2 -6.4 1.5 -4.7 5.9 -10.5 6 -7.9 0 0.9 -0.5 1.8 -1 2 -0.6 0.2 -0.1 0.9 1 1.6 1.8 1.1 2.1 1 3 -1.3 1 -2.6 4 -3.5 4 -1.2 0 2.1 -3.4 10.7 -4.2 10.7 -0.4 0 -0.9 -1.5 -0.9 -3.2 -0.1 -2.4 -0.3 -2.7 -0.6 -1 -0.4 1.8 -1.1 2.2 -3.9 2.2 -3.8 0 -4.2 0.9 -1.8 4.5 1 1.6 1.2 2.5 0.5 2.5 -0.6 0 -1.7 -1.1 -2.3 -2.5z"/>
  <path d="M50.5 31.9 c-0.4 -0.6 -0.5 -1.3 -0.2 -1.6 0.7 -0.7 2.7 0.6 2.7 1.8 0 1.2 -1.7 1.2 -2.5 -0.2z"/>
  <path d="M56 31.6 c-0.6 -0.8 -1 -3.4 -0.8 -5.7 0.3 -3.7 0.7 -4.4 2.8 -4.9 2.2 -0.5 2.3 -0.7 0.7 -1.3 -1.1 -0.4 -2.3 -0.5 -2.8 -0.1 -0.5 0.3 -0.9 0 -0.9 -0.5 0 -0.6 0.5 -1.1 1 -1.1 1.6 0 9.4 4.1 10.2 5.4 1.4 2 0.8 2.9 -0.8 1.5 -1.5 -1.2 -1.6 -1 -1 1.9 0.7 2.7 0.5 3.2 -1.1 3.2 -1 0 -2.8 0.7 -4 1.5 -1.8 1.3 -2.3 1.3 -3.3 0.1z m3.5 -6.6 c0 -0.8 -0.8 -1.6 -1.7 -1.8 -1.3 -0.2 -1.8 0.3 -1.8 1.8 0 1.5 0.5 2 1.8 1.8 0.9 -0.2 1.7 -1 1.7 -1.8z"/>
  <path d="M29.2 24.3 c0.2 -2.2 0.9 -2.9 3.1 -3.1 2.3 -0.3 2.7 0 2.7 2.1 0 2.4 -1.6 3.7 -4.6 3.7 -1.1 0 -1.4 -0.8 -1.2 -2.7z"/>
  <path d="M76 25.5 c0 -0.8 0.5 -1.5 1 -1.5 0.6 0 1 0.7 1 1.5 0 0.8 -0.4 1.5 -1 1.5 -0.5 0 -1 -0.7 -1 -1.5z"/>
  <path d="M6.5 19.4 c-0.4 -3.6 -0.5 -6.7 -0.3 -6.9 0.1 -0.2 2.4 -0.6 5.1 -1 4.6 -0.7 4.7 -0.7 4.7 2 0 2.8 0 2.8 -2.1 0.9 -2 -1.8 -2.1 -1.8 -3.5 0.1 -1.6 2.2 -1.9 6.1 -0.4 7 1.8 1.1 1.1 4.5 -0.9 4.5 -1.6 0 -2 -1.1 -2.6 -6.6z"/>
  <path d="M38 21.6 c0 -0.9 0.7 -1.6 1.6 -1.6 0.9 0 1.4 0.5 1.2 1.2 -0.6 1.8 -2.8 2.1 -2.8 0.4z"/>
  <path d="M11 17 c0 -1.3 0.5 -2 1.3 -1.7 0.6 0.2 1.2 1 1.2 1.7 0 0.7 -0.6 1.5 -1.2 1.8 -0.8 0.2 -1.3 -0.5 -1.3 -1.8z"/>
  <path d="M48.7 14.3 c-1.5 -1.5 -0.4 -2.5 5.6 -5.3 3.7 -1.8 7.8 -3 10.2 -3 l4 0 -4.4 2.5 c-2.3 1.4 -5 2.5 -6 2.5 -0.9 0 -2.9 0.9 -4.6 2 -3.3 2.2 -3.8 2.3 -4.8 1.3z"/>
  <path d="M21.1 12.3 c1.6 -1.8 5.5 -2.4 8.6 -1.2 2.4 0.9 2.6 1.2 1.1 2 -2.5 1.4 -10.9 0.7 -9.7 -0.8z"/>
  <path d="M16 2.5 c0 -2.2 0.4 -2.5 3.5 -2.5 1.9 0 3.5 0.5 3.5 1 0 0.6 -0.9 1 -2.1 1 -1.5 0 -1.9 0.5 -1.5 1.5 0.4 1 -0.1 1.5 -1.4 1.5 -1.5 0 -2 -0.7 -2 -2.5z"/>
 </g>
 <g fill="#f7c9fc">
  <path d="M62 88.5 c0 -0.8 0.6 -1.5 1.4 -1.5 1.6 0 2.6 -3 2.6 -7.7 0 -3.1 0.2 -3.3 3.4 -3.3 4 0 4.9 1.5 3.5 6.2 -1.2 4.4 -1.2 4.8 0.6 4.8 0.8 0 1.5 0.7 1.5 1.5 0 1.2 -1.4 1.5 -6.5 1.5 -5.1 0 -6.5 -0.3 -6.5 -1.5z"/>
  <path d="M84 88 c0 -0.5 0.9 -1 1.9 -1 2 0 2 -0.1 0 -5.7 -2.4 -7 -2.4 -8.3 0 -8.3 2.3 0 3.1 2.6 3.1 10.3 0 5.4 -0.1 5.7 -2.5 5.7 -1.4 0 -2.5 -0.4 -2.5 -1z"/>
  <path d="M60 81 c0 -2.2 -0.4 -4 -1 -4 -0.5 0 -1 -1.3 -1 -3 l0 -2.9 3 1.7 c3.1 1.8 3.8 4.7 2.4 10 -1.1 3.9 -3.4 2.7 -3.4 -1.8z"/>
  <path d="M85.7 68 c0.3 -1.1 0.9 -2 1.3 -2 0.5 0 1.1 -0.8 1.3 -1.7 0.3 -1 0.5 -0.1 0.6 2 0.1 3 -0.2 3.7 -1.8 3.7 -1.4 0 -1.8 -0.5 -1.4 -2z"/>
  <path d="M60.9 66.2 c1.8 -3.3 1.3 -5.8 -1.4 -7.6 -4.3 -2.8 -2.4 -5.7 4 -6.1 1.1 -0.1 4.8 -0.5 8.2 -0.9 8.9 -1.1 10 -0.5 10.1 5.3 0.2 6.5 -1.2 8 -8.3 9 -3.3 0.5 -7.7 1.2 -9.9 1.6 -3.6 0.7 -3.8 0.7 -2.7 -1.3z"/>
  <path d="M84.4 50.8 c-2 -0.9 -2.1 -1.2 -0.7 -2.8 2 -2.3 4.3 -1.5 4.3 1.6 0 2.6 -0.4 2.8 -3.6 1.2z"/>
 </g>
 <g fill="#f8f6f1">
  <path d="M0 95 c0 -4.7 0.4 -8 1 -8 0.6 0 1 3.2 1 7.5 0 4.3 0.4 7.5 1 7.5 0.6 0 1 -2.6 1.1 -5.7 l0.1 -5.8 1.5 5.8 c0.9 3.2 2.1 5.7 2.8 5.7 0.7 0 1.9 -2.5 2.8 -5.7 l1.5 -5.8 0.1 5.8 c0.1 3.1 0.6 5.7 1.1 5.7 0.6 0 1 -3.2 1 -7.5 l0 -7.5 22.5 0 22.6 0 -1.7 -3.2 c-0.9 -1.8 -2.7 -4.7 -3.9 -6.4 l-2.3 -3.1 2.9 -1.7 c2.8 -1.7 3 -1.7 5.6 0.4 2.3 1.8 2.7 2.8 2.5 6.3 -0.2 2.3 -0.5 5 -0.8 6 -0.5 1.6 0.6 1.7 12.6 1.7 12.2 0 13.2 -0.1 12.5 -1.7 -1.6 -4.1 -3.5 -10.9 -3.5 -12.8 0 -1.1 0.9 -3.1 2 -4.5 1.5 -1.9 2 -4.1 2 -9.1 0 -5.9 -0.2 -6.7 -2.4 -7.8 -2.2 -1.2 -2.3 -1.5 -1.1 -4.5 1.5 -3.5 0.5 -7 -3.5 -12.6 -2.1 -3 -2.7 -8.5 -1 -9.5 3.2 -2 -1.6 -12.4 -8.2 -18 -4.3 -3.6 -10.2 -3.4 -18.5 0.7 -5.6 2.7 -6.4 3.4 -6.2 5.7 0.2 1.4 -0.2 3.5 -0.8 4.5 -0.8 1.5 -0.6 3 0.8 6.4 1.1 2.4 1.7 4.8 1.4 5.3 -0.4 0.5 0.1 2.4 1 4.3 2.4 5 1.4 6 -5.8 5.1 -5.3 -0.6 -5.9 -0.4 -5.3 1 0.3 0.9 0.6 2 0.6 2.5 0 0.5 1.1 2.1 2.4 3.7 l2.4 2.9 -3.4 -0.1 c-3.6 -0.2 -9.4 -4.6 -9.4 -7.2 0 -0.8 1.8 -3.1 4 -5.2 2.2 -2.1 4 -4.6 4 -5.5 0 -0.9 1 -3 2.1 -4.6 2.9 -3.9 2 -8.4 -1.6 -7.7 -2.7 0.5 -3.3 -1.1 -1.3 -3.1 0.9 -0.9 0.7 -1.7 -1 -3.5 l-2.2 -2.4 5 -3.4 c2.7 -1.9 5 -3.6 5 -3.9 0 -0.3 -5.9 -0.5 -13 -0.5 -12 0 -13.1 0.1 -12.6 1.7 0.3 1.3 -0.2 1.8 -1.7 1.8 -2 0 -2.2 0.4 -1.8 5.7 0.3 5.3 0.2 5.5 -1.4 4 -2 -2.1 -2.9 -2.1 -4.5 -0.2 -0.8 0.9 -1 2.7 -0.6 4.7 0.4 1.8 0.8 5.4 0.9 7.9 0.2 2.7 1.2 5.8 2.5 7.6 1.2 1.7 2.2 3.3 2.2 3.5 0 0.2 -3.1 1.9 -7 3.8 -3.8 1.9 -7 4 -7 4.8 0 0.9 2 0.2 6.6 -2.3 l6.5 -3.7 2.5 2.7 2.5 2.8 -2.4 5.6 c-3.5 8.1 -4.2 14.7 -2.2 19.9 1 2.3 2 4.2 2.4 4.2 1.5 0 5.5 -5.5 6.1 -8.4 0.6 -2.8 0.8 -2.9 1.5 -1.1 0.4 1.1 1.9 3.2 3.3 4.7 2.3 2.5 2.4 3 1.2 5.4 -1.6 2.8 -0.2 2.8 -20.2 0.2 l-8.8 -1.2 0 -37.8 0 -37.8 44.5 0 44.5 0 0 51.5 0 51.5 -44.5 0 -44.5 0 0 -8z m22.9 5.6 c1.7 -2 1 -7.7 -1.1 -9 -2.6 -1.6 -5.2 0.4 -5.6 4.3 -0.4 3.6 1.2 6.1 3.8 6.1 1 0 2.3 -0.6 2.9 -1.4z m5.9 -0.6 c0.7 -1.1 1.7 -2 2.2 -2 0.6 0 1 0.9 1 2 0 1.1 0.5 2 1 2 0.6 0 1 -2.5 1 -5.6 l0 -5.5 -3.7 0.3 c-3.1 0.2 -3.9 0.7 -4.1 2.6 -0.2 1.3 0.3 2.4 1.2 2.8 1.4 0.5 1.4 0.8 0.1 2.1 -0.8 0.8 -1.5 1.9 -1.5 2.4 0 1.6 1.5 1 2.8 -1.1z m17.9 0.5 c0.7 -2.1 -0.6 -3.3 -1.6 -1.6 -1.2 1.9 -3.1 0.4 -3.1 -2.4 0 -2.8 1.9 -4.3 3.1 -2.4 0.4 0.7 1.1 1 1.5 0.6 0.4 -0.4 0 -1.5 -0.9 -2.5 -1.3 -1.3 -2.1 -1.4 -3.5 -0.6 -2.1 1.3 -2.8 7 -1.1 9 1.5 1.9 4.8 1.8 5.6 -0.1z m9.3 0.1 c1 -1.3 0.7 -1.5 -1.6 -1.3 -1.5 0.1 -2.9 -0.4 -3.1 -1 -0.3 -0.9 0.6 -1.3 2.6 -1.3 3.3 0 3.7 -0.9 2.1 -4.1 -2.3 -4.1 -7 -1.2 -7 4.3 0 4.3 4.4 6.4 7 3.4z m5.1 -2.3 c0.1 -3.9 0.3 -3.8 1.3 1 0.9 3.8 2.2 3.4 3.4 -1 l1 -3.8 0.1 3.8 c0.2 5.9 2.1 4.3 2.1 -1.8 0 -4 -0.4 -5.5 -1.4 -5.5 -1.5 0 -2.6 2.1 -2.6 5.1 0 3.2 -1.7 2.1 -2.4 -1.6 -0.4 -2.1 -1.3 -3.5 -2.1 -3.5 -1.1 0 -1.5 1.4 -1.5 5.5 0 6.1 2 7.7 2.1 1.8z m16 2.1 c1.6 -2 0.1 -4.8 -3 -5.2 -1.3 -0.2 -2.1 -1.1 -2.1 -2.3 0 -1 -0.4 -1.9 -1 -1.9 -0.5 0 -1 2.5 -1 5.5 0 5.4 0.1 5.5 2.9 5.5 1.6 0 3.4 -0.7 4.2 -1.6z m5.7 -0.4 c0.7 -1.1 1.7 -2 2.2 -2 0.6 0 1 0.9 1 2 0 1.1 0.5 2 1 2 0.6 0 1 -2.5 1 -5.6 l0 -5.5 -3.7 0.3 c-3.1 0.2 -3.9 0.7 -4.1 2.6 -0.2 1.3 0.3 2.4 1.2 2.8 1.4 0.5 1.4 0.8 0.1 2.1 -0.8 0.8 -1.5 1.9 -1.5 2.4 0 1.6 1.5 1 2.8 -1.1z"/>
  <path d="M18.4 98.6 c-0.9 -2.3 0 -5.1 1.6 -5.1 1 0 1.5 1 1.5 2.9 0 3.2 -2.1 4.7 -3.1 2.2z"/>
  <path d="M28 94.5 c0 -0.8 0.9 -1.5 2 -1.5 1.1 0 2 0.7 2 1.5 0 0.8 -0.9 1.5 -2 1.5 -1.1 0 -2 -0.7 -2 -1.5z"/>
  <path d="M51.8 93.8 c0.9 -0.9 1.5 -0.9 2.4 0 0.9 0.9 0.7 1.2 -1.2 1.2 -1.9 0 -2.1 -0.3 -1.2 -1.2z"/>
  <path d="M72 98.5 c0 -0.8 0.9 -1.5 2 -1.5 1.1 0 2 0.7 2 1.5 0 0.8 -0.9 1.5 -2 1.5 -1.1 0 -2 -0.7 -2 -1.5z"/>
  <path d="M82 94.5 c0 -0.8 0.9 -1.5 2 -1.5 1.1 0 2 0.7 2 1.5 0 0.8 -0.9 1.5 -2 1.5 -1.1 0 -2 -0.7 -2 -1.5z"/>
  <path d="M6.9 93.6 l-1.6 -6.6 3.2 0 3.3 0 -1.4 5.8 c-0.8 3.1 -1.6 6.1 -1.7 6.6 -0.2 0.4 -1 -2.2 -1.8 -5.8z"/>
  <path d="M40.2 67.9 c0.2 -0.7 1 -1.5 1.7 -1.7 0.8 -0.3 1.2 0.1 0.9 0.9 -0.2 0.7 -1 1.5 -1.7 1.7 -0.8 0.3 -1.2 -0.1 -0.9 -0.9z"/>
  <path d="M22.5 49.8 c0.7 -3.4 2.5 -6.2 2.5 -4 0 0.9 0.7 0.8 2.3 -0.3 2.2 -1.4 2.5 -1.4 4.1 0.4 1.7 1.8 1.7 1.9 -0.3 2.6 -1.1 0.3 -2.3 1.5 -2.6 2.6 -0.4 1.3 -1.5 1.9 -3.6 1.9 -2.9 0 -3 -0.2 -2.4 -3.2z"/>
  <path d="M25.7 44.3 c-1.3 -1.3 -0.7 -3.1 1.3 -3.6 1.2 -0.3 2 0 2 0.8 0 1.6 -2.5 3.7 -3.3 2.8z"/>
  <path d="M17.1 41.1 c-1 -1.7 -0.9 -2.1 0.3 -2.1 2 0 2.7 1.3 1.6 2.9 -0.6 1.1 -1 0.9 -1.9 -0.8z"/>
  <path d="M22 23.9 c0 -2.5 2.1 -7.9 3.2 -7.9 1 0 0.3 3.2 -1.8 7 -0.9 1.6 -1.3 1.9 -1.4 0.9z"/>
  <path d="M29 24.1 c0 -1.6 2.7 -3.1 4.4 -2.5 2 0.8 2.1 2 0 2.8 -2.3 0.9 -4.4 0.7 -4.4 -0.3z"/>
  <path d="M14.9 21.8 c0.9 -2.5 2.9 -3.3 5 -1.9 2.3 1.5 0.5 4.1 -2.8 4.1 -2.7 0 -2.9 -0.2 -2.2 -2.2z"/>
  <path d="M21 12.5 c0.7 -0.8 2.4 -1.5 3.8 -1.5 3.2 0 2.5 0.8 -1.7 2 -2.8 0.8 -3.1 0.7 -2.1 -0.5z"/>
  <path d="M49.2 12.8 c0.5 -1.6 10.6 -6.7 13.3 -6.8 1.2 0 -0.8 1.7 -4.8 4 -7.2 4.2 -9.1 4.8 -8.5 2.8z"/>
 </g>
</svg>