<?xml version="1.0" encoding="UTF-8" standalone="yes"?>
<!-- Created with sK1/UniConvertor (http://sk1project.org/) -->
<svg xmlns="http://www.w3.org/2000/svg" xmlns:xlink="http://www.w3.org/1999/xlink"
  width="89pt" height="103pt" viewBox="0 0 89 103"
  fill-rule="evenodd">
<g>
<g>
<path style="stroke:none; fill:#000000" d="M 38.9 4.7L 36.5 7.3L 39.8 4.99999C 43.1 2.49999 43.6 1.99999 42.2 1.99999C 41.7 1.99999 40.3 3.2 38.9 4.7z"/>
<path style="stroke:none; fill:#000000" d="M 34.1 8.3C 33.3 9.39999 33.7 10.2 35.8 12.1L 38.5 14.5L 36.3 11.9C 34.5 10 34.3 9.1 35.2 8.2C 35.9 7.50001 36.1 7.00001 35.8 7.00001C 35.5 7.00001 34.7 7.59999 34.1 8.3z"/>
<path style="stroke:none; fill:#000000" d="M 17.1 9.6C 17.1 10.7 17.4 11 17.7 10.2C 18 9.5 17.9 8.6 17.6 8.3C 17.3 7.89999 17 8.49999 17.1 9.6z"/>
<path style="stroke:none; fill:#000000" d="M 10.7 14.7C 10.3 15 10 15.8 10 16.4C 10 17 10.5 16.8 11.1 16C 11.9 14.7 12.3 14.8 13.7 16.8C 15.2 18.9 15.3 18.9 16.6 17.3C 17.3 16.3 17.9 15 17.9 14.5C 17.9 13.9 17.3 14.4 16.5 15.4C 15.2 17.1 15 17.1 14.4 15.7C 13.8 14 11.9 13.5 10.7 14.7z"/>
<path style="stroke:none; fill:#000000" d="M 34.6 16.9C 35 17.8 35.5 21.3 35.8 24.8C 36.2 30.4 36 31.4 33.9 33.7C 30.7 37.1 25.6 39.2 22.2 38.4C 16.5 37 11.4 29.8 13.1 25.3C 13.8 23.5 13.5 22.5 12 21C 10.5 19.5 10 19.4 10 20.4C 10 21.2 10.4 22.1 10.9 22.5C 11.4 22.8 11.6 24.5 11.3 26.4C 10.6 31 13.2 35.6 18.6 38.8C 22.8 41.4 24.1 43 22 43C 21.5 43 21 42.5 21 41.8C 21 40.9 20.7 40.9 19.8 41.8C 18.9 42.7 18.9 43.6 19.8 45.5C 21.4 49.1 21.3 53.5 19.5 55C 18.7 55.7 18 57.1 18 58.1C 18 59.2 17.6 60 17.1 60C 16.2 60 17 55.6 18.5 51.5C 19.1 50.1 19 49.8 18.2 50.5C 16.5 52.1 14 60.8 14 64.9C 14 68.8 15.7 75 16.8 75C 17.1 75 18.6 73.8 20.1 72.4C 22.4 70.2 22.7 69.2 22.4 65.2C 22 61 22.1 60.8 23.1 63.2C 23.7 64.8 24.6 66 25 66C 25.5 66 27.5 67.4 29.5 69.1L 33 72.2L 30.5 75.2C 29.1 76.8 28 78.5 28 78.9C 28 79.3 25.5 79.5 22.5 79.2C 17.9 78.8 17 79 17 80.4C 17 81.5 16.1 82 14.4 82C 12.3 82 11.9 81.6 12.3 80C 12.7 78.4 12.2 78 9.1 77.5C 7.1 77.1 4.5 76.7 3.3 76.4C 2 76.2 0.999995 76.4 0.999995 76.9C 0.999995 77.4 2.2 78 3.8 78.2C 5.3 78.4 6.4 78.9 6.2 79.5C 6 80 4.8 80.4 3.5 80.2C 2.1 80 0.999995 80.3 0.999995 80.9C 0.999995 81.5 2.9 82 5.3 82C 10.8 82 14 84.1 12.4 86.7C 11.7 87.8 10.6 91.3 9.9 94.5L 8.6 100.4L 7 94C 5.9 89.5 4.9 87.4 3.7 87.2C 2.2 86.9 2 87.8 2 94.4C 2 98.8 2.4 102 3 102C 3.6 102 4 99.4 4.1 96.2L 4.2 90.5L 5.7 96.2C 6.6 99.5 7.8 102 8.5 102C 9.2 102 10.4 99.5 11.3 96.2L 12.8 90.5L 12.9 96.2C 13 99.4 13.5 102 14 102C 14.6 102 15 98.8 15 94.5L 15 87L 21.4 87L 27.7 87L 28.3 83.3C 28.9 79.6 33.3 74 35.7 74C 36.5 74 37.3 74.7 37.7 75.5C 38.3 77.3 43.1 80 45.6 80C 46.6 80 48.1 79.3 49.1 78.4C 51.3 76.4 52.5 77.1 56.1 82.8C 57.7 85.3 59 87.1 59 86.7C 59 85 55 78.3 52.7 76.2L 50.2 73.8L 54 70.4C 58 66.8 59.6 66.1 58.7 68.4C 58.4 69.2 59.1 70.6 60.3 71.7C 62.2 73.2 62.3 73.2 61.1 71.8C 60.4 70.8 60 68.7 60.2 67.1C 60.5 65 60.3 64.3 59.3 64.7C 58.5 65 58 64.4 58 62.9C 57.9 61 57.5 61.4 55.7 65C 53.9 68.6 52.6 69.9 48.9 71.4C 42.3 74.1 35.7 73 31.4 68.5C 29.7 66.7 27.5 65 26.4 64.8C 25.3 64.6 24.4 63.5 24.2 62.1C 23.9 60.1 24.2 59.8 26 60.3C 27.4 60.6 28 60.4 27.7 59.7C 27.5 59 25.7 58.4 23.7 58.2C 21.7 58 20 57.5 20 57.1C 20 55.5 22.5 54 25.2 54C 27.3 54 28 54.5 28 55.9C 28 58 32 59 40.3 59C 43.8 59 45 58.6 45 57.5C 45 55.5 49.6 55.5 50.8 57.6C 52.1 59.9 57.3 58.4 56.5 55.9C 56.1 54.6 56.7 53.7 58.8 52.6C 60.4 51.8 62 51.3 62.2 51.6C 62.5 51.9 65.8 51.6 69.5 51C 79 49.5 82 50.3 82.1 54.3C 82.2 56.7 82.4 56.9 82.7 55.2C 83.2 52.7 84 52.4 85.8 54.2C 86.7 55.1 87 55.1 87 53.9C 87 52.5 80.8 49 78.4 49C 77 49 70.7 44.3 69.7 42.5C 69.2 41.5 69.6 40 70.9 38.1C 73.7 34.1 75 30.6 74 29C 73.5 28.1 73 28.7 72.5 30.8C 71.6 35.2 66.7 40.2 64.3 39.3C 61 38.1 57.1 34.9 55.3 32C 54.4 30.3 53.1 29 52.6 29C 52.1 29 52.4 29.8 53.3 30.8C 55.7 33.4 55.4 34.3 52.5 33.8C 50.6 33.4 50.2 33.6 51 34.5C 51.6 35.2 52.8 35.6 53.8 35.4C 56 34.9 61.7 39.9 62 42.5C 62.4 46.4 62 47.8 59.3 50.4L 56.7 53L 55.6 50.8C 54.5 48.7 53.8 48.5 45.4 48.5C 38.8 48.5 35.8 48.1 34.5 47C 33.5 46.2 32.9 46 33.3 46.6C 33.7 47.3 33.1 48 31.9 48.3C 30.8 48.6 29.6 49.8 29.3 50.9C 28.9 52.5 28 53 25.4 53C 22.3 53 22 52.7 22 50.1C 22 48.5 22.7 46.7 23.5 46C 24.4 45.2 24.8 43.9 24.4 42.4C 23.9 40.3 24.1 40 26.7 40C 30.8 40 38 33.8 38 30.2C 38 28.6 38.8 27 40 26.2C 41.3 25.4 42 23.9 42 22.1C 42 18.6 40.5 17.3 38.5 19C 37.3 20 37 19.9 36.9 18.4C 36.8 17.3 36.8 16.2 36.8 15.9C 36.9 15.6 36.2 15.3 35.4 15.3C 34.4 15.3 34.1 15.9 34.6 16.9zM 41 20.9C 41 23.9 39.9 26 38.4 26C 36.7 26 36.5 21.9 38.2 20.2C 39.9 18.5 41 18.7 41 20.9zM 68 42.3C 68 43.1 68.9 44.5 70 45.5C 72.6 47.8 71.1 49 65.6 49C 62.5 49 61.9 48.7 62.8 47.8C 63.5 47.1 64 45.3 64 43.8C 64 41.7 64.5 41 66 41C 67.1 41 68 41.6 68 42.3zM 38.2 49.9C 40.4 50.4 43.7 50.4 46.1 49.9C 50.8 48.8 54 49.5 54 51.6C 54 52.7 52.2 53 45.6 53C 38 53 37.1 53.2 36.5 55C 36.1 56.4 35 57 32.9 57C 30.4 57 30 56.6 30 54.2C 30 51.3 31.6 49 33.5 49C 34 49 36.2 49.4 38.2 49.9zM 47.8 75.8C 47.4 77.9 42.5 78.6 40.4 76.9C 38.1 75 38.7 74.5 43.6 74.3C 47.3 74.2 48.1 74.4 47.8 75.8z"/>
<path style="stroke:none; fill:#000000" d="M 29.8 19.7C 30.5 20 31.4 19.9 31.7 19.6C 32.1 19.3 31.5 19 30.4 19.1C 29.3 19.1 29 19.4 29.8 19.7z"/>
<path style="stroke:none; fill:#000000" d="M 28.1 22.6C 28.1 23.7 28.4 24 28.7 23.2C 29 22.5 28.9 21.6 28.6 21.3C 28.3 20.9 28 21.5 28.1 22.6z"/>
<path style="stroke:none; fill:#000000" d="M 68 24C 66.7 24.8 66.8 25 68.3 25C 69.2 25 70 24.5 70 24C 70 22.8 69.9 22.8 68 24z"/>
<path style="stroke:none; fill:#000000" d="M 75.3 23.7C 74.6 23.9 74 24.7 74 25.3C 74 26.1 74.4 26 75.2 25.2C 75.9 24.5 76.8 24 77.2 24C 78.4 24 78.2 27.8 77 28.5C 76.5 28.8 76 29.7 76 30.3C 76.1 32.5 79 27.6 79 25.3C 79 23.1 77.9 22.6 75.3 23.7z"/>
<path style="stroke:none; fill:#000000" d="M 58 24.9C 58 25.6 57.5 25.8 56.8 25.4C 56.1 24.9 56 25.1 56.5 25.9C 57 26.8 57.5 26.9 58.3 26.1C 58.9 25.5 59.1 24.7 58.7 24.3C 58.3 24 58 24.2 58 24.9z"/>
<path style="stroke:none; fill:#000000" d="M 26.7 27C 26.2 29.1 22.6 29.8 21.5 28C 21.2 27.4 20.1 27.1 19.2 27.1C 17.7 27.2 17.7 27.3 19.3 27.7C 20.2 27.9 21 28.8 21 29.6C 21 30.5 22.1 31 24 31C 26.3 31 27.1 30.5 27.6 28.5C 28 27.1 28 25.7 27.7 25.4C 27.5 25.1 27 25.8 26.7 27z"/>
<path style="stroke:none; fill:#000000" d="M 49.3 29.5C 49 30.4 49 31.3 49.2 31.6C 49.5 31.9 50 31.2 50.3 30C 50.9 27.7 50.2 27.3 49.3 29.5z"/>
<path style="stroke:none; fill:#000000" d="M 63.8 31.7C 64.5 32 65.4 31.9 65.7 31.6C 66.1 31.3 65.5 31 64.4 31.1C 63.3 31.1 63 31.4 63.8 31.7z"/>
<path style="stroke:none; fill:#000000" d="M 19 33.4C 19 35.8 23.2 37.5 25.9 36.1C 28.1 34.9 28.8 33 26.9 33C 26.4 33 26.1 33.4 26.5 33.9C 26.8 34.4 26 35.2 24.8 35.6C 23.2 36.1 22.1 35.7 20.8 34C 19.4 32.3 19 32.1 19 33.4z"/>
<path style="stroke:none; fill:#000000" d="M 64.8 33.7C 65.5 34 66.4 33.9 66.7 33.6C 67.1 33.3 66.5 33 65.4 33.1C 64.3 33.1 64 33.4 64.8 33.7z"/>
<path style="stroke:none; fill:#000000" d="M 65.5 36C 63.9 36.7 63.8 36.9 65.2 36.9C 66.1 37 67.2 36.5 67.5 36C 68.2 34.9 68.2 34.9 65.5 36z"/>
<path style="stroke:none; fill:#000000" d="M 59.8 60.8C 61.8 63 62.3 62.9 61.4 60.6C 61.1 59.7 60.2 59 59.4 59C 58.3 59 58.4 59.4 59.8 60.8z"/>
<path style="stroke:none; fill:#000000" d="M 84 60.9C 84 61.4 84.5 62.2 85 62.5C 85.6 62.9 85.8 64.1 85.5 65.3L 85 67.5L 86.1 65.3C 87 63.5 86.9 62.8 85.6 61.5C 84.7 60.6 84 60.3 84 60.9z"/>
<path style="stroke:none; fill:#000000" d="M 35 64C 36.1 64.7 36.1 65 35.2 65C 34.5 65 34.2 65.5 34.5 66C 35.3 67.3 37 66.3 37 64.4C 37 63.6 36.2 63 35.3 63C 33.8 63 33.7 63.2 35 64z"/>
<path style="stroke:none; fill:#000000" d="M 48.1 64.6C 48.1 65.7 48.4 66 48.7 65.2C 49 64.5 48.9 63.6 48.6 63.3C 48.3 62.9 48 63.5 48.1 64.6z"/>
<path style="stroke:none; fill:#000000" d="M 44.4 69.1C 44.1 69.7 42.6 69.9 41.1 69.6C 39 69.1 38.8 69.2 40.3 70C 42.2 71.2 46 70.5 46 68.9C 46 67.7 45.3 67.8 44.4 69.1z"/>
<path style="stroke:none; fill:#000000" d="M 83.5 69C 83.2 69.5 81.9 70.1 80.7 70.1C 79.1 70.2 79 70.4 80.2 70.7C 81.1 70.9 82.1 72.1 82.3 73.3C 82.7 75.3 82.7 75.2 82.9 72.9C 82.9 71.5 83.5 69.9 84.2 69.2C 84.9 68.5 85.1 68 84.8 68C 84.4 68 83.8 68.4 83.5 69z"/>
<path style="stroke:none; fill:#000000" d="M 64.7 78.9C 64.4 80.5 63.8 83.1 63.5 84.6C 63.1 86.7 63.2 87.1 63.8 86C 64.9 84.3 66.4 76 65.7 76C 65.5 76 65 77.3 64.7 78.9z"/>
<path style="stroke:none; fill:#000000" d="M 83.6 79C 84 80.9 84.8 83.6 85.6 85C 87.4 88.5 87.3 87.4 85 81C 83.6 77.2 83.2 76.6 83.6 79z"/>
<path style="stroke:none; fill:#000000" d="M 32.1 82.5C 32 84.6 33.6 87.8 34.3 87C 34.5 86.7 34.1 85.1 33.4 83.5C 32.4 81.2 32.1 81 32.1 82.5z"/>
<path style="stroke:none; fill:#000000" d="M 49.5 85C 48.5 86.1 48.2 87 48.8 87C 49.4 87 50.4 86.1 51 85C 51.6 83.9 51.9 83 51.7 83C 51.5 83 50.5 83.9 49.5 85z"/>
<path style="stroke:none; fill:#000000" d="M 17.1 92.4C 15.4 94.4 16.1 100.1 18.3 101.4C 20.8 103 23.4 101 23.8 97.1C 24.2 93.5 22.6 91 20 91C 19 91 17.7 91.6 17.1 92.4zM 21.5 96.6C 21.5 98.5 21 99.5 20 99.5C 18.4 99.5 17.5 96.7 18.4 94.4C 19.4 91.9 21.5 93.4 21.5 96.6z"/>
<path style="stroke:none; fill:#000000" d="M 26.7 91.7C 25.5 92.9 26 96.1 27.5 96.6C 28.8 97.1 28.8 97.4 27.5 98.7C 26.7 99.5 26 100.6 26 101.1C 26 102.7 27.5 102.1 28.8 100C 30.4 97.4 32 97.4 32 100C 32 101.1 32.5 102 33 102C 33.6 102 34 99.5 34 96.5L 34 91L 30.7 91C 28.8 91 27 91.3 26.7 91.7zM 32 94.5C 32 95.3 31.1 96 30 96C 28.9 96 28 95.3 28 94.5C 28 93.7 28.9 93 30 93C 31.1 93 32 93.7 32 94.5z"/>
<path style="stroke:none; fill:#000000" d="M 41.2 92.2C 39.6 93.8 39.6 99.2 41.2 100.8C 42.9 102.5 46 102.3 46.7 100.5C 47.4 98.4 46.1 97.2 45.1 98.9C 43.9 100.8 42 99.3 42 96.5C 42 93.7 43.9 92.2 45.1 94.1C 45.5 94.8 46.2 95.1 46.6 94.7C 47.5 93.9 45.2 91 43.6 91C 42.9 91 41.9 91.5 41.2 92.2z"/>
<path style="stroke:none; fill:#000000" d="M 50 92.9C 46.9 98.8 52 105.3 56 100.6C 57 99.3 56.7 99.1 54.4 99.3C 52.9 99.4 51.5 98.9 51.3 98.2C 51 97.4 51.9 97 53.9 97C 55.6 97 57 96.5 57 95.9C 57 93.7 54.8 91 53 91C 51.9 91 50.6 91.9 50 92.9zM 54.5 94C 54.8 94.5 54.2 95 53 95C 51.8 95 51.2 94.5 51.5 94C 51.8 93.4 52.5 93 53 93C 53.5 93 54.2 93.4 54.5 94z"/>
<path style="stroke:none; fill:#000000" d="M 59 96.5C 59 102.6 61 104.2 61.1 98.2C 61.2 94.4 61.4 94.5 62.4 99.2C 63.3 103.1 64.6 102.7 65.8 98.3L 66.8 94.5L 66.9 98.2C 67.1 104.2 69 102.6 69 96.5C 69 92.5 68.6 91 67.6 91C 66.1 91 65 93.1 65 96.1C 65 99.3 63.3 98.2 62.6 94.5C 62.2 92.4 61.3 91 60.5 91C 59.4 91 59 92.4 59 96.5z"/>
<path style="stroke:none; fill:#000000" d="M 70 96.5C 70 101.9 70.1 102 72.9 102C 78.5 102 79.6 96 74.1 95.2C 72.8 95 72 94.1 72 92.9C 72 91.9 71.6 91 71 91C 70.5 91 70 93.5 70 96.5zM 76 98.5C 76 99.3 75.1 100 74 100C 72.9 100 72 99.3 72 98.5C 72 97.7 72.9 97 74 97C 75.1 97 76 97.7 76 98.5z"/>
<path style="stroke:none; fill:#000000" d="M 80.7 91.7C 79.5 92.9 80 96.1 81.5 96.6C 82.8 97.1 82.8 97.4 81.5 98.7C 80.7 99.5 80 100.6 80 101.1C 80 102.7 81.5 102.1 82.8 100C 84.4 97.4 86 97.4 86 100C 86 101.1 86.5 102 87 102C 87.6 102 88 99.5 88 96.5L 88 91L 84.7 91C 82.8 91 81 91.3 80.7 91.7zM 86 94.5C 86 95.3 85.1 96 84 96C 82.9 96 82 95.3 82 94.5C 82 93.7 82.9 93 84 93C 85.1 93 86 93.7 86 94.5z"/>
</g>
</g>
</svg>