<?xml version="1.0" encoding="UTF-8" standalone="yes"?>
<!-- Created with sK1/UniConvertor (http://sk1project.org/) -->
<svg xmlns="http://www.w3.org/2000/svg" xmlns:xlink="http://www.w3.org/1999/xlink"
  width="71.2pt" height="82.4pt" viewBox="0 0 71.2 82.4"
  fill-rule="evenodd">
<g>
<path style="stroke:none; fill:#f8f3eb" d="M 0 0L 0 60.8C 7.70428 61.1308 20.6017 66.9368 24.8 58.4C 21.9008 56.2188 20.2146 53.5146 18.4 50.4L 17.6 50.4C 18.045 55.1051 16.5869 57.9595 12.8 60.8C 10.2307 51.1891 11.863 45.7028 16 36.8C 14.4664 35.5384 13.2616 34.3336 12 32.8C 7.93402 33.996 4.5182 36.421 0.8 38.4C 2.99446 34.533 8.01336 32.8598 12 31.2C 9.8084 24.2744 6.1719 17.8362 8.8 10.4L 12.8 12.8C 13.7051 9.70889 13.3825 7.13931 12.8 4C 14.9909 3.83147 15.5376 3.75798 16 1.6C 22.5574 2.81739 28.6335 1.61812 35.2 1.6L 35.2 2.4C 32.5592 3.71428 30.3134 5.3702 28 7.2L 28 8C 29.877 10.5908 30.0102 12.0659 29.6 15.2C 36.3186 15.4967 32.2354 22.0318 30.1611 25.6C 28.894 27.7797 25.9602 29.5735 25.4006 32.0716C 24.093 37.9098 32.2986 38.7714 36 39.2L 36 38.4C 33.185 36.1891 31.8382 33.9229 31.2 30.4C 42.3774 33.0611 39.0759 28.6622 39.2 20.8L 40 20.8C 40.7842 22.2266 40.7261 22.0754 42.4 22.4L 42.4 14.4L 39.2 12.8C 38.2759 15.0868 38.2118 16.7424 38.4 19.2L 37.6 19.2C 37.1318 16.2139 37.5275 14.0716 38.4 11.2C 41.7377 11.8174 44.0916 9.14448 47.2 9.6352C 53.5306 10.6345 54.2882 16.2398 61.6 13.6L 60 18.4L 63.2 18.4C 62.8738 12.3687 59.0346 7.33601 53.6 4.8L 53.6 4C 64.7315 8.34856 61.6806 16.0935 63.5179 24.8C 64.8833 31.2698 68.9853 33.2265 65.6 40C 68.2646 41.0645 69.5491 42.0348 70.4 44.8L 67.2 43.2L 67.2 46.4L 69.6 46.4C 69.8925 55.5438 66.8045 60.2794 70.4 69.6L 55.2 69.6C 55.9914 66.609 56.7271 63.9134 56.8 60.8C 51.5428 61.6774 53.6645 67.1134 49.6 69.6C 50.7194 66.0688 51.1898 62.9018 51.2 59.2C 49.265 58.3328 48.0098 57.4065 46.4 56L 45.6 56L 41.6 59.2L 48 69.6L 12 69.6L 12 81.6L 10.4 81.6L 10.4 72.8L 9.6 72.8L 8 81.6L 5.6 81.6L 4 72.8L 3.2 72.8L 3.2 81.6L 1.6 81.6L 0.8 64.8L 0 64.8L 0 82.4L 71.2 82.4L 71.2 0L 0 0z"/>
<path style="stroke:none; fill:#df6c46" d="M 16 1.6L 16 4L 16.8 4C 16.599 2.83874 16.5478 2.59868 16 1.6z"/>
<path style="stroke:none; fill:#e29f43" d="M 16.8 1.6C 15.7446 3.58906 14.1121 4.64437 12.8 6.4C 16.1095 5.81013 17.4766 4.90664 18.4 1.6L 16.8 1.6M 26.4 2.4C 26.9198 3.43975 26.5174 3.2 28 3.2L 28 4L 22.4 4.8L 22.4 5.6C 26.736 5.89146 29.7602 5.73594 32 1.6C 30.0464 1.68761 28.3018 1.94239 26.4 2.4z"/>
<path style="stroke:none; fill:#df6c46" d="M 32 1.6C 30.0397 4.02065 27.1438 5.56113 27.2 8.8C 29.7383 6.52172 32.331 4.30758 34.4 1.6L 32 1.6z"/>
<path style="stroke:none; fill:#e29f43" d="M 34.4 1.6L 35.2 2.4L 34.4 1.6z"/>
<path style="stroke:none; fill:#df6c46" d="M 18.4 2.4L 18.4 3.2L 26.4 3.2C 23.8694 2.13811 21.1315 2.4003 18.4 2.4z"/>
<path style="stroke:none; fill:#c0a292" d="M 33.6 2.4L 34.4 3.2L 33.6 2.4z"/>
<path style="stroke:none; fill:#f8f3eb" d="M 17.6 3.2L 17.6 4.8L 28 4C 24.833 2.6711 21.0107 3.2 17.6 3.2z"/>
<path style="stroke:none; fill:#fcdd1b" d="M 48.5334 3.46667C 48.1778 3.82223 49.0222 3.77777 49.0666 3.73333C 49.4222 3.37779 48.5778 3.42222 48.5334 3.46667z"/>
<path style="stroke:none; fill:#e29f43" d="M 49.6 3.2L 49.6 4L 53.6 4C 52.1848 3.37685 51.1713 3.27007 49.6 3.2z"/>
<path style="stroke:none; fill:#dea2fb" d="M 12.8 4L 12.8 4.8L 16 4.8C 14.7952 4.25357 14.1482 4.13929 12.8 4z"/>
<path style="stroke:none; fill:#fcdd1b" d="M 24.5334 4.26667C 24.1778 4.62219 25.0222 4.57779 25.0666 4.53333C 25.4222 4.17777 24.5778 4.22224 24.5334 4.26667z"/>
<path style="stroke:none; fill:#e29f43" d="M 37.6 11.2L 38.4 11.2C 41.2724 7.54001 45.1358 5.86037 49.6 4.8C 45.2373 3.29061 38.9147 6.93787 37.6 11.2M 53.6 4L 53.6 4.8C 58.6194 7.83192 63.2316 13.1099 63.2 19.2L 64 19.2C 65.5326 12.8535 59.3441 5.95402 53.6 4z"/>
<path style="stroke:none; fill:#fcdd1b" d="M 55.2 4L 56 4.8L 55.2 4M 17.6 4.8L 18.4 7.2L 14.4 6.4L 14.4 11.2L 15.2 11.2C 18.5595 7.28178 21.5258 7.09831 26.4 8C 25.6295 4.40446 20.7432 4.81321 17.6 4.8z"/>
<path style="stroke:none; fill:#c0a292" d="M 30.4 4.8L 31.2 5.6L 30.4 4.8z"/>
<path style="stroke:none; fill:#fcdd1b" d="M 44 4.8L 44.8 5.6L 44 4.8z"/>
<path style="stroke:none; fill:#df6c46" d="M 13.6 5.6C 13.6 8.09048 14.2026 11.5601 11.2 12L 11.2 16.8L 12 16.8C 12.1791 15.4529 12.1746 14.9492 12 13.6C 15.6266 13.1352 14.882 8.22744 13.6 5.6z"/>
<path style="stroke:none; fill:#f8f3eb" d="M 15.2 5.6L 15.2 7.2L 18.4 7.2L 18.4 5.6L 15.2 5.6z"/>
<path style="stroke:none; fill:#fcdd1b" d="M 42.4 5.6L 43.2 6.4L 42.4 5.6M 57.6 5.6L 58.4 6.4L 57.6 5.6M 56.8 6.4L 57.6 7.2L 56.8 6.4M 58.4 6.4L 59.2 7.2L 58.4 6.4z"/>
<path style="stroke:none; fill:#df6c46" d="M 18.4 7.2L 18.4 8C 20.8623 8.05088 23.1799 8.35032 25.6 8.8C 23.357 7.10021 21.1732 7.20919 18.4 7.2z"/>
<path style="stroke:none; fill:#fcdd1b" d="M 41.6 7.2L 42.4 8L 41.6 7.2z"/>
<path style="stroke:none; fill:#e29f43" d="M 16.8 8L 16.8 9.6C 18.1082 9.16393 17.9639 9.30816 18.4 8L 16.8 8z"/>
<path style="stroke:none; fill:#f8f3eb" d="M 16 11.2C 17.4799 11.0383 18.5201 11.0383 20 11.2L 20 12C 10.303 12.1155 6.61805 26.6733 16.8 29.6C 15.1655 26.7583 13.1499 24.2326 11.2 21.6L 16.8 21.6L 16.8 18.4L 17.6 18.4L 17.6 23.2C 22.3082 22.8565 25.03 13.8778 20 12.8L 20 12C 22.1486 11.5994 24.2159 11.2939 26.4 11.2C 23.1791 7.33313 19.2209 7.33313 16 11.2z"/>
<path style="stroke:none; fill:#e29f43" d="M 25.6 8L 25.6 10.4C 27.0374 10.4 26.8172 10.3886 28 9.6L 28.8 12C 29.345 9.50936 27.8038 8.80432 25.6 8z"/>
<path style="stroke:none; fill:#c0a292" d="M 28 8L 28.8 8.8L 28 8z"/>
<path style="stroke:none; fill:#fcdd1b" d="M 40 8L 40.8 8.8L 40 8z"/>
<path style="stroke:none; fill:#df6c46" d="M 16 8.8L 16.8 9.6L 16 8.8z"/>
<path style="stroke:none; fill:#c0a292" d="M 24.8 8.8L 25.6 9.6L 24.8 8.8M 28.8 8.8L 29.6 9.6L 28.8 8.8z"/>
<path style="stroke:none; fill:#fcdd1b" d="M 40.8 12L 40.8 12.8C 48.0101 13.1143 53.2607 17.3418 60 19.2L 61.6 13.6C 52.7046 15.8543 49.3122 6.16172 40.8 12z"/>
<path style="stroke:none; fill:#c0a292" d="M 16 9.6L 16.8 10.4L 16 9.6z"/>
<path style="stroke:none; fill:#fcdd1b" d="M 27.2 9.6L 28 12.8L 28.8 12.8C 28.3914 11.2382 28.2134 10.8345 27.2 9.6z"/>
<path style="stroke:none; fill:#c0a292" d="M 29.6 9.6L 30.4 12L 31.2 12C 30.6531 10.736 30.5562 10.5782 29.6 9.6z"/>
<path style="stroke:none; fill:#fcdd1b" d="M 60.8 9.6L 61.6 10.4L 60.8 9.6z"/>
<path style="stroke:none; fill:#c0a292" d="M 8 12L 10.4 11.2C 8.98696 10.8793 9.15408 10.9686 8 12z"/>
<path style="stroke:none; fill:#e29f43" d="M 15.2 10.4C 16.5872 12.0027 17.8839 11.9384 20 12L 20 11.2L 15.2 10.4z"/>
<path style="stroke:none; fill:#dea2fb" d="M 16.8 10.4L 17.6 11.2L 16.8 10.4z"/>
<path style="stroke:none; fill:#df6c46" d="M 26.4 10.4L 28 16L 28.8 16L 30.4 10.4L 29.6 10.4L 28.8 12.8L 26.4 10.4z"/>
<path style="stroke:none; fill:#925315" d="M 8 12L 8 12.8L 11.2 12.8C 10.0406 11.483 9.76632 11.6372 8 12z"/>
<path style="stroke:none; fill:#e29f43" d="M 21.6 11.2L 22.4 14.4L 24.8 12.8C 24.9617 14.2799 24.9617 15.3201 24.8 16.8L 28 16.8C 27.6972 14.7594 27.2098 13.0984 26.4 11.2C 24.7033 11.3972 23.3006 11.3844 21.6 11.2z"/>
<path style="stroke:none; fill:#df6c46" d="M 23.2 11.2L 23.2 12L 25.6 12C 24.6014 11.4522 24.3613 11.401 23.2 11.2z"/>
<path style="stroke:none; fill:#e29f43" d="M 38.4 11.2C 38.601 12.3613 38.6522 12.6013 39.2 13.6C 43.5841 14.2108 43.0018 19.0048 42.4 22.4C 41.136 21.8531 40.9782 21.7562 40 20.8L 39.2 20.8C 40.7371 27.973 44.5154 17.8846 45.6 16.8L 45.6 16C 44.2918 15.5639 44.4361 15.7082 44 14.4C 49.0357 15.2977 53.3267 18.3265 58.4 19.2C 58.5765 21.6052 58.7638 22.6924 60.8 24L 60.8 23.2C 55.2822 14.8478 47.2182 14.4198 38.4 11.2z"/>
<path style="stroke:none; fill:#f8f3eb" d="M 8.8 12L 8.8 16L 11.2 16C 11.0593 14.4975 10.8494 13.4405 10.4 12L 8.8 12z"/>
<path style="stroke:none; fill:#df6c46" d="M 20.5334 12.2666C 20.1778 12.6222 21.0222 12.5778 21.0666 12.5334C 21.4222 12.1778 20.5778 12.2222 20.5334 12.2666z"/>
<path style="stroke:none; fill:#dea2fb" d="M 29.6 12L 30.4 12.8L 29.6 12z"/>
<path style="stroke:none; fill:#fcdd1b" d="M 62.4 12L 63.2 12.8L 62.4 12z"/>
<path style="stroke:none; fill:#c0a292" d="M 7.2 12.8L 7.2 16.8L 8 16.8L 8.8 12.8L 7.2 12.8z"/>
<path style="stroke:none; fill:#e29f43" d="M 13.6 12.8L 14.4 13.6L 13.6 12.8z"/>
<path style="stroke:none; fill:#c0a292" d="M 16 12.8L 16.8 13.6L 16 12.8z"/>
<path style="stroke:none; fill:#5f6b8f" d="M 17.3334 13.0666C 16.9778 13.4222 17.8222 13.3778 17.8666 13.3334C 18.2222 12.9778 17.3778 13.0222 17.3334 13.0666z"/>
<path style="stroke:none; fill:#c0a292" d="M 23.7334 13.0666C 23.3778 13.4222 24.2222 13.3778 24.2666 13.3334C 24.6222 12.9778 23.7778 13.0222 23.7334 13.0666z"/>
<path style="stroke:none; fill:#fcdd1b" d="M 37.6 12.8C 37.625 14.2654 37.5364 14.047 38.4 15.2C 38.199 14.0387 38.1478 13.7986 37.6 12.8z"/>
<path style="stroke:none; fill:#925315" d="M 12.2666 14.1334C 12.2222 14.1778 12.1778 15.0222 12.5334 14.6666C 12.5778 14.6222 12.6222 13.7778 12.2666 14.1334z"/>
<path style="stroke:none; fill:#1245a7" d="M 16.2666 14.1334C 16.2222 14.1778 16.1778 15.0222 16.5334 14.6666C 16.5778 14.6222 16.6222 13.7778 16.2666 14.1334z"/>
<path style="stroke:none; fill:#f8f3eb" d="M 16.8 13.6L 17.6 14.4L 16.8 13.6z"/>
<path style="stroke:none; fill:#1245a7" d="M 17.6 13.6L 18.4 14.4L 17.6 13.6z"/>
<path style="stroke:none; fill:#6dadf8" d="M 23.2 13.6L 23.2 15.2L 24.8 15.2L 24.8 13.6L 23.2 13.6z"/>
<path style="stroke:none; fill:#5f6b8f" d="M 24.8 13.6C 24.3639 14.9082 24.5082 14.7639 23.2 15.2L 23.2 16C 24.7954 15.3222 25.3592 15.1943 24.8 13.6z"/>
<path style="stroke:none; fill:#fcdd1b" d="M 40 13.6L 40 14.4L 42.4 14.4C 41.4014 13.8522 41.1613 13.801 40 13.6z"/>
<path style="stroke:none; fill:#c0a292" d="M 14.9334 14.6666C 14.5778 15.0222 15.4222 14.9778 15.4666 14.9334C 15.8222 14.5778 14.9778 14.6222 14.9334 14.6666z"/>
<path style="stroke:none; fill:#44b85f" d="M 16.8 14.4L 17.6 15.2L 16.8 14.4z"/>
<path style="stroke:none; fill:#6dadf8" d="M 17.6 14.4L 18.4 15.2L 17.6 14.4z"/>
<path style="stroke:none; fill:#c0a292" d="M 22.4 14.4C 22.7859 16.2912 22.9088 16.414 24.8 16.8L 24.8 16L 22.4 14.4z"/>
<path style="stroke:none; fill:#925315" d="M 28.8 14.4C 28.8 18.4497 29.7006 23.7214 26.8531 27.029C 19.2755 35.8313 8.9072 27.1112 11.2 17.6C 10.0347 16.7173 9.68272 16.3653 8.8 15.2L 8 15.2C 8.53488 18.4946 8.35344 22.5183 9.608 25.5969C 13.5255 35.2095 26.4126 33.2967 30.171 24.8309C 32.1363 20.4039 36.109 15.227 28.8 14.4z"/>
<path style="stroke:none; fill:#e29f43" d="M 36.8 14.4L 36.8 16.8L 37.6 16.8C 37.399 15.6388 37.3478 15.3986 36.8 14.4z"/>
<path style="stroke:none; fill:#f8f3eb" d="M 44 14.4C 45.0512 15.6943 45.5018 15.7546 47.2 16L 47.2 16.8L 44 16.8C 43.8558 24.0166 45.0112 30.2435 53.6 31.2L 53.6 30.4L 50.4 29.6L 50.4 28.8C 51.9026 28.6593 52.9595 28.4494 54.4 28L 54.4 27.2C 51.7722 27.5632 50.1278 28.0635 48 26.4C 50.9569 26.3674 53.2706 25.9568 56 24.8L 55.2 28.8L 56 28.8C 57.8002 25.5862 58.3673 22.8636 58.4 19.2C 53.0374 19.4794 49.3479 15.2016 44 14.4z"/>
<path style="stroke:none; fill:#fcdd1b" d="M 46.4 14.4L 47.2 15.2L 46.4 14.4z"/>
<path style="stroke:none; fill:#5f6b8f" d="M 16.5334 15.4666C 16.1778 15.8222 17.0222 15.7778 17.0666 15.7334C 17.4222 15.3778 16.5778 15.4222 16.5334 15.4666z"/>
<path style="stroke:none; fill:#925315" d="M 24.8 15.2L 25.6 16L 24.8 15.2z"/>
<path style="stroke:none; fill:#c0a292" d="M 31.7334 15.4666C 31.3778 15.8222 32.2222 15.7778 32.2666 15.7334C 32.6222 15.3778 31.7778 15.4222 31.7334 15.4666z"/>
<path style="stroke:none; fill:#fcdd1b" d="M 8.8 16L 8.8 16.8L 11.2 16.8C 10.2013 16.2522 9.96128 16.201 8.8 16z"/>
<path style="stroke:none; fill:#c0a292" d="M 28 16L 28 18.4L 28.8 18.4C 28.599 17.2387 28.5478 16.9987 28 16z"/>
<path style="stroke:none; fill:#f8f3eb" d="M 30.4 16L 29.6 20C 31.8822 19.2102 32.2986 18.3489 32.8 16L 30.4 16z"/>
<path style="stroke:none; fill:#c0a292" d="M 33.6 16L 33.6 19.2L 34.4 19.2C 34.2607 17.8518 34.1464 17.2049 33.6 16z"/>
<path style="stroke:none; fill:#fcdd1b" d="M 37.6 16C 37.4209 17.3471 37.4254 17.8508 37.6 19.2L 38.4 19.2C 38.2607 17.8518 38.1464 17.2048 37.6 16M 42.4 16L 42.4 20.8L 43.2 20.8C 43.1622 18.9978 43.0994 17.6417 42.4 16M 46.1334 16.2666C 45.7778 16.6222 46.6222 16.5778 46.6666 16.5334C 47.0222 16.1778 46.1778 16.2222 46.1334 16.2666M 63.4666 16.5334C 63.4222 16.5778 63.3778 17.4222 63.7334 17.0666C 63.7778 17.0222 63.8222 16.1778 63.4666 16.5334z"/>
<path style="stroke:none; fill:#e29f43" d="M 9.6 16.8L 9.6 17.6L 12 17.6C 11.0014 17.0522 10.7613 17.001 9.6 16.8z"/>
<path style="stroke:none; fill:#df6c46" d="M 22.4 16.8L 21.6 20.8C 23.1034 19.5014 23.1326 18.6404 22.4 16.8z"/>
<path style="stroke:none; fill:#f8f3eb" d="M 23.2 16.8L 23.2 22.4L 28 22.4L 28 16.8L 23.2 16.8z"/>
<path style="stroke:none; fill:#c0a292" d="M 52.8 17.6L 52.8 19.2C 54.1082 18.7639 53.9639 18.9082 54.4 17.6L 52.8 17.6z"/>
<path style="stroke:none; fill:#e29f43" d="M 61.6 17.6L 62.4 18.4L 61.6 17.6z"/>
<path style="stroke:none; fill:#c0a292" d="M 9.06664 18.9334C 9.02224 18.9778 8.97776 19.8222 9.33336 19.4666C 9.37776 19.4222 9.42224 18.5778 9.06664 18.9334M 16.8 18.4L 16.8 21.6L 17.6 21.6C 17.4607 20.2518 17.3464 19.6049 16.8 18.4z"/>
<path style="stroke:none; fill:#fcdd1b" d="M 28 18.4L 28 22.4C 24.455 22.5131 21.0712 23.1579 19.2 26.4L 22.4 26.4C 20.4719 28.5381 18.7771 28.9858 16 29.6L 16 30.4C 22.9856 30.3954 31.6628 27.1322 28 18.4z"/>
<path style="stroke:none; fill:#e29f43" d="M 32 18.4L 32.8 19.2L 32 18.4z"/>
<path style="stroke:none; fill:#c0a292" d="M 45.6 18.4L 45.6 19.2L 45.6 20C 46.9289 19.8339 46.8319 19.6037 47.2 20.8L 48 20.8C 47.2806 19.1011 47.2989 19.1194 45.6 18.4z"/>
<path style="stroke:none; fill:#44b85f" d="M 53.6 20L 56 20C 55.3857 18.9486 55.4514 19.0143 54.4 18.4C 53.3602 18.9198 53.6 18.5174 53.6 20z"/>
<path style="stroke:none; fill:#925315" d="M 59.2 20.8L 62.4 19.2L 60.8 24.8L 61.6 24.8C 62.6634 22.5999 63.0772 20.8402 63.2 18.4C 61.0484 18.7341 60.357 18.9738 59.2 20.8z"/>
<path style="stroke:none; fill:#c0a292" d="M 10.4 19.2L 11.2 20L 10.4 19.2z"/>
<path style="stroke:none; fill:#df6c46" d="M 32 19.2L 32.8 20L 32 19.2z"/>
<path style="stroke:none; fill:#e29f43" d="M 38.6666 19.7334C 38.6222 19.7778 38.5778 20.6222 38.9334 20.2666C 38.9778 20.2222 39.0222 19.3778 38.6666 19.7334z"/>
<path style="stroke:none; fill:#44b85f" d="M 44.8 19.2C 45.6955 21.286 46.6731 21.6543 47.2 19.2L 44.8 19.2z"/>
<path style="stroke:none; fill:#336330" d="M 54.4 19.2L 55.2 20L 54.4 19.2z"/>
<path style="stroke:none; fill:#f8f3eb" d="M 60.8 19.2L 60 22.4C 62.158 21.9376 62.2314 21.3909 62.4 19.2L 60.8 19.2z"/>
<path style="stroke:none; fill:#fcdd1b" d="M 63.2 19.2L 64 20L 63.2 19.2z"/>
<path style="stroke:none; fill:#e29f43" d="M 29.6 20L 29.6 20.8L 32 20.8C 31.0014 20.2522 30.7613 20.201 29.6 20z"/>
<path style="stroke:none; fill:#c0a292" d="M 32.8 20L 33.6 20.8L 32.8 20M 8 20.8L 8 24L 8.8 24C 8.66072 22.6518 8.5464 22.0049 8 20.8z"/>
<path style="stroke:none; fill:#df6c46" d="M 9.6 20.8L 9.6 23.2L 10.4 23.2C 10.199 22.0387 10.1478 21.7987 9.6 20.8z"/>
<path style="stroke:none; fill:#925315" d="M 21.6 20.8C 19.8902 22.5805 19.2433 22.7874 16.8 22.4C 18.6426 25.2002 22.3565 24.3974 21.6 20.8z"/>
<path style="stroke:none; fill:#e29f43" d="M 22.4 20.8C 22.7246 22.4739 22.5734 22.4158 24 23.2C 23.447 22.0893 23.2123 21.7114 22.4 20.8z"/>
<path style="stroke:none; fill:#c0a292" d="M 32 20.8L 32.8 21.6L 32 20.8M 44.8 20.8L 45.6 21.6L 44.8 20.8z"/>
<path style="stroke:none; fill:#df6c46" d="M 11.2 21.6L 11.2 22.4C 13.3559 22.6381 15.4265 22.4776 17.6 22.4C 15.5098 21.5218 13.4684 21.6058 11.2 21.6z"/>
<path style="stroke:none; fill:#c0a292" d="M 30.4 21.6L 30.4 25.6L 31.2 25.6C 31.1299 24.0287 31.0231 23.0153 30.4 21.6M 59.2 21.6C 59.9842 23.0266 59.9261 22.8754 61.6 23.2L 61.6 22.4L 59.2 21.6z"/>
<path style="stroke:none; fill:#f8f3eb" d="M 12.8 22.4L 12.8 23.2L 16.8 23.2C 15.3848 22.5769 14.3713 22.4701 12.8 22.4z"/>
<path style="stroke:none; fill:#c0a292" d="M 62.4 22.4L 63.2 23.2L 62.4 22.4z"/>
<path style="stroke:none; fill:#e29f43" d="M 12 23.2C 12.4361 24.5082 12.2918 24.3639 13.6 24.8L 13.6 23.2L 12 23.2z"/>
<path style="stroke:none; fill:#fcdd1b" d="M 13.6 23.2L 13.6 24.8L 16.8 24.8L 16.8 23.2L 13.6 23.2z"/>
<path style="stroke:none; fill:#df6c46" d="M 18.9334 23.4666C 18.5778 23.8222 19.4222 23.7778 19.4666 23.7334C 19.8222 23.3778 18.9778 23.4222 18.9334 23.4666z"/>
<path style="stroke:none; fill:#e29f43" d="M 24.8 23.2C 25.2361 24.5082 25.0918 24.3639 26.4 24.8L 26.4 23.2L 24.8 23.2z"/>
<path style="stroke:none; fill:#df6c46" d="M 26.4 23.2L 26.4 24.8C 27.7082 24.3639 27.5639 24.5082 28 23.2L 26.4 23.2z"/>
<path style="stroke:none; fill:#c0a292" d="M 38.4 23.2C 39.1513 25.3099 39.6638 26.0945 41.6 27.2C 41.2346 25.6506 41.135 25.4337 41.6 24C 40.3952 23.4536 39.7482 23.3393 38.4 23.2z"/>
<path style="stroke:none; fill:#df6c46" d="M 41.6 23.2C 42.4827 24.3653 42.8346 24.7173 44 25.6C 43.2806 23.9011 43.2989 23.9194 41.6 23.2z"/>
<path style="stroke:none; fill:#925315" d="M 58.4 23.2C 55.6086 31.1871 50.0492 32.7056 44.8 25.6C 43.4153 26.4048 42.3576 26.8372 40.8 27.2L 40.8 28C 47.3661 29.6806 51.1974 33.3559 48 40L 60 39.2C 58.9372 37.1934 56.2513 35.1269 56.1302 32.7882C 55.9375 29.0662 60.3087 26.9842 58.4 23.2z"/>
<path style="stroke:none; fill:#fcdd1b" d="M 62.4 23.2C 61.9639 24.5082 62.1082 24.3639 60.8 24.8L 60.8 28C 59.4918 27.5639 59.6361 27.7082 59.2 26.4L 58.4 26.4C 57.6644 28.3179 55.5534 30.8191 55.6766 32.9043C 56.0465 39.1722 64.2721 39.0338 68 36.8C 67.0241 32.8516 64.8416 29.3982 64 25.6L 62.4 26.4C 62.6469 24.9934 62.7252 24.5274 62.4 23.2z"/>
<path style="stroke:none; fill:#c0a292" d="M 10.4 24L 11.2 24.8L 10.4 24z"/>
<path style="stroke:none; fill:#e29f43" d="M 15.2 25.6C 17.3335 26.4026 19.3402 26.8966 21.6 27.2C 19.4886 25.449 17.7575 24.2035 15.2 25.6M 20.8 24L 21.6 24.8L 20.8 24z"/>
<path style="stroke:none; fill:#f8f3eb" d="M 40 24C 40.7194 25.6989 40.7011 25.6806 42.4 26.4C 42.014 24.5088 41.8912 24.386 40 24z"/>
<path style="stroke:none; fill:#c0a292" d="M 52 24L 52 25.6C 53.3082 25.1639 53.1639 25.3082 53.6 24L 52 24z"/>
<path style="stroke:none; fill:#ab29d2" d="M 60 24C 59.6155 25.7606 59.6155 26.2394 60 28L 60.8 28C 60.7299 26.4287 60.6231 25.4152 60 24z"/>
<path style="stroke:none; fill:#e29f43" d="M 61.6 24L 62.4 24.8L 61.6 24z"/>
<path style="stroke:none; fill:#c0a292" d="M 8.8 24.8L 9.6 25.6L 8.8 24.8z"/>
<path style="stroke:none; fill:#df6c46" d="M 13.6 24.8C 14.5782 25.7562 14.736 25.8531 16 26.4C 15.0218 25.4438 14.864 25.3469 13.6 24.8M 23.2 26.4C 24.464 25.8531 24.6218 25.7562 25.6 24.8C 24.336 25.3469 24.1782 25.4438 23.2 26.4z"/>
<path style="stroke:none; fill:#fcdd1b" d="M 42.4 24.8L 41.6 27.2C 43.013 26.4171 43.1643 26.2226 42.4 24.8z"/>
<path style="stroke:none; fill:#925315" d="M 50.9334 25.0666C 50.5778 25.4222 51.4222 25.3778 51.4666 25.3334C 51.8222 24.9778 50.9778 25.0222 50.9334 25.0666z"/>
<path style="stroke:none; fill:#e29f43" d="M 54.4 24.8L 55.2 27.2L 56 27.2L 56 24.8L 54.4 24.8M 62.6666 25.3334C 62.6222 25.3778 62.5778 26.2222 62.9334 25.8666C 62.9778 25.8222 63.0222 24.9778 62.6666 25.3334z"/>
<path style="stroke:none; fill:#c0a292" d="M 11.2 25.6L 12 26.4L 11.2 25.6z"/>
<path style="stroke:none; fill:#df6c46" d="M 29.6 25.6L 30.4 26.4L 29.6 25.6z"/>
<path style="stroke:none; fill:#e29f43" d="M 43.4666 26.1334C 43.4222 26.1778 43.3778 27.0222 43.7334 26.6666C 43.7778 26.6222 43.8222 25.7778 43.4666 26.1334z"/>
<path style="stroke:none; fill:#df6c46" d="M 53.6 25.6L 53.6 29.6L 54.4 29.6C 54.7716 27.6176 54.7792 27.2081 53.6 25.6z"/>
<path style="stroke:none; fill:#d21211" d="M 54.4 25.6L 55.2 26.4L 54.4 25.6z"/>
<path style="stroke:none; fill:#e29f43" d="M 61.0666 26.1334C 61.0222 26.1778 60.9778 27.0222 61.3334 26.6666C 61.3778 26.6222 61.4222 25.7778 61.0666 26.1334z"/>
<path style="stroke:none; fill:#c0a292" d="M 9.6 26.4L 10.4 27.2L 9.6 26.4z"/>
<path style="stroke:none; fill:#925315" d="M 15.2 26.4C 15.9194 28.0989 15.9011 28.0806 17.6 28.8C 16.7173 27.6347 16.3653 27.2827 15.2 26.4z"/>
<path style="stroke:none; fill:#c0a292" d="M 16.5334 26.6666C 16.1778 27.0222 17.0222 26.9778 17.0666 26.9334C 17.4222 26.5778 16.5778 26.6222 16.5334 26.6666z"/>
<path style="stroke:none; fill:#f8f3eb" d="M 16.8 27.2L 16.8 28L 20.8 28C 19.2115 26.959 18.6978 26.9362 16.8 27.2z"/>
<path style="stroke:none; fill:#925315" d="M 21.6 26.4C 20.651 27.349 20.3777 27.667 20 28.8C 21.5954 28.1222 22.1592 27.9943 21.6 26.4z"/>
<path style="stroke:none; fill:#df6c46" d="M 27.2 26.4L 28 27.2L 27.2 26.4z"/>
<path style="stroke:none; fill:#c0a292" d="M 44.8 26.4L 45.6 27.2L 44.8 26.4z"/>
<path style="stroke:none; fill:#df6c46" d="M 48 26.4C 48 27.8374 48.0114 27.6172 48.8 28.8C 50.2016 28.3489 50.8336 28.0649 52 27.2C 50.5595 26.7506 49.5026 26.5407 48 26.4z"/>
<path style="stroke:none; fill:#d21211" d="M 51.2 26.4L 51.2 27.2L 53.6 27.2C 52.6013 26.6522 52.3613 26.601 51.2 26.4z"/>
<path style="stroke:none; fill:#df6c46" d="M 56.8 26.4L 57.6 27.2L 56.8 26.4z"/>
<path style="stroke:none; fill:#e29f43" d="M 63.2 26.4C 63.7469 27.664 63.8438 27.8218 64.8 28.8C 64.2531 27.536 64.1562 27.3782 63.2 26.4z"/>
<path style="stroke:none; fill:#df6c46" d="M 26.4 27.2L 27.2 28L 26.4 27.2z"/>
<path style="stroke:none; fill:#c0a292" d="M 28.8 27.2L 29.6 28L 28.8 27.2M 45.6 27.2L 46.4 28L 45.6 27.2z"/>
<path style="stroke:none; fill:#e29f43" d="M 59.2 27.2L 60 28L 59.2 27.2z"/>
<path style="stroke:none; fill:#df6c46" d="M 12.8 28L 13.6 28.8L 12.8 28M 17.6 28C 18.3842 29.4266 18.3261 29.2754 20 29.6L 20 28.8L 17.6 28z"/>
<path style="stroke:none; fill:#c0a292" d="M 18.9334 28.2666C 18.5778 28.6222 19.4222 28.5778 19.4666 28.5334C 19.8222 28.1778 18.9778 28.2222 18.9334 28.2666z"/>
<path style="stroke:none; fill:#df6c46" d="M 25.6 28L 26.4 28.8L 25.6 28z"/>
<path style="stroke:none; fill:#c0a292" d="M 28 28L 28.8 28.8L 28 28z"/>
<path style="stroke:none; fill:#df6c46" d="M 42.4 28L 43.2 31.2L 44 31.2C 43.7546 29.5018 43.6943 29.0512 42.4 28z"/>
<path style="stroke:none; fill:#fcdd1b" d="M 44 28C 43.6364 31.5306 41.9929 34.316 40.8 37.6C 42.4095 38.8674 43.5678 39.9736 44.8 41.6C 52.2015 37.6653 50.1853 31.9125 44 28z"/>
<path style="stroke:none; fill:#c0a292" d="M 46.4 28L 47.2 28.8L 46.4 28z"/>
<path style="stroke:none; fill:#df6c46" d="M 56 28L 56.8 28.8L 56 28z"/>
<path style="stroke:none; fill:#e29f43" d="M 57.6 28L 58.4 28.8L 57.6 28z"/>
<path style="stroke:none; fill:#dea2fb" d="M 11.2 28.8L 12 29.6L 11.2 28.8z"/>
<path style="stroke:none; fill:#c0a292" d="M 27.2 28.8L 28 29.6L 27.2 28.8z"/>
<path style="stroke:none; fill:#e29f43" d="M 41.6 28.8C 40.7173 29.9653 40.3653 30.3173 39.2 31.2L 39.2 32C 41.1735 31.3668 42.0918 30.923 41.6 28.8z"/>
<path style="stroke:none; fill:#ab29d2" d="M 42.4 28.8L 42.4 31.2L 43.2 31.2C 42.999 30.0387 42.9478 29.7986 42.4 28.8z"/>
<path style="stroke:none; fill:#df6c46" d="M 47.2 28.8L 48 29.6L 47.2 28.8M 50.4 28.8L 51.2 29.6L 50.4 28.8z"/>
<path style="stroke:none; fill:#d21211" d="M 51.2 28.8L 51.2 29.6L 53.6 29.6C 52.6013 29.0522 52.3613 29.001 51.2 28.8z"/>
<path style="stroke:none; fill:#e29f43" d="M 52 29.6L 52 30.4C 54.0644 30.3783 54.5106 30.2165 56 28.8L 52 29.6z"/>
<path style="stroke:none; fill:#5f6b8f" d="M 12 29.6C 8.75288 32.8914 2.39799 33.9385 0.8 38.4C 4.67505 36.5908 8.51568 34.481 12 32C 12.5994 33.803 13.0753 34.6509 14.4 36L 15.2 35.2L 12 29.6z"/>
<path style="stroke:none; fill:#df6c46" d="M 15.2 29.6L 16 30.4L 15.2 29.6z"/>
<path style="stroke:none; fill:#c0a292" d="M 13.3334 30.6666C 12.9778 31.0222 13.8222 30.9778 13.8666 30.9334C 14.2222 30.5778 13.3778 30.6222 13.3334 30.6666z"/>
<path style="stroke:none; fill:#e29f43" d="M 16.8 30.4L 16.8 31.2L 20.8 31.2C 19.3848 30.5769 18.3713 30.4701 16.8 30.4z"/>
<path style="stroke:none; fill:#c0a292" d="M 24.8 30.4L 25.6 31.2L 24.8 30.4z"/>
<path style="stroke:none; fill:#fcdd1b" d="M 31.7334 30.6666C 31.3778 31.0222 32.2222 30.9778 32.2666 30.9334C 32.6222 30.5778 31.7778 30.6222 31.7334 30.6666z"/>
<path style="stroke:none; fill:#df6c46" d="M 49.6 30.4L 50.4 31.2L 49.6 30.4z"/>
<path style="stroke:none; fill:#e29f43" d="M 56 30.4L 56.8 31.2L 56 30.4z"/>
<path style="stroke:none; fill:#f8f3eb" d="M 12.8 31.2L 14.4 34.4L 15.2 34.4C 15.9886 33.2172 16 33.4374 16 32L 12.8 31.2z"/>
<path style="stroke:none; fill:#c0a292" d="M 15.2 31.2L 16 32L 15.2 31.2z"/>
<path style="stroke:none; fill:#5f6b8f" d="M 23.2 31.2C 22.829 32.9378 22.3156 34.3666 21.6 36C 24.2935 36.2243 26.3223 37.3752 28.8 38.4C 27.0892 35.889 25.2342 33.4566 23.2 31.2z"/>
<path style="stroke:none; fill:#c0a292" d="M 24.2666 31.7334C 24.2222 31.7778 24.1778 32.6222 24.5334 32.2666C 24.5778 32.2222 24.6222 31.3778 24.2666 31.7334z"/>
<path style="stroke:none; fill:#e29f43" d="M 31.2 32.8L 36 32C 33.9766 31.1684 32.6595 31.1254 31.2 32.8z"/>
<path style="stroke:none; fill:#fcdd1b" d="M 33.6 32L 33.6 32.8L 40 32.8C 37.84 31.225 36.1942 31.5452 33.6 32z"/>
<path style="stroke:none; fill:#f8f3eb" d="M 32 32C 34.8866 38.0116 43.3105 40.087 42.4 31.2C 38.667 32.5602 35.8956 32.7206 32 32z"/>
<path style="stroke:none; fill:#c0a292" d="M 42.9334 31.4666C 42.5778 31.8222 43.4222 31.7778 43.4666 31.7334C 43.8222 31.3778 42.9778 31.4222 42.9334 31.4666M 11.2 32L 12 32.8L 11.2 32M 16 32L 16.8 32.8L 16 32z"/>
<path style="stroke:none; fill:#df6c46" d="M 16.8 32C 16.3639 33.3082 16.5082 33.1639 15.2 33.6L 15.2 34.4L 18.4 34.4C 17.8531 33.136 17.7562 32.9782 16.8 32z"/>
<path style="stroke:none; fill:#d21211" d="M 18.4 32C 17.6806 33.6989 17.6989 33.6806 16 34.4L 16 37.6C 18.4599 36.245 19.4283 34.7368 18.4 32z"/>
<path style="stroke:none; fill:#c0a292" d="M 19.2 34.4L 20 34.4C 20.436 33.0918 20.2918 33.2361 21.6 32.8C 19.8882 31.9058 19.5786 32.5994 19.2 34.4z"/>
<path style="stroke:none; fill:#f8f3eb" d="M 20 35.2C 22.1012 34.529 22.529 34.1012 23.2 32C 21.2066 32.776 20.6835 33.1799 20 35.2z"/>
<path style="stroke:none; fill:#d21211" d="M 16 32.8L 16.8 33.6L 16 32.8z"/>
<path style="stroke:none; fill:#fcdd1b" d="M 31.7334 33.0666C 31.3778 33.4222 32.2222 33.3778 32.2666 33.3334C 32.6222 32.9778 31.7778 33.0222 31.7334 33.0666z"/>
<path style="stroke:none; fill:#e29f43" d="M 51.2 32.8L 51.2 36L 52 36L 52 33.6L 52.8 33.6L 53.6 39.2L 57.6 38.4C 56.4185 36.5419 55.2847 34.8102 54.4 32.8L 51.2 32.8M 67.2 32.8L 67.2 36L 68 36C 67.8607 34.6518 67.7464 34.0048 67.2 32.8z"/>
<path style="stroke:none; fill:#c0a292" d="M 5.6 33.6L 6.4 34.4L 5.6 33.6z"/>
<path style="stroke:none; fill:#e29f43" d="M 32 33.6C 32.9814 36.3359 34.0641 37.4186 36.8 38.4L 36.8 37.6L 32 33.6z"/>
<path style="stroke:none; fill:#fcdd1b" d="M 52 33.6L 50.4 39.2L 53.6 39.2C 53.4122 37.0469 53.1145 35.4489 52 33.6z"/>
<path style="stroke:none; fill:#941f76" d="M 15.2 34.4L 15.2 36.8L 16 36.8C 15.799 35.6387 15.7478 35.3987 15.2 34.4z"/>
<path style="stroke:none; fill:#5f6b8f" d="M 19.4666 34.9334C 19.4222 34.9778 19.3778 35.8222 19.7334 35.4666C 19.7778 35.4222 19.8222 34.5778 19.4666 34.9334z"/>
<path style="stroke:none; fill:#c0a292" d="M 2.4 35.2L 3.2 36L 2.4 35.2M 5.6 35.2L 6.4 36L 5.6 35.2M 14.4 35.2L 15.2 36L 14.4 35.2M 20 35.2L 20 36.8L 21.6 36.8L 21.6 35.2L 20 35.2z"/>
<path style="stroke:none; fill:#f8f3eb" d="M 17.6 42.4C 21.4752 42.2716 23.3244 40.5594 26.4 38.4L 26.4 36.8C 21.1371 35.0544 17.7842 36.7478 17.6 42.4z"/>
<path style="stroke:none; fill:#c0a292" d="M 24 35.2L 24.8 36L 24 35.2z"/>
<path style="stroke:none; fill:#fcdd1b" d="M 33.6 35.2L 34.4 36L 33.6 35.2z"/>
<path style="stroke:none; fill:#c0a292" d="M 4 36L 4.8 36.8L 4 36z"/>
<path style="stroke:none; fill:#df6c46" d="M 18.4 36L 19.2 36.8L 18.4 36z"/>
<path style="stroke:none; fill:#c0a292" d="M 24.8 36L 25.6 36.8L 24.8 36z"/>
<path style="stroke:none; fill:#e29f43" d="M 57.6 36L 58.4 36.8L 57.6 36z"/>
<path style="stroke:none; fill:#df6c46" d="M 17.6 36.8L 18.4 37.6L 17.6 36.8z"/>
<path style="stroke:none; fill:#c0a292" d="M 1.6 37.6L 2.4 38.4L 1.6 37.6z"/>
<path style="stroke:none; fill:#df6c46" d="M 15.2 37.6C 14.5446 39.6252 14.2562 41.0826 14.4 43.2L 12.8 42.4C 13.0437 44.5722 12.9273 46.6178 12.8 48.8L 14.4 48.8C 14.883 46.2599 15.937 44.029 16.8 41.6L 15.2 41.6L 16.8 37.6L 15.2 37.6z"/>
<path style="stroke:none; fill:#941f76" d="M 16.8 37.6L 16.8 42.4L 17.6 42.4C 17.5622 40.5978 17.4994 39.2417 16.8 37.6z"/>
<path style="stroke:none; fill:#c0a292" d="M 26.4 37.6L 27.2 38.4L 26.4 37.6z"/>
<path style="stroke:none; fill:#fcdd1b" d="M 34.4 37.6L 35.2 38.4L 34.4 37.6z"/>
<path style="stroke:none; fill:#c0a292" d="M 38.4 37.6L 38.4 38.4L 41.6 38.4C 40.3952 37.8536 39.7482 37.7393 38.4 37.6z"/>
<path style="stroke:none; fill:#e29f43" d="M 64.8 39.2C 66.064 38.6531 66.2218 38.5562 67.2 37.6C 65.936 38.1469 65.7782 38.2438 64.8 39.2M 16 38.4L 15.2 41.6C 16.5245 40.4766 16.6009 40.0372 16 38.4z"/>
<path style="stroke:none; fill:#336330" d="M 23.2 42.4L 16.8 42.4L 16.8 43.2L 24 43.2C 27.145 36.9828 43.3798 37.4026 44 45.6C 42.3018 45.8454 41.8512 45.9057 40.8 47.2C 44.4105 46.4122 46.6872 41.8525 42.8531 39.2222C 38.9802 36.5654 24.566 37.9003 23.2 42.4z"/>
<path style="stroke:none; fill:#c0a292" d="M 29.6 38.4L 30.4 39.2L 29.6 38.4z"/>
<path style="stroke:none; fill:#6dadf8" d="M 32 38.4L 32.8 39.2L 32 38.4z"/>
<path style="stroke:none; fill:#5f6b8f" d="M 32.8 38.4L 33.6 39.2L 32.8 38.4z"/>
<path style="stroke:none; fill:#6dadf8" d="M 33.6 38.4L 34.4 39.2L 33.6 38.4z"/>
<path style="stroke:none; fill:#c0a292" d="M 36 38.4L 36.8 39.2L 36 38.4M 49.6 38.4L 50.4 39.2L 49.6 38.4z"/>
<path style="stroke:none; fill:#941f76" d="M 48 40L 48 40.8C 53.9578 40.7961 64.2891 37.3566 65.6 45.6L 66.4 45.6L 67.2 40C 60.4885 39.0177 54.7352 39.9814 48 40z"/>
<path style="stroke:none; fill:#df6c46" d="M 61.6 38.4L 62.4 39.2L 61.6 38.4z"/>
<path style="stroke:none; fill:#c0a292" d="M 25.6 39.2L 25.6 40L 28 40C 27.0014 39.4522 26.7613 39.401 25.6 39.2z"/>
<path style="stroke:none; fill:#44b85f" d="M 28.5334 39.4666C 28.1778 39.8222 29.0222 39.7778 29.0666 39.7334C 29.4222 39.3778 28.5778 39.4222 28.5334 39.4666M 15.2 48C 19.437 47.803 22.9616 45.7241 27.2 45.6L 27.2 46.4L 25.6 46.4L 25.6 47.2C 28.8294 46.7918 31.936 46.409 35.2 46.4C 37.3737 42.5372 40.367 45.3338 44 45.6C 43.6251 34.0888 32.7323 41.7278 27.0327 43.4605C 22.1869 44.9337 15.7928 40.3916 15.2 48z"/>
<path style="stroke:none; fill:#df6c46" d="M 64.5334 39.4666C 64.1778 39.8222 65.0222 39.7778 65.0666 39.7334C 65.4222 39.3778 64.5778 39.4222 64.5334 39.4666z"/>
<path style="stroke:none; fill:#dea2fb" d="M 13.6 40L 14.4 40.8L 13.6 40z"/>
<path style="stroke:none; fill:#f8f3eb" d="M 24 44C 27.5081 43.8838 29.0468 42.3426 32 40.8C 28.3106 39.2522 24.905 39.8525 24 44z"/>
<path style="stroke:none; fill:#c0a292" d="M 44 40L 44.8 40.8L 44 40z"/>
<path style="stroke:none; fill:#df6c46" d="M 47.2 40L 48 40.8L 47.2 40z"/>
<path style="stroke:none; fill:#ab29d2" d="M 44.8 43.2C 49.5862 41.9338 54.2914 41.4203 59.2 40.8C 55.6612 39.4187 47.0787 39.9747 44.8 43.2z"/>
<path style="stroke:none; fill:#dea2fb" d="M 59.2 40L 59.2 40.8L 62.4 40.8C 61.1952 40.2536 60.5482 40.1393 59.2 40z"/>
<path style="stroke:none; fill:#c0a292" d="M 67.2 40C 67.6361 41.3082 67.4919 41.164 68.8 41.6C 68.3639 40.2918 68.5082 40.4361 67.2 40M 22.6666 41.3334C 22.6222 41.3778 22.5778 42.2222 22.9334 41.8666C 22.9778 41.8222 23.0222 40.9778 22.6666 41.3334z"/>
<path style="stroke:none; fill:#6dadf8" d="M 24 40.8L 24.8 41.6L 24 40.8z"/>
<path style="stroke:none; fill:#df6c46" d="M 45.6 40.8L 46.4 41.6L 45.6 40.8z"/>
<path style="stroke:none; fill:#dea2fb" d="M 56.5334 41.0666C 56.1778 41.4222 57.0222 41.3778 57.0666 41.3334C 57.4222 40.9778 56.5778 41.0222 56.5334 41.0666z"/>
<path style="stroke:none; fill:#f8f3eb" d="M 63.2 41.6C 60.5926 40.5161 48.0927 41.0179 46.5407 43.6673C 43.5843 48.7142 54.7502 45.5584 56 44.9747L 63.2 41.6z"/>
<path style="stroke:none; fill:#dea2fb" d="M 48.8 48C 51.8911 48.9051 54.4607 48.5825 57.6 48L 57.6 52.8C 54.5085 53.2368 51.9398 54.8586 48.8 55.2C 49.8981 57.2378 50.5746 57.75 52.8 58.4L 52.8 61.6L 56.8 60.8C 56.6441 63.8443 55.705 66.617 55.2 69.6L 68 69.6C 67.4022 65.5365 65.9362 61.7166 65.6 57.6L 56 56.8L 56 56C 68.5406 56 68.3183 51.8987 64.8 40.8C 59.535 42.3167 53.4242 45.0756 48.8 48z"/>
<path style="stroke:none; fill:#925315" d="M 67.2 40.8C 67.9486 42.3589 68.3139 42.8402 69.6 44C 69.0529 42.2328 68.7361 41.8373 67.2 40.8z"/>
<path style="stroke:none; fill:#dea2fb" d="M 12.8 41.6L 13.6 42.4L 12.8 41.6z"/>
<path style="stroke:none; fill:#d21211" d="M 13.8666 42.1334C 13.8222 42.1778 13.7778 43.0222 14.1334 42.6666C 14.1778 42.6222 14.2222 41.7778 13.8666 42.1334z"/>
<path style="stroke:none; fill:#dea2fb" d="M 48 41.6L 48 42.4L 54.4 42.4C 52.3098 41.5218 50.2684 41.6058 48 41.6z"/>
<path style="stroke:none; fill:#c0a292" d="M 69.6 41.6L 68.8 44.8C 70.1245 43.6766 70.2009 43.2372 69.6 41.6z"/>
<path style="stroke:none; fill:#df6c46" d="M 66.4 42.4L 66.4 45.6L 67.2 45.6C 67.0607 44.2518 66.9464 43.6048 66.4 42.4z"/>
<path style="stroke:none; fill:#c0a292" d="M 67.2 42.4L 68 43.2L 67.2 42.4z"/>
<path style="stroke:none; fill:#d21211" d="M 12.8 43.2C 11.325 49.1874 11.128 54.0502 12.8 60C 17.3122 57.7739 17.5866 54.2441 17.6 49.6C 13.3172 48.7043 13.9466 46.7206 12.8 43.2z"/>
<path style="stroke:none; fill:#336330" d="M 35.2 45.6L 39.2 44C 37.1103 43.3014 36.3626 43.779 35.2 45.6z"/>
<path style="stroke:none; fill:#5f6b8f" d="M 44.8 43.2L 44.8 46.4L 45.6 46.4C 45.4607 45.0518 45.3464 44.4048 44.8 43.2z"/>
<path style="stroke:none; fill:#c0a292" d="M 68 43.2L 68.8 44L 68 43.2M 12 44L 12.8 44.8L 12 44z"/>
<path style="stroke:none; fill:#df6c46" d="M 36.8 44L 36.8 44.8L 39.2 44.8C 38.2014 44.2522 37.9613 44.201 36.8 44z"/>
<path style="stroke:none; fill:#c0a292" d="M 36 44.8L 36.8 45.6L 36 44.8z"/>
<path style="stroke:none; fill:#f8f3eb" d="M 36 45.6C 36.3777 46.733 36.651 47.051 37.6 48L 30.4 48L 30.4 48.8C 33.9554 49.8388 36.5406 49.0794 40 48C 39.1997 45.5713 38.5098 45.2046 36 45.6z"/>
<path style="stroke:none; fill:#e29f43" d="M 39.2 44.8L 40 45.6L 39.2 44.8z"/>
<path style="stroke:none; fill:#336330" d="M 14.4 45.6L 14.4 48.8L 18.4 48.8L 18.4 48C 16.5346 47.547 15.7519 46.9635 14.4 45.6z"/>
<path style="stroke:none; fill:#df6c46" d="M 21.6 45.6L 21.6 48.8L 22.4 48.8L 23.2 45.6L 21.6 45.6z"/>
<path style="stroke:none; fill:#336330" d="M 23.2 45.6L 23.2 46.4L 27.2 46.4C 25.7848 45.7769 24.7713 45.6701 23.2 45.6z"/>
<path style="stroke:none; fill:#5f6b8f" d="M 35.4666 46.1334C 35.4222 46.1778 35.3778 47.0222 35.7334 46.6666C 35.7778 46.6222 35.8222 45.7778 35.4666 46.1334z"/>
<path style="stroke:none; fill:#e29f43" d="M 40 45.6L 40 48L 40.8 48C 40.599 46.8387 40.5478 46.5987 40 45.6M 45.6 45.6L 44.8 46.4L 44.8 47.2L 45.6 48L 46.4 48L 47.2 47.2L 47.2 46.4L 45.6 45.6z"/>
<path style="stroke:none; fill:#ab29d2" d="M 65.6 45.6C 68.5449 53.7992 65.939 55.9991 57.6 56L 57.6 56.8L 65.6 56.8C 65.6867 60.9782 66.0474 66.9316 69.6 69.6C 69.1293 66.1214 67.284 62.666 67.163 59.2C 66.9752 53.8228 71.757 49.5685 65.6 45.6z"/>
<path style="stroke:none; fill:#df6c46" d="M 11.4666 46.9334C 11.4222 46.9778 11.3778 47.8222 11.7334 47.4666C 11.7778 47.4222 11.8222 46.5778 11.4666 46.9334z"/>
<path style="stroke:none; fill:#f8f3eb" d="M 22.4 46.4C 24.309 52.1606 24.8629 56.8051 32 57.6L 30.4 53.6C 31.7082 54.0361 31.5639 53.8918 32 55.2C 33.5589 54.4514 34.0402 54.0861 35.2 52.8C 30.6962 52.8338 24.456 53.6083 26.4 47.2L 22.4 46.4z"/>
<path style="stroke:none; fill:#e29f43" d="M 24.5334 46.6666C 24.1778 47.0222 25.0222 46.9778 25.0666 46.9334C 25.4222 46.5778 24.5778 46.6222 24.5334 46.6666z"/>
<path style="stroke:none; fill:#336330" d="M 28 46.4L 28 47.2L 35.2 47.2C 32.8882 46.2297 30.5007 46.4014 28 46.4z"/>
<path style="stroke:none; fill:#c0a292" d="M 29.6 47.2L 29.6 48L 37.6 48C 35.1737 46.5971 32.3864 47.1791 29.6 47.2z"/>
<path style="stroke:none; fill:#df6c46" d="M 43.7334 46.6666C 43.3778 47.0222 44.2222 46.9778 44.2666 46.9334C 44.6222 46.5778 43.7778 46.6222 43.7334 46.6666z"/>
<path style="stroke:none; fill:#e29f43" d="M 67.2 46.4L 68.8 49.6L 69.6 49.6L 69.6 46.4L 67.2 46.4z"/>
<path style="stroke:none; fill:#925315" d="M 22.4 52.8C 28.3937 64.2493 42.231 59.3407 48.8 51.2C 46.9907 51.0246 47.1794 51.1965 46.4 49.6L 45.6 49.6C 42.5789 56.4633 35.1987 60.8192 28.0031 56.729C 25.4434 55.2741 17.8093 50.6759 21.6 48C 17.6036 47.1014 18.4598 52.6032 22.4 52.8z"/>
<path style="stroke:none; fill:#e29f43" d="M 26.4 47.2L 26.4 48L 29.6 48C 28.3952 47.4536 27.7482 47.3393 26.4 47.2z"/>
<path style="stroke:none; fill:#df6c46" d="M 40.8 47.2L 40.8 49.6L 41.6 49.6C 41.399 48.4387 41.3478 48.1987 40.8 47.2z"/>
<path style="stroke:none; fill:#f8f3eb" d="M 41.6 47.2L 41.6 48C 43.2146 48.2721 43.9741 48.2586 45.6 48C 44.1848 47.3769 43.1713 47.2701 41.6 47.2z"/>
<path style="stroke:none; fill:#925315" d="M 46.4 47.2L 46.4 48C 47.5653 48.8827 47.9173 49.2347 48.8 50.4L 49.6 50.4C 48.929 48.2988 48.5012 47.871 46.4 47.2z"/>
<path style="stroke:none; fill:#941f76" d="M 11.4666 48.5334C 11.4222 48.5778 11.3778 49.4222 11.7334 49.0666C 11.7778 49.0222 11.8222 48.1778 11.4666 48.5334z"/>
<path style="stroke:none; fill:#c0a292" d="M 19.2 48L 20 48.8L 19.2 48z"/>
<path style="stroke:none; fill:#f8f3eb" d="M 19.2 50.4C 20.6016 49.9488 21.2336 49.6649 22.4 48.8C 20.4377 48.6887 20.2589 48.7434 19.2 50.4z"/>
<path style="stroke:none; fill:#e29f43" d="M 22.4 48L 22.4 49.6L 24 49.6L 24 48L 22.4 48z"/>
<path style="stroke:none; fill:#df6c46" d="M 25.6 48L 25.6 48.8L 30.4 48.8C 28.7583 48.1006 27.4022 48.0378 25.6 48z"/>
<path style="stroke:none; fill:#e29f43" d="M 37.6 48C 38.1469 49.264 38.2438 49.4218 39.2 50.4C 38.6531 49.136 38.5562 48.9782 37.6 48z"/>
<path style="stroke:none; fill:#fcdd1b" d="M 38.4 48C 39.0789 49.593 39.4136 50.2221 40.8 51.2L 40.8 48L 38.4 48z"/>
<path style="stroke:none; fill:#e29f43" d="M 41.6 48L 39.2 52.8C 42.7402 52.4255 44.5745 50.9984 41.6 48z"/>
<path style="stroke:none; fill:#fcdd1b" d="M 44 48L 43.2 48.8C 43.0359 52.3894 40.948 53.0665 37.6 52.8C 37.8586 51.1741 37.8721 50.4146 37.6 48.8C 33.9446 49.783 25.7434 46.7973 24.8 51.2L 29.6 50.4C 30.237 53.3726 32.5098 52.8 35.2 52.8C 34.251 53.749 33.9777 54.067 33.6 55.2L 36.8 54.4C 35.0974 56.0232 33.3805 56.7116 31.2 57.6L 31.2 58.4C 39.1381 58.3334 43.5634 55.7609 45.6 48L 44 48z"/>
<path style="stroke:none; fill:#df6c46" d="M 45.6 48L 44.8 51.2L 45.6 51.2C 45.8469 49.7934 45.9252 49.3274 45.6 48z"/>
<path style="stroke:none; fill:#f8f3eb" d="M 46.4 48L 46.4 52C 47.929 50.4859 48.1104 50.1337 48 48L 46.4 48M 49.6 48.8L 48 54.4L 57.6 52.8L 57.6 48L 49.6 48.8z"/>
<path style="stroke:none; fill:#925315" d="M 14.4 48.8L 14.4 49.6L 17.6 49.6C 16.3951 49.0536 15.7482 48.9393 14.4 48.8z"/>
<path style="stroke:none; fill:#c0a292" d="M 17.8666 49.3334C 17.8222 49.3778 17.7778 50.2222 18.1334 49.8666C 18.1778 49.8222 18.2222 48.9778 17.8666 49.3334z"/>
<path style="stroke:none; fill:#fcdd1b" d="M 19.2 51.2C 21.609 51.5778 22.2802 51.3326 24 49.6C 22.0088 49.8039 20.8333 50.0672 19.2 51.2z"/>
<path style="stroke:none; fill:#336330" d="M 27.2 50.4L 27.2 51.2C 28.5082 51.6361 28.3639 51.4918 28.8 52.8L 29.6 52.8C 28.8806 51.1011 28.8989 51.1194 27.2 50.4z"/>
<path style="stroke:none; fill:#44b85f" d="M 28.8 50.4L 29.6 51.2L 28.8 50.4z"/>
<path style="stroke:none; fill:#c0a292" d="M 38.4 50.4C 37.6114 51.5828 37.6 51.3626 37.6 52.8L 40.8 53.6L 40.8 52.8L 38.4 52.8C 38.5728 51.6619 38.6188 51.4626 38.4 50.4M 48.5334 50.6666C 48.1778 51.0222 49.0222 50.9778 49.0666 50.9334C 49.4222 50.5778 48.5778 50.6222 48.5334 50.6666M 69.6 50.4L 69.6 52.8L 70.4 52.8C 70.199 51.6387 70.1478 51.3987 69.6 50.4M 10.4 51.2L 10.4 54.4L 11.2 54.4C 11.0607 53.0518 10.9464 52.4048 10.4 51.2M 18.4 51.2L 19.2 52L 18.4 51.2z"/>
<path style="stroke:none; fill:#e29f43" d="M 22.4 51.2L 23.2 52L 22.4 51.2z"/>
<path style="stroke:none; fill:#c0a292" d="M 26.6666 51.7334C 26.6222 51.7778 26.5778 52.6222 26.9334 52.2666C 26.9778 52.2222 27.0222 51.3778 26.6666 51.7334z"/>
<path style="stroke:none; fill:#f8f3eb" d="M 27.7334 51.4666C 27.3778 51.8222 28.2222 51.7778 28.2666 51.7334C 28.6222 51.3778 27.7778 51.4222 27.7334 51.4666z"/>
<path style="stroke:none; fill:#44b85f" d="M 38.4 51.2L 39.2 52L 38.4 51.2z"/>
<path style="stroke:none; fill:#c0a292" d="M 47.2 51.2L 48 52L 47.2 51.2z"/>
<path style="stroke:none; fill:#44b85f" d="M 27.2 52L 27.2 53.6L 28.8 53.6L 28.8 52L 27.2 52z"/>
<path style="stroke:none; fill:#336330" d="M 38.4 52L 39.2 52.8L 38.4 52M 40 52L 40.8 52.8L 40 52z"/>
<path style="stroke:none; fill:#ab29d2" d="M 48 52L 48.8 52.8L 48 52z"/>
<path style="stroke:none; fill:#df6c46" d="M 68.8 52L 69.6 52.8L 68.8 52M 17.6 52.8L 17.6 56L 18.4 56C 18.2607 54.6518 18.1464 54.0048 17.6 52.8M 20 52.8L 20.8 53.6L 20 52.8z"/>
<path style="stroke:none; fill:#e29f43" d="M 21.6 52.8C 22.0361 54.1082 21.8918 53.9639 23.2 54.4C 22.7639 53.0918 22.9082 53.2361 21.6 52.8z"/>
<path style="stroke:none; fill:#df6c46" d="M 23.2 52.8L 24 53.6L 23.2 52.8z"/>
<path style="stroke:none; fill:#c0a292" d="M 28.8 52.8L 29.6 53.6L 28.8 52.8z"/>
<path style="stroke:none; fill:#941f76" d="M 47.2 52.8C 47.0448 54.2853 47.0317 55.3226 47.2 56.8L 48 56.8C 47.9299 55.2287 47.8231 54.2152 47.2 52.8z"/>
<path style="stroke:none; fill:#dea2fb" d="M 48 52.8L 48.8 53.6L 48 52.8z"/>
<path style="stroke:none; fill:#df6c46" d="M 20.8 53.6C 21.3469 54.864 21.4438 55.0218 22.4 56C 21.8531 54.736 21.7562 54.5782 20.8 53.6z"/>
<path style="stroke:none; fill:#fcdd1b" d="M 21.6 53.6L 22.4 54.4L 21.6 53.6z"/>
<path style="stroke:none; fill:#c0a292" d="M 24 53.6L 24.8 54.4L 24 53.6M 30.4 53.6L 30.4 55.2L 32 55.2L 32 53.6L 30.4 53.6z"/>
<path style="stroke:none; fill:#df6c46" d="M 45.6 53.6L 44.8 56.8L 45.6 56.8L 47.2 53.6L 45.6 53.6M 51.2 53.6C 51.6361 54.9082 51.4919 54.764 52.8 55.2L 52.8 53.6L 51.2 53.6z"/>
<path style="stroke:none; fill:#ab29d2" d="M 53.3334 53.8666C 52.9778 54.2222 53.8222 54.1778 53.8666 54.1334C 54.2222 53.7778 53.3778 53.8222 53.3334 53.8666z"/>
<path style="stroke:none; fill:#fcdd1b" d="M 22.4 54.4C 23.1635 56.795 24.0879 57.4298 26.4 58.4C 25.1609 56.6914 24.1086 55.6391 22.4 54.4z"/>
<path style="stroke:none; fill:#c0a292" d="M 24.8 54.4L 25.6 55.2L 24.8 54.4z"/>
<path style="stroke:none; fill:#df6c46" d="M 36 54.4C 34.2245 55.053 33.0941 55.2367 31.2 55.2L 31.2 56C 32.9218 56.6005 37.0339 57.1802 36 54.4z"/>
<path style="stroke:none; fill:#ab29d2" d="M 46.4 54.4L 47.2 55.2L 46.4 54.4M 48 54.4L 47.2 57.6C 49.3218 59.0483 50.4419 59.942 51.2 62.4L 52 62.4L 52.8 58.4C 50.9142 57.5171 50.0991 56.8349 48.8 55.2L 52 55.2C 50.5848 54.5769 49.5713 54.4701 48 54.4z"/>
<path style="stroke:none; fill:#dea2fb" d="M 68 54.4L 68.8 55.2L 68 54.4z"/>
<path style="stroke:none; fill:#925315" d="M 11.2 55.2L 12 56L 11.2 55.2z"/>
<path style="stroke:none; fill:#e29f43" d="M 20.8 55.2L 21.6 56L 20.8 55.2z"/>
<path style="stroke:none; fill:#c0a292" d="M 25.6 55.2L 26.4 56L 25.6 55.2M 33.3334 55.4666C 32.9778 55.8222 33.8222 55.7778 33.8666 55.7334C 34.2222 55.3778 33.3778 55.4222 33.3334 55.4666z"/>
<path style="stroke:none; fill:#e29f43" d="M 41.6 55.2L 42.4 56L 41.6 55.2z"/>
<path style="stroke:none; fill:#fcdd1b" d="M 44 55.2L 44.8 56L 44 55.2z"/>
<path style="stroke:none; fill:#df6c46" d="M 11.2 56L 12 56.8L 11.2 56z"/>
<path style="stroke:none; fill:#941f76" d="M 16.8 56L 17.6 56.8L 16.8 56z"/>
<path style="stroke:none; fill:#e29f43" d="M 21.6 56L 22.4 56.8L 21.6 56z"/>
<path style="stroke:none; fill:#df6c46" d="M 26.4 56L 27.2 56.8L 26.4 56M 40.8 56L 41.6 56.8L 40.8 56z"/>
<path style="stroke:none; fill:#e29f43" d="M 42.4 57.6C 44.0739 57.2754 44.0158 57.4266 44.8 56C 43.536 56.5469 43.3782 56.6438 42.4 57.6z"/>
<path style="stroke:none; fill:#dea2fb" d="M 46.4 56L 47.2 56.8L 46.4 56z"/>
<path style="stroke:none; fill:#df6c46" d="M 56.5334 56.2666C 56.1778 56.6222 57.0222 56.5778 57.0666 56.5334C 57.4222 56.1778 56.5778 56.2222 56.5334 56.2666z"/>
<path style="stroke:none; fill:#c0a292" d="M 11.2 56.8L 12 57.6L 11.2 56.8z"/>
<path style="stroke:none; fill:#e29f43" d="M 22.4 56.8L 23.2 57.6L 22.4 56.8z"/>
<path style="stroke:none; fill:#c0a292" d="M 28 56.8L 28.8 57.6L 28 56.8z"/>
<path style="stroke:none; fill:#df6c46" d="M 61.6 56.8L 61.6 57.6L 65.6 57.6C 64.1848 56.9769 63.1713 56.8701 61.6 56.8z"/>
<path style="stroke:none; fill:#dea2fb" d="M 66.4 56.8L 66.4 59.2L 67.2 59.2C 66.999 58.0387 66.9478 57.7987 66.4 56.8z"/>
<path style="stroke:none; fill:#e29f43" d="M 23.2 57.6L 23.2 58.4L 25.6 58.4C 24.6013 57.8522 24.3613 57.801 23.2 57.6z"/>
<path style="stroke:none; fill:#df6c46" d="M 30.4 57.6L 31.2 58.4L 30.4 57.6M 36.8 57.6L 37.6 58.4L 36.8 57.6z"/>
<path style="stroke:none; fill:#fcdd1b" d="M 41.3334 57.8666C 40.9778 58.2222 41.8222 58.1778 41.8666 58.1334C 42.2222 57.7778 41.3778 57.8222 41.3334 57.8666z"/>
<path style="stroke:none; fill:#df6c46" d="M 42.9334 57.8666C 42.5778 58.2222 43.4222 58.1778 43.4666 58.1334C 43.8222 57.7778 42.9778 57.8222 42.9334 57.8666z"/>
<path style="stroke:none; fill:#c0a292" d="M 12 58.4L 12.8 59.2L 12 58.4M 15.2 58.4L 16 59.2L 15.2 58.4z"/>
<path style="stroke:none; fill:#df6c46" d="M 24.8 58.4L 25.6 59.2L 24.8 58.4z"/>
<path style="stroke:none; fill:#1245a7" d="M 21.6 66.4L 10.4 66.4L 10.4 69.6L 22.4 69.6C 22.6656 64.6887 25.169 62.1553 28 58.4C 23.9494 59.5643 22.329 62.3756 21.6 66.4z"/>
<path style="stroke:none; fill:#336330" d="M 38.9334 58.6666C 38.5778 59.0222 39.4222 58.9778 39.4666 58.9334C 39.8222 58.5778 38.9778 58.6222 38.9334 58.6666z"/>
<path style="stroke:none; fill:#e29f43" d="M 40 58.4L 40 59.2L 43.2 59.2C 41.9952 58.6536 41.3482 58.5393 40 58.4z"/>
<path style="stroke:none; fill:#dea2fb" d="M 48.8 58.4L 49.6 59.2L 48.8 58.4z"/>
<path style="stroke:none; fill:#c0a292" d="M 24 59.2L 24.8 60L 24 59.2z"/>
<path style="stroke:none; fill:#6dadf8" d="M 22.4 69.6L 26.4 69.6L 24.8 63.2C 27.8371 64.846 30.9671 65.3287 34.4 65.6L 34.4 66.4L 26.4 65.6L 26.4 66.4C 29.5659 67.4718 32.6592 67.931 36 68L 36 68.8C 33.0118 68.7753 30.1564 68.3736 27.2 68L 27.2 68.8C 31.9066 70.1912 36.7641 70.103 40.8 67.2L 40 69.6L 46.4 69.6L 46.4 65.6C 38.2526 63.1117 22.7604 54.6911 22.4 69.6z"/>
<path style="stroke:none; fill:#1245a7" d="M 29.6 59.2C 33.6218 66.1535 40.2316 60.7886 44.8 66.4L 45.6 66.4C 44.3254 62.6534 42.2494 60.2836 38.4 59.2C 36.7028 64.7362 33.035 61.0646 29.6 59.2z"/>
<path style="stroke:none; fill:#c0a292" d="M 31.2 59.2C 31.9486 60.7589 32.3139 61.2402 33.6 62.4C 33.1431 61.1898 32.9091 60.4582 32.8 59.2L 31.2 59.2M 35.7334 59.4666C 35.3778 59.8222 36.2222 59.7778 36.2666 59.7334C 36.6222 59.3778 35.7778 59.4222 35.7334 59.4666z"/>
<path style="stroke:none; fill:#fcdd1b" d="M 33.6 62.4C 36.3278 62.1899 37.5209 61.857 38.4 59.2C 36.0456 59.8246 34.8629 60.3163 33.6 62.4z"/>
<path style="stroke:none; fill:#c0a292" d="M 40.8 59.2L 41.6 60L 40.8 59.2M 13.3334 60.2666C 12.9778 60.6222 13.8222 60.5778 13.8666 60.5334C 14.2222 60.1778 13.3778 60.2222 13.3334 60.2666z"/>
<path style="stroke:none; fill:#f8f3eb" d="M 32 60L 32.8 61.6L 33.6 61.6L 34.4 60L 32 60z"/>
<path style="stroke:none; fill:#c0a292" d="M 41.6 60L 42.4 60.8L 41.6 60M 0 60.8L 0 64.8L 0.8 64.8C 0.729925 63.2287 0.623149 62.2152 0 60.8z"/>
<path style="stroke:none; fill:#925315" d="M 0.8 60.8L 0.8 61.6C 2.94864 62.0006 5.01595 62.3061 7.2 62.4L 7.2 61.6L 0.8 60.8z"/>
<path style="stroke:none; fill:#c0a292" d="M 3.73334 61.0666C 3.37778 61.4222 4.22222 61.3778 4.26666 61.3334C 4.62222 60.9778 3.77778 61.0222 3.73334 61.0666z"/>
<path style="stroke:none; fill:#5f6b8f" d="M 24.8 60.8L 25.6 61.6L 24.8 60.8z"/>
<path style="stroke:none; fill:#6dadf8" d="M 42.4 60.8L 43.2 61.6L 42.4 60.8z"/>
<path style="stroke:none; fill:#941f76" d="M 52 60.8C 51.2454 63.7166 50.6391 66.5952 50.4 69.6L 51.2 69.6C 52.1769 66.7144 53.1358 63.7098 52 60.8z"/>
<path style="stroke:none; fill:#df6c46" d="M 0.8 61.6L 0.8 62.4L 3.2 62.4C 2.20132 61.8522 1.96126 61.801 0.8 61.6z"/>
<path style="stroke:none; fill:#c0a292" d="M 7.2 61.6L 7.2 62.4L 9.6 62.4C 8.60128 61.8522 8.36128 61.801 7.2 61.6z"/>
<path style="stroke:none; fill:#6dadf8" d="M 22.4 61.6L 23.2 62.4L 22.4 61.6z"/>
<path style="stroke:none; fill:#5f6b8f" d="M 37.6 61.6L 38.4 62.4L 37.6 61.6z"/>
<path style="stroke:none; fill:#c0a292" d="M 43.2 61.6L 44 62.4L 43.2 61.6z"/>
<path style="stroke:none; fill:#dea2fb" d="M 67.2 61.6L 68 62.4L 67.2 61.6z"/>
<path style="stroke:none; fill:#e29f43" d="M 0.8 62.4L 0.8 64.8L 8.8 64.8C 6.93414 61.9219 3.98969 62.4025 0.8 62.4z"/>
<path style="stroke:none; fill:#925315" d="M 8 62.4L 8 63.2L 10.4 63.2C 9.40128 62.6522 9.16128 62.601 8 62.4z"/>
<path style="stroke:none; fill:#c0a292" d="M 9.6 63.2L 9.6 64.8L 10.4 65.6L 12 65.6L 12.8 63.2C 13.5886 64.3828 13.6 64.1626 13.6 65.6L 14.4 65.6L 14.4 63.2L 17.6 63.2C 14.921 62.0762 12.3487 62.3878 9.6 63.2z"/>
<path style="stroke:none; fill:#5f6b8f" d="M 34.4 62.4L 34.4 63.2L 37.6 63.2C 36.3952 62.6536 35.7482 62.5393 34.4 62.4z"/>
<path style="stroke:none; fill:#df6c46" d="M 9.06664 63.7334C 9.02224 63.7778 8.97776 64.6222 9.33336 64.2666C 9.37776 64.2222 9.42224 63.3778 9.06664 63.7334z"/>
<path style="stroke:none; fill:#dea2fb" d="M 12.8 63.2C 12.0114 64.3828 12 64.1626 12 65.6C 13.413 64.8171 13.5644 64.6226 12.8 63.2z"/>
<path style="stroke:none; fill:#925315" d="M 14.4 63.2L 13.6 66.4L 21.6 66.4C 20.4353 62.8907 17.7203 63.2118 14.4 63.2z"/>
<path style="stroke:none; fill:#c0a292" d="M 21.3334 63.4666C 20.9778 63.8222 21.8222 63.7778 21.8666 63.7334C 22.2222 63.3778 21.3778 63.4222 21.3334 63.4666z"/>
<path style="stroke:none; fill:#5f6b8f" d="M 24.8 63.2L 24.8 64.8L 26.4 64.8C 25.9639 63.4918 26.1082 63.6361 24.8 63.2z"/>
<path style="stroke:none; fill:#6dadf8" d="M 44.8 64L 45.6 64.8L 44.8 64z"/>
<path style="stroke:none; fill:#925315" d="M 0.8 64.8L 0.8 65.6L 9.6 65.6C 6.85406 64.4478 3.76015 64.8 0.8 64.8z"/>
<path style="stroke:none; fill:#5f6b8f" d="M 7.2 65.6L 7.2 69.6L 10.4 69.6L 10.4 66.4L 13.6 66.4C 11.4306 65.3088 9.6028 65.3488 7.2 65.6z"/>
<path style="stroke:none; fill:#1245a7" d="M 25.6 64.8L 25.6 67.2L 26.4 67.2C 26.199 66.0387 26.1478 65.7987 25.6 64.8z"/>
<path style="stroke:none; fill:#f8f3eb" d="M 26.4 64.8L 26.4 65.6L 34.4 66.4C 31.8546 65.0467 29.2599 64.8594 26.4 64.8z"/>
<path style="stroke:none; fill:#df6c46" d="M 52 64.8L 52 67.2L 52.8 67.2C 52.599 66.0387 52.5478 65.7986 52 64.8z"/>
<path style="stroke:none; fill:#6dadf8" d="M 0.8 65.6L 0.8 69.6L 7.2 69.6L 7.2 65.6L 0.8 65.6z"/>
<path style="stroke:none; fill:#dea2fb" d="M 50.4 65.6L 51.2 66.4L 50.4 65.6z"/>
<path style="stroke:none; fill:#5f6b8f" d="M 26.4 66.4C 25.6114 67.5828 25.6 67.3626 25.6 68.8C 26.6314 67.6459 26.7207 67.813 26.4 66.4z"/>
<path style="stroke:none; fill:#1245a7" d="M 40.8 66.4L 41.6 67.2L 40.8 66.4M 45.6 66.4L 46.4 69.6L 47.2 69.6C 46.7488 68.1984 46.4649 67.5664 45.6 66.4z"/>
<path style="stroke:none; fill:#dea2fb" d="M 68.8 66.4L 69.6 67.2L 68.8 66.4z"/>
<path style="stroke:none; fill:#f8f3eb" d="M 27.2 67.2L 27.2 68C 30.1604 68.5496 32.9899 68.7917 36 68.8C 33.2704 67.5746 30.1843 67.3282 27.2 67.2z"/>
<path style="stroke:none; fill:#1245a7" d="M 40 67.2C 39.051 68.149 38.7777 68.467 38.4 69.6C 39.9954 68.9222 40.5592 68.7943 40 67.2z"/>
<path style="stroke:none; fill:#5f6b8f" d="M 46.4 67.2L 47.2 68L 46.4 67.2z"/>
<path style="stroke:none; fill:#1245a7" d="M 26.6666 68.5334C 26.6222 68.5778 26.5778 69.4222 26.9334 69.0666C 26.9778 69.0222 27.0222 68.1778 26.6666 68.5334z"/>
<path style="stroke:none; fill:#dea2fb" d="M 49.6 68L 50.4 68.8L 49.6 68M 69.8666 68.5334C 69.8222 68.5778 69.7778 69.4222 70.1334 69.0666C 70.1778 69.0222 70.2222 68.1778 69.8666 68.5334z"/>
<path style="stroke:none; fill:#5f6b8f" d="M 27.2 68.8L 28 69.6L 27.2 68.8z"/>
<path style="stroke:none; fill:#dea2fb" d="M 47.2 68.8L 48 69.6L 47.2 68.8z"/>
<path style="stroke:none; fill:#ab29d2" d="M 49.6 68.8L 50.4 69.6L 49.6 68.8z"/>
<path style="stroke:none; fill:#dea2fb" d="M 51.2 68.8L 52 69.6L 51.2 68.8z"/>
<path style="stroke:none; fill:#010202" d="M 1.6 69.6L 1.6 81.6L 3.2 81.6L 3.2 72.8L 4 72.8C 4.24517 75.8017 4.99274 78.6563 5.6 81.6L 8 81.6C 8.60728 78.6563 9.3548 75.8017 9.6 72.8L 10.4 72.8L 10.4 81.6L 12 81.6L 12 69.6C 7.80672 70.9782 7.52202 76.0574 7.2 80C 5.77214 76.2152 5.87986 71.0067 1.6 69.6z"/>
<path style="stroke:none; fill:#f8f3eb" d="M 4 69.6C 4.9676 73.0351 5.9234 76.4607 6.4 80L 7.2 80C 7.67659 76.4607 8.6324 73.0351 9.6 69.6L 4 69.6z"/>
<path style="stroke:none; fill:#010202" d="M 14.6506 73.6691C 11.3078 75.5598 13.3445 82.996 17.3494 80.7312C 20.6922 78.8402 18.6555 71.4039 14.6506 73.6691M 23.2 77.6C 21.9596 78.9717 21.4049 79.8582 20.8 81.6L 25.6 78.4L 25.6 81.6L 27.2 81.6L 27.2 72.8C 24.0189 72.8377 18.3955 74.4572 23.2 77.6M 37.6 78.4L 34.4 80C 33.9939 77.926 33.9939 76.474 34.4 74.4L 37.6 76C 30.9046 64.0076 33.489 90.7392 37.6 78.4M 45.6 79.2C 43.295 79.3 42.4835 79.1539 40.8 77.6L 45.6 77.6C 42.5286 62.873 35.6558 89.1992 45.6 79.2M 47.2 72.8L 47.2 81.6L 48.8 81.6L 48.8 76L 49.6 76C 49.7382 78.536 49.885 80.1088 52 81.6L 52.8 76L 53.6 76L 53.6 81.6L 55.2 81.6L 55.2 72.8C 52.3694 73.7946 52.1575 75.5447 52 78.4L 50.4 78.4L 49.6 72.8L 47.2 72.8M 56 72.8L 56 81.6C 61.1565 81.432 64.1059 77.0384 57.6 76L 57.6 72.8L 56 72.8M 66.4 77.6C 65.1596 78.9717 64.6049 79.8582 64 81.6L 68.8 78.4L 68.8 81.6L 70.4 81.6L 70.4 72.8C 67.2189 72.8377 61.5955 74.4572 66.4 77.6z"/>
<path style="stroke:none; fill:#f8f3eb" d="M 15.2 74.4C 14.5889 76.5964 14.5889 77.8036 15.2 80L 16.8 80C 17.4111 77.8036 17.4111 76.5964 16.8 74.4L 15.2 74.4M 22.4 74.4L 22.4 76.8L 25.6 76.8L 25.6 74.4L 22.4 74.4M 40.8 75.2L 40.8 76L 44 76C 42.5518 75.0082 42.5785 75.053 40.8 75.2M 65.6 74.4L 65.6 76.8L 68.8 76.8L 68.8 74.4L 65.6 74.4M 57.6 77.6L 57.6 80L 60.8 80L 60.8 77.6L 57.6 77.6z"/>
</g>
</svg>