<?xml version="1.0" standalone="no"?>
<!DOCTYPE svg PUBLIC "-//W3C//DTD SVG 20010904//EN"
 "http://www.w3.org/TR/2001/REC-SVG-20010904/DTD/svg10.dtd">
<svg version="1.0" xmlns="http://www.w3.org/2000/svg"
 width="128.000000pt" height="128.000000pt" viewBox="0 0 128.000000 128.000000"
 preserveAspectRatio="xMidYMid meet">

<g transform="translate(0.000000,128.000000) scale(0.100000,-0.100000)"
fill="#000000" stroke="none">
<path d="M302 1209 c11 -32 23 -40 13 -9 -6 18 -2 20 31 20 47 0 41 6 -13 13
l-41 5 10 -29z"/>
<path d="M594 1226 c-3 -7 -29 -31 -59 -52 l-54 -39 31 -31 c27 -29 29 -34 17
-55 -12 -23 -12 -23 -30 18 -9 22 -23 44 -31 49 -9 6 -8 1 3 -16 27 -42 49
-121 55 -195 5 -63 4 -74 -18 -105 -47 -70 -150 -100 -217 -66 -42 22 -89 81
-97 121 -5 27 1 49 26 102 17 37 38 75 46 84 13 14 13 17 0 22 -8 3 -16 -2
-19 -14 -7 -25 -23 -24 -30 1 -7 26 -43 26 -57 1 -14 -28 -12 -74 4 -96 10
-14 12 -35 9 -70 -6 -55 8 -95 45 -128 11 -11 18 -25 15 -33 -3 -9 -50 -37
-104 -65 -55 -27 -99 -54 -99 -60 0 -6 19 0 43 14 115 67 154 86 160 80 4 -3
7 1 7 10 0 20 8 21 49 4 l31 -13 -25 -24 c-25 -23 -25 -23 -40 -4 -14 18 -15
18 -6 -6 5 -14 15 -24 24 -22 26 4 25 -31 -4 -89 -62 -125 -74 -234 -35 -324
l17 -39 42 42 c41 41 42 43 40 109 -2 58 -1 63 8 36 10 -34 44 -64 63 -57 7 3
18 -6 24 -20 6 -14 23 -32 36 -42 l26 -16 -23 -18 c-13 -10 -32 -34 -42 -54
-16 -30 -24 -36 -45 -32 -14 3 -48 8 -76 11 -48 6 -51 5 -50 -17 1 -19 -5 -24
-32 -26 -30 -3 -33 -1 -30 19 2 15 12 25 28 29 16 4 -2 9 -54 14 -43 4 -93 10
-109 13 -19 4 -28 2 -24 -4 4 -6 38 -13 77 -17 61 -6 70 -10 70 -27 0 -19 -5
-20 -75 -17 -41 2 -75 0 -75 -4 0 -5 22 -8 49 -8 67 0 81 -7 81 -41 l0 -29
125 0 125 0 0 28 c0 34 31 101 56 124 11 9 31 21 45 27 23 8 28 6 38 -15 14
-31 68 -64 104 -64 36 0 67 16 67 35 0 8 4 15 8 15 15 0 70 -65 93 -110 16
-32 24 -40 27 -27 5 23 -37 91 -88 144 -36 37 -38 42 -21 48 11 3 35 23 54 43
43 47 55 49 53 10 -1 -25 6 -36 32 -54 18 -13 38 -24 43 -26 11 -4 -1 -124
-16 -160 -5 -13 -2 -18 8 -18 21 0 37 58 37 132 0 55 -1 58 -34 73 -56 27 -52
41 15 55 74 16 71 24 -5 12 -31 -5 -56 -5 -56 -1 0 5 5 29 12 53 12 47 2 76
-28 76 -21 0 -17 -17 6 -23 34 -9 19 -67 -17 -67 -9 0 -11 9 -6 32 4 20 3 29
-4 25 -6 -4 -13 -20 -16 -36 -9 -43 -61 -97 -112 -117 -91 -34 -216 -3 -263
66 -16 24 -31 34 -49 35 -30 0 -49 25 -39 50 4 12 14 16 35 13 21 -3 28 -1 24
9 -6 14 -16 16 -80 13 -33 -1 -43 2 -43 14 0 31 38 56 85 56 43 0 45 -1 45
-29 0 -27 3 -29 53 -35 97 -11 177 -8 177 9 0 39 66 38 88 -1 7 -12 17 -14 46
-9 32 6 37 11 32 29 -8 35 50 66 123 66 33 0 82 5 110 12 39 9 60 9 91 -1 38
-11 40 -14 40 -52 0 -22 9 -59 20 -81 43 -90 19 -125 -95 -137 -44 -5 -66 -9
-49 -10 17 0 52 -4 78 -7 45 -7 46 -8 47 -43 0 -47 41 -173 57 -179 17 -5 15
13 -13 101 -31 96 -31 105 0 158 30 53 31 73 6 108 -24 33 -35 75 -27 97 6 15
8 15 26 -1 19 -17 20 -17 20 2 0 33 -47 62 -127 78 -43 9 -121 69 -125 97 -2
14 10 40 29 66 18 24 33 51 33 60 1 12 5 10 15 -8 l14 -25 1 28 c0 16 9 36 20
45 28 23 39 89 16 98 -33 13 -63 -15 -70 -62 -7 -56 -49 -139 -80 -160 -23
-14 -28 -14 -68 4 -24 10 -60 39 -80 63 -21 24 -45 52 -53 62 -8 9 -26 17 -40
17 -36 0 -34 -43 5 -82 17 -16 30 -38 30 -48 0 -10 5 -22 10 -25 6 -4 10 8 10
29 0 20 2 36 5 36 3 0 26 -16 52 -36 35 -26 50 -46 56 -71 9 -46 -14 -96 -58
-122 l-33 -19 -11 24 c-11 24 -55 49 -71 39 -4 -3 -49 -7 -98 -10 l-90 -5 -46
42 c-25 24 -48 54 -51 68 -5 22 1 30 40 58 45 32 75 80 75 122 0 11 7 20 15
20 21 0 35 32 35 80 0 45 -20 61 -50 42 -15 -9 -19 -7 -24 11 -3 13 1 29 11
39 16 17 14 20 -18 47 -19 16 -32 31 -29 33 3 3 36 28 74 56 52 39 63 52 47
52 -12 0 -24 -6 -27 -14z m-390 -182 c18 -17 21 -61 6 -84 -9 -13 -13 -12 -30
9 -23 26 -26 61 -8 79 15 15 13 15 32 -4z m396 -83 c0 -34 -31 -77 -48 -67
-29 18 -5 96 28 96 15 0 20 -7 20 -29z m526 -45 c9 -23 -24 -75 -48 -76 -15 0
-8 53 9 72 19 22 32 23 39 4z m-351 -91 c31 -30 32 -45 2 -45 -29 0 -62 34
-54 55 9 21 24 19 52 -10z m-341 -141 c4 -9 1 -24 -6 -33 -7 -9 -9 -13 -4 -9
9 7 76 -39 76 -52 0 -4 -13 -10 -29 -13 -21 -4 -32 -15 -39 -37 -10 -27 -15
-30 -56 -30 l-46 0 0 43 c0 29 6 50 20 65 16 17 18 26 10 46 -8 21 -6 25 13
29 44 8 55 7 61 -9z m546 -19 c0 -8 14 -28 31 -45 17 -17 28 -34 25 -37 -8 -8
-136 -18 -136 -10 0 2 6 17 14 33 8 15 12 39 9 54 -5 25 -3 27 26 22 17 -2 31
-10 31 -17z m-640 5 c0 -5 -7 -10 -16 -10 -8 0 -12 5 -9 10 3 6 10 10 16 10 5
0 9 -4 9 -10z m-28 -117 c-5 -44 -35 -103 -53 -103 -4 0 -4 13 1 29 10 36 48
121 53 121 3 0 2 -21 -1 -47z m238 7 c37 -7 71 -7 115 1 102 19 122 7 128 -76
2 -28 0 -30 -28 -27 -16 2 -35 12 -43 24 -16 22 -58 18 -77 -6 -12 -16 -184
-31 -203 -18 -19 13 -5 79 21 97 25 18 21 18 87 5z m68 -117 c-10 -2 -26 -2
-35 0 -10 3 -2 5 17 5 19 0 27 -2 18 -5z m79 -249 c8 -21 -16 -44 -47 -44 -26
0 -80 33 -80 49 0 5 27 9 61 9 44 1 62 -3 66 -14z"/>
<path d="M389 623 c-13 -16 -12 -17 4 -4 16 13 21 21 13 21 -2 0 -10 -8 -17
-17z"/>
<path d="M513 1223 c9 -2 25 -2 35 0 9 3 1 5 -18 5 -19 0 -27 -2 -17 -5z"/>
<path d="M408 1213 c7 -3 16 -2 19 1 4 3 -2 6 -13 5 -11 0 -14 -3 -6 -6z"/>
<path d="M253 1135 c6 -25 12 -43 15 -41 7 7 -9 86 -17 86 -5 0 -4 -20 2 -45z"/>
<path d="M304 1098 l-29 -33 35 30 c19 17 37 31 39 33 2 1 0 2 -5 2 -6 0 -23
-15 -40 -32z"/>
<path d="M310 1066 c0 -2 13 -6 29 -8 17 -2 28 -1 25 4 -5 8 -54 12 -54 4z"/>
<path d="M304 1026 c-9 -23 3 -49 18 -40 9 6 9 9 0 12 -14 4 -16 32 -3 32 5 0
12 -5 14 -10 3 -6 4 -5 3 2 -4 19 -25 21 -32 4z"/>
<path d="M438 1023 c6 -2 12 -11 12 -19 0 -9 -4 -12 -10 -9 -5 3 -10 2 -10 -3
0 -14 11 -21 24 -16 19 7 7 54 -13 53 -10 0 -11 -2 -3 -6z"/>
<path d="M410 943 c0 -57 -20 -88 -55 -88 -23 0 -31 6 -36 25 -7 23 -7 23 -8
-7 -1 -22 5 -35 18 -43 24 -12 69 2 77 25 3 8 11 12 17 8 6 -4 7 -1 2 7 -5 8
-7 36 -6 62 1 26 0 48 -3 48 -3 0 -6 -17 -6 -37z"/>
<path d="M844 910 c0 -13 4 -16 10 -10 7 7 7 13 0 20 -6 6 -10 3 -10 -10z"/>
<path d="M990 920 c-9 -6 -10 -10 -3 -10 6 0 15 5 18 10 8 12 4 12 -15 0z"/>
<path d="M925 831 c-26 -6 -27 -8 -11 -14 13 -5 25 -2 35 8 8 8 13 14 11 14
-3 -1 -18 -4 -35 -8z"/>
<path d="M440 810 c-9 -6 -10 -10 -3 -10 6 0 15 5 18 10 8 12 4 12 -15 0z"/>
<path d="M970 804 c-14 -7 -43 -14 -65 -14 l-40 -1 28 -24 c30 -27 66 -32 85
-13 20 20 13 32 -7 14 -16 -14 -26 -16 -48 -8 -20 7 -23 11 -13 15 27 9 75 20
83 19 4 -1 7 5 7 13 0 8 -1 15 -2 14 -2 -1 -14 -7 -28 -15z"/>
<path d="M280 796 c0 -16 30 -43 50 -46 37 -5 59 2 72 23 15 21 14 22 -17 22
-18 0 -31 -3 -28 -7 2 -5 11 -8 19 -8 8 0 12 -4 9 -10 -9 -15 -61 -12 -74 4
-9 11 -9 15 1 18 7 3 3 7 -10 10 -14 4 -22 2 -22 -6z"/>
<path d="M513 364 c9 -3 17 -12 17 -20 0 -16 -26 -19 -33 -4 -3 6 -4 5 -3 -2
2 -7 11 -13 22 -13 27 0 26 39 -1 42 -16 1 -16 1 -2 -3z"/>
<path d="M696 336 c7 -19 30 -21 40 -4 4 7 3 8 -5 4 -6 -4 -19 -2 -27 5 -12
10 -13 9 -8 -5z"/>
<path d="M566 285 c12 -31 104 -27 104 4 0 6 -13 3 -29 -6 -27 -16 -30 -16
-54 0 -22 14 -25 15 -21 2z"/>
<path d="M465 105 c11 -63 15 -75 30 -75 10 0 9 12 -7 53 -25 66 -32 72 -23
22z"/>
<path d="M731 75 c-23 -33 -28 -45 -17 -45 8 0 23 17 32 38 10 20 19 40 21 45
12 21 -8 1 -36 -38z"/>
</g>
</svg>
